SplineFontDB: 1.0
FontName: THMaliGrade6-Bold
FullName: THMaliGrade6-Bold
FamilyName: TH Mali Grade 6
Weight: Bold
Copyright: Copyright (c) 2006 by Department of Intellectual Property (DIP), Ministry of Commerce and Software Industry Promotion Agency (Public Organization) (SIPA). All rights reserved.
Version: 1.1
ItalicAngle: 0
UnderlinePosition: -55
UnderlineWidth: 50
Ascent: 1638
Descent: 410
Order2: 1
XUID: [1021 375 425136265 16057784]
FSType: 0
OS2Version: 3
OS2_WeightWidthSlopeOnly: 0
OS2_UseTypoMetrics: 1
CreationTime: 1152588240
ModificationTime: 1174406789
PfmFamily: 17
TTFWeight: 700
TTFWidth: 5
LineGap: 123
VLineGap: 0
Panose: 2 0 5 6 0 0 0 2 0 4
OS2TypoAscent: 0
OS2TypoAOffset: 1
OS2TypoDescent: 0
OS2TypoDOffset: 1
OS2TypoLinegap: 0
OS2WinAscent: -18
OS2WinAOffset: 1
OS2WinDescent: -223
OS2WinDOffset: 1
HheadAscent: -18
HheadAOffset: 1
HheadDescent: 223
HheadDOffset: 1
OS2SubXSize: 1434
OS2SubYSize: 1331
OS2SubXOff: 0
OS2SubYOff: 287
OS2SupXSize: 1434
OS2SupYSize: 1331
OS2SupXOff: 0
OS2SupYOff: 977
OS2StrikeYSize: 49
OS2StrikeYPos: 399
OS2FamilyClass: 773
OS2Vendor: 'IPTH'
ScriptLang: 2
 1 latn 1 dflt 
 0 
ChainSub: coverage 0 0 'liga' 0 0 0 1
 1 0 1
  Coverage: 64 uni0E48.alt2 uni0E49.alt2 uni0E4A.alt2 uni0E4B.alt2 uni0E4C.alt2
  FCoverage: 7 uni0E33
 1
  SeqLookup: 0 'L027'
EndFPST
ChainSub: coverage 0 0 'liga' 0 0 0 1
 1 1 0
  Coverage: 7 uni0E47
  BCoverage: 12 uni0E2C.alt1
 1
  SeqLookup: 0 'L026'
EndFPST
ChainSub: coverage 0 0 'liga' 0 0 0 1
 1 0 1
  Coverage: 7 uni0E2C
  FCoverage: 39 uni0E34 uni0E35 uni0E36 uni0E37 uni0E47
 1
  SeqLookup: 0 'L026'
EndFPST
ChainSub: coverage 0 0 'liga' 0 0 0 1
 1 0 1
  Coverage: 15 uni0E0E uni0E0F
  FCoverage: 38 uni0E38.alt1 uni0E39.alt1 uni0E3A.alt1
 1
  SeqLookup: 0 'L026'
EndFPST
ChainSub: coverage 0 0 'liga' 0 0 0 1
 1 1 0
  Coverage: 5 a b c
  BCoverage: 23 uni0E1B uni0E1D uni0E1F
 1
  SeqLookup: 0 'L026'
EndFPST
ChainSub: coverage 0 0 'liga' 0 0 0 1
 1 0 1
  Coverage: 5 a b c

StartChar: .notdef
Encoding: 65536 -1 0
Width: 1024
Flags: W
Fore
874 1387 m 0,0,1
 874 1372 874 1372 874 1336 c 128,-1,2
 874 1300 874 1300 874 1248 c 128,-1,3
 874 1196 874 1196 874 1130 c 128,-1,4
 874 1064 874 1064 873.5 990.5 c 128,-1,5
 873 917 873 917 872.5 837.5 c 128,-1,6
 872 758 872 758 871 678 c 2,7,-1
 864 55 l 1,8,9
 872 14 872 14 828 14 c 0,10,11
 657 22 657 22 538.5 24.5 c 128,-1,12
 420 27 420 27 340 27 c 0,13,14
 252 27 252 27 206 24.5 c 128,-1,15
 160 22 160 22 141 20 c 0,16,17
 133 20 133 20 122.5 23.5 c 128,-1,18
 112 27 112 27 112 49 c 0,19,20
 112 121 112 121 112 188.5 c 128,-1,21
 112 256 112 256 113 334 c 0,22,23
 113 379 113 379 113.5 430.5 c 128,-1,24
 114 482 114 482 114.5 537 c 128,-1,25
 115.5 647 l 128,-1,26
 116 702 116 702 116 754 c 2,27,-1
 119 1189 l 2,28,29
 119 1236 119 1236 119.5 1269.5 c 128,-1,30
 120 1303 120 1303 120 1325.5 c 128,-1,31
 120 1348 120 1348 120 1361.5 c 128,-1,32
 120 1375 120 1375 120 1381 c 0,33,34
 120 1394 120 1394 126 1402 c 128,-1,35
 132 1410 132 1410 142 1413.5 c 128,-1,36
 152 1417 152 1417 164.5 1418 c 128,-1,37
 177 1419 177 1419 190 1419 c 0,38,39
 302 1416 302 1416 389.5 1413.5 c 128,-1,40
 477 1411 477 1411 552 1410 c 128,-1,41
 627 1409 627 1409 697 1410 c 128,-1,42
 767 1411 767 1411 846 1415 c 0,43,44
 850 1415 850 1415 854.5 1415 c 128,-1,45
 859 1415 859 1415 863.5 1412.5 c 128,-1,46
 868 1410 868 1410 871 1404 c 128,-1,47
 874 1398 874 1398 874 1387 c 0,0,1
188 1340 m 1,48,49
 186 1340 186 1340 186.5 1340.5 c 128,-1,50
 187 1341 187 1341 188 1340 c 1,48,49
638 1334 m 2,51,52
 550 1334 550 1334 437 1335 c 128,-1,53
 324 1336 324 1336 189 1340 c 2,54,-1
 188 1340 l 1,55,56
 188 1314 188 1314 187.5 1251.5 c 128,-1,57
 187 1189 187 1189 186.5 1102.5 c 128,-1,58
 186 1016 186 1016 185 913.5 c 128,-1,59
 184 811 184 811 183 705 c 0,60,61
 183 658 183 658 182 607 c 128,-1,62
 181 556 181 556 180.5 504 c 128,-1,63
 180 452 180 452 179 401 c 128,-1,64
 178 350 178 350 178 304 c 0,65,66
 177 219 177 219 176.5 168.5 c 128,-1,67
 176 118 176 118 176 102 c 1,68,69
 218 101 218 101 261 100.5 c 128,-1,70
 304 100 304 100 352 100 c 0,71,72
 390 99 390 99 434.5 98.5 c 128,-1,73
 479 98 479 98 528 98 c 0,74,75
 592 97 592 97 656 97 c 128,-1,76
 720 97 720 97 798 95 c 1,77,78
 798 110 798 110 798 135.5 c 128,-1,79
 798 161 798 161 799 199 c 0,80,81
 799 223 799 223 799.5 253.5 c 128,-1,82
 800 284 800 284 800 315 c 128,-1,83
 800 346 800 346 800.5 376 c 128,-1,84
 801 406 801 406 801 430 c 2,85,-1
 803 714 l 1,86,-1
 806 1104 l 2,87,88
 806 1116 806 1116 806 1133 c 128,-1,89
 806 1150 806 1150 806.5 1168 c 128,-1,90
 807 1186 807 1186 807 1202 c 128,-1,91
 807 1218 807 1218 807 1229 c 2,92,-1
 809 1334 l 1,93,-1
 638 1334 l 2,51,52
EndSplineSet
EndChar
StartChar: uni0E01
Encoding: 3585 3585 5
Width: 823
Flags: W
Fore
722 -20 m 2,0,1
 722 -44 722 -44 695 -47 c 256,2,3
 668 -50 668 -50 665 -20 c 0,4,5
 662 20 662 20 661 48.5 c 128,-1,6
 660 77 660 77 660 110 c 0,7,8
 656 253 656 253 649.5 362 c 128,-1,9
 643 471 643 471 618 544 c 128,-1,10
 593 617 593 617 542 654 c 128,-1,11
 491 691 491 691 400 691 c 0,12,13
 329 690 329 690 272.5 670 c 128,-1,14
 216 650 216 650 176.5 621.5 c 128,-1,15
 137 593 137 593 114.5 562 c 128,-1,16
 92 531 92 531 89 508 c 1,17,18
 91 507 l 1,19,-1
 101 504 l 1,20,21
 108 499 108 499 121.5 495.5 c 128,-1,22
 135 492 135 492 149 489 c 1,23,24
 153 487 l 128,-1,25
 157 485 l 0,26,27
 179 478 179 478 200 469 c 128,-1,28
 221 460 221 460 235 452 c 0,29,30
 258 439 258 439 267 402 c 128,-1,31
 276 365 276 365 276 314 c 256,32,33
 276 263 276 263 271.5 211.5 c 128,-1,34
 267 160 267 160 261 114 c 2,35,-1
 255 62 l 1,36,-1
 248 -9 l 2,37,38
 246 -36 246 -36 218 -36 c 256,39,40
 190 -36 190 -36 190 -7 c 0,41,42
 190 7 190 7 191.5 22.5 c 128,-1,43
 193 38 193 38 195 58 c 0,44,45
 195 59 195 59 196 63 c 128,-1,46
 197 67 197 67 197 69 c 2,47,-1
 203 123 l 2,48,49
 208 168 208 168 213 217 c 128,-1,50
 218 266 218 266 218 314 c 0,51,52
 218 349 218 349 216.5 371 c 128,-1,53
 215 393 215 393 210 398 c 1,54,55
 203 401 203 401 194 404.5 c 128,-1,56
 185 408 185 408 175 412 c 0,57,58
 164 415 164 415 152 419 c 128,-1,59
 140 423 140 423 131 428 c 1,60,-1
 132 428 l 1,61,62
 114 435 114 435 98 441.5 c 128,-1,63
 82 448 82 448 67 454 c 0,64,65
 30 470 30 470 30 500 c 0,66,67
 30 529 30 529 55.5 572 c 128,-1,68
 81 615 81 615 128.5 654.5 c 128,-1,69
 176 694 176 694 244 722.5 c 128,-1,70
 312 751 312 751 400 752 c 0,71,72
 458 752 458 752 501.5 743 c 128,-1,73
 545 734 545 734 578 715.5 c 128,-1,74
 611 697 611 697 633.5 667.5 c 128,-1,75
 656 638 656 638 672 598 c 0,76,77
 689 558 689 558 697.5 508 c 128,-1,78
 706 458 706 458 708 398 c 0,79,80
 711 338 711 338 713.5 266.5 c 128,-1,81
 716 195 716 195 718 110 c 0,82,83
 718 77 718 77 719 49 c 128,-1,84
 720 21 720 21 722 -19 c 2,85,-1
 722 -20 l 2,0,1
EndSplineSet
EndChar
StartChar: uni0E02
Encoding: 3586 3586 6
Width: 604
Flags: W
Fore
81 599 m 1,0,1
 76 579 76 579 76 566 c 0,2,3
 76 545 76 545 84 527 c 0,4,5
 102 493 102 493 150 491 c 0,6,7
 165 490 165 490 176.5 495 c 128,-1,8
 188 500 188 500 196.5 509.5 c 128,-1,9
 205 519 205 519 209.5 531.5 c 128,-1,10
 214 544 214 544 214 558 c 0,11,12
 214 587 214 587 196 608 c 128,-1,13
 178 629 178 629 146 631 c 0,14,15
 128 633 128 633 108.5 626.5 c 128,-1,16
 89 620 89 620 81 600 c 1,17,-1
 81 599 l 1,0,1
262 430 m 0,18,19
 277 484 277 484 290 537 c 128,-1,20
 303 590 303 590 305 641 c 1,21,22
 297 674 297 674 271 689.5 c 128,-1,23
 245 705 245 705 216 706 c 0,24,25
 196 707 196 707 176.5 701 c 128,-1,26
 157 695 157 695 147 687 c 1,27,28
 212 683 212 683 239 652 c 128,-1,29
 266 621 266 621 270 563 c 1,30,-1
 270 564 l 1,31,32
 272 546 272 546 264 524.5 c 128,-1,33
 256 503 256 503 240 484 c 128,-1,34
 224 465 224 465 201 452.5 c 128,-1,35
 178 440 178 440 150 440 c 0,36,37
 118 441 118 441 93.5 453 c 128,-1,38
 69 465 69 465 53 484.5 c 128,-1,39
 37 504 37 504 30.5 530 c 128,-1,40
 24 556 24 556 27 585 c 0,41,42
 29 611 29 611 39 641.5 c 128,-1,43
 49 672 49 672 71 698 c 128,-1,44
 93 724 93 724 128.5 741.5 c 128,-1,45
 164 759 164 759 217 759 c 0,46,47
 225 759 225 759 232.5 758.5 c 128,-1,48
 240 758 240 758 248 757 c 0,49,50
 273 754 273 754 292.5 741 c 128,-1,51
 312 728 312 728 325.5 711.5 c 128,-1,52
 339 695 339 695 347 677.5 c 128,-1,53
 355 660 355 660 357 647 c 0,54,55
 362 602 362 602 348.5 544.5 c 128,-1,56
 335 487 335 487 318 424 c 0,57,58
 302 365 302 365 289 308.5 c 128,-1,59
 276 252 276 252 276 207 c 0,60,61
 276 188 276 188 278.5 162.5 c 128,-1,62
 281 137 281 137 289.5 113.5 c 128,-1,63
 298 90 298 90 313.5 74 c 128,-1,64
 329 58 329 58 355 58 c 0,65,66
 385 57 385 57 407.5 66.5 c 128,-1,67
 430 76 430 76 441 95 c 0,68,69
 454 115 454 115 461 138.5 c 128,-1,70
 468 162 468 162 468 186 c 0,71,72
 468 188 468 188 467.5 195.5 c 128,-1,73
 467 203 467 203 466 217 c 0,74,75
 464 246 464 246 462 295.5 c 128,-1,76
 460 345 460 345 457.5 402 c 128,-1,77
 455 459 455 459 453.5 517 c 128,-1,78
 452 575 452 575 452 622 c 256,79,80
 452 669 452 669 455 699 c 128,-1,81
 458 729 458 729 466 734 c 0,82,83
 480 742 480 742 489.5 741.5 c 128,-1,84
 499 741 499 741 504.5 736.5 c 128,-1,85
 510 732 510 732 512 725.5 c 128,-1,86
 514 719 514 719 514 715 c 0,87,88
 512 687 512 687 510.5 658.5 c 128,-1,89
 509 630 509 630 509 600 c 0,90,91
 509 540 509 540 512 480.5 c 128,-1,92
 515 421 515 421 518 364 c 0,93,94
 521 316 521 316 523 272 c 128,-1,95
 525 228 525 228 525 192 c 0,96,97
 525 157 525 157 517.5 122.5 c 128,-1,98
 510 88 510 88 490.5 61 c 128,-1,99
 471 34 471 34 438.5 17 c 128,-1,100
 406 0 406 0 355 0 c 0,101,102
 314 0 314 0 287.5 20 c 128,-1,103
 261 40 261 40 245.5 71 c 128,-1,104
 230 102 230 102 224 138.5 c 128,-1,105
 218 175 218 175 218 207 c 0,106,107
 220 267 220 267 233 321.5 c 128,-1,108
 246 376 246 376 262 430 c 0,18,19
EndSplineSet
EndChar
StartChar: uni0E03
Encoding: 3587 3587 7
Width: 676
Flags: W
Fore
88 594 m 0,0,1
 85 584 85 584 83 575.5 c 128,-1,2
 81 567 81 567 81 558 c 0,3,4
 81 541 81 541 90 523 c 0,5,6
 98 506 98 506 113.5 498 c 128,-1,7
 129 490 129 490 152 489 c 0,8,9
 181 487 181 487 198 508 c 128,-1,10
 215 529 215 529 215 558 c 256,11,12
 215 587 215 587 200 605 c 128,-1,13
 185 623 185 623 153 625 c 0,14,15
 133 627 133 627 114.5 620.5 c 128,-1,16
 96 614 96 614 88 594 c 0,0,1
189 699 m 0,17,18
 175 699 175 699 162 694 c 0,19,20
 156 692 156 692 150 688 c 128,-1,21
 144 684 144 684 140 679 c 1,22,23
 180 677 180 677 206.5 666.5 c 128,-1,24
 233 656 233 656 248 635 c 1,25,26
 240 657 240 657 225.5 678 c 128,-1,27
 211 699 211 699 189 699 c 0,17,18
293 600 m 1,28,29
 278 595 278 595 263 603 c 1,30,31
 265 594 265 594 267 584 c 128,-1,32
 269 574 269 574 270 563 c 1,33,-1
 270 564 l 1,34,35
 273 545 273 545 265 523 c 128,-1,36
 257 501 257 501 241.5 482 c 128,-1,37
 226 463 226 463 203 450.5 c 128,-1,38
 180 438 180 438 152 438 c 0,39,40
 90 440 90 440 57.5 479 c 128,-1,41
 25 518 25 518 25 579 c 0,42,43
 28 612 28 612 42.5 644 c 128,-1,44
 57 676 57 676 79.5 701 c 128,-1,45
 102 726 102 726 131.5 741.5 c 128,-1,46
 161 757 161 757 196 757 c 0,47,48
 222 757 222 757 243 742 c 128,-1,49
 264 727 264 727 281 692 c 1,50,51
 293 726 293 726 312 739 c 128,-1,52
 331 752 331 752 351 752 c 0,53,54
 373 752 373 752 386.5 744.5 c 128,-1,55
 400 737 400 737 408.5 725 c 128,-1,56
 417 713 417 713 421.5 698.5 c 128,-1,57
 426 684 426 684 429 670 c 2,58,-1
 434 652 l 2,59,60
 436 644 436 644 437 634 c 128,-1,61
 438 624 438 624 438 613 c 0,62,63
 438 593 438 593 434 569 c 128,-1,64
 430 545 430 545 424 518.5 c 128,-1,65
 418 492 418 492 410 464.5 c 128,-1,66
 402 437 402 437 395 410 c 0,67,68
 379 356 379 356 365.5 301 c 128,-1,69
 352 246 352 246 352 203 c 0,70,71
 352 184 352 184 359 158.5 c 128,-1,72
 366 133 366 133 379.5 109.5 c 128,-1,73
 393 86 393 86 413 70 c 128,-1,74
 433 54 433 54 459 54 c 0,75,76
 497 54 497 54 517 94 c 0,77,78
 528 117 528 117 533 139 c 128,-1,79
 538 161 538 161 538 187 c 0,80,81
 538 194 538 194 537 221 c 128,-1,82
 536 248 536 248 535 285.5 c 128,-1,83
 534 323 534 323 533 368.5 c 128,-1,84
 532 414 532 414 531 459 c 0,85,86
 529 502 529 502 528.5 545.5 c 128,-1,87
 528 589 528 589 528 624 c 0,88,89
 528 672 528 672 530 704 c 128,-1,90
 532 736 532 736 536 743 c 0,91,92
 555 768 555 768 574 748 c 1,93,-1
 573 750 l 1,94,95
 588 739 588 739 588 726 c 0,96,97
 583 690 583 690 581.5 653 c 128,-1,98
 580 616 580 616 580 578 c 0,99,100
 580 520 580 520 583 464 c 128,-1,101
 586 408 586 408 589 355 c 0,102,103
 592 312 592 312 594 270.5 c 128,-1,104
 596 229 596 229 596 196 c 0,105,106
 596 161 596 161 588.5 125 c 128,-1,107
 581 89 581 89 564.5 60.5 c 128,-1,108
 548 32 548 32 522 14 c 128,-1,109
 496 -4 496 -4 459 -4 c 0,110,111
 419 -4 419 -4 388.5 16 c 128,-1,112
 358 36 358 36 337 67 c 128,-1,113
 316 98 316 98 305.5 134.5 c 128,-1,114
 295 171 295 171 295 203 c 0,115,116
 295 254 295 254 309 306.5 c 128,-1,117
 323 359 323 359 340 412 c 0,118,119
 357 463 357 463 370 512.5 c 128,-1,120
 383 562 383 562 383 610 c 0,121,122
 383 630 383 630 380 650 c 0,123,124
 377 669 377 669 372 683 c 128,-1,125
 367 697 367 697 352 695 c 0,126,127
 337 694 337 694 330 671 c 1,128,-1
 330 672 l 1,129,-1
 309 611 l 2,130,131
 305 603 305 603 298 603 c 1,132,133
 295 601 295 601 294 601 c 1,134,-1
 288 599 l 1,135,-1
 293 600 l 1,28,29
EndSplineSet
EndChar
StartChar: uni0E04
Encoding: 3588 3588 8
Width: 836
Flags: W
Fore
429 761 m 0,0,1
 500 761 500 761 550.5 741 c 128,-1,2
 601 721 601 721 635 685 c 128,-1,3
 669 649 669 649 688.5 599.5 c 128,-1,4
 708 550 708 550 718 492 c 128,-1,5
 728 434 728 434 731 368.5 c 128,-1,6
 734 303 734 303 734 236 c 0,7,8
 734 222 734 222 734 199.5 c 128,-1,9
 734 177 734 177 734 151 c 128,-1,10
 734 125 734 125 732.5 98 c 128,-1,11
 731 71 731 71 728 49.5 c 128,-1,12
 725 28 725 28 720.5 15 c 128,-1,13
 716 2 716 2 708 2 c 0,14,15
 693 0 693 0 686.5 11 c 128,-1,16
 680 22 680 22 682 35 c 1,17,-1
 682 236 l 2,18,19
 682 286 682 286 680.5 340 c 128,-1,20
 679 394 679 394 672 446.5 c 128,-1,21
 665 499 665 499 649.5 546 c 128,-1,22
 634 593 634 593 606 628.5 c 128,-1,23
 578 664 578 664 535 684.5 c 128,-1,24
 492 705 492 705 429 705 c 0,25,26
 379 705 379 705 331.5 680.5 c 128,-1,27
 284 656 284 656 245.5 608.5 c 128,-1,28
 207 561 207 561 183 490.5 c 128,-1,29
 159 420 159 420 158 327 c 2,30,-1
 156 59 l 1,31,32
 171 69 171 69 188 103 c 128,-1,33
 205 137 205 137 220.5 178.5 c 128,-1,34
 236 220 236 220 248 261 c 128,-1,35
 260 302 260 302 266 327 c 0,36,37
 276 362 276 362 285.5 389 c 128,-1,38
 295 416 295 416 310 434 c 128,-1,39
 325 452 325 452 347.5 461.5 c 128,-1,40
 370 471 370 471 406 471 c 0,41,42
 523 471 523 471 523 348 c 0,43,44
 523 288 523 288 488 256.5 c 128,-1,45
 453 225 453 225 395 225 c 0,46,47
 373 225 373 225 352 233.5 c 128,-1,48
 331 242 331 242 305 263 c 1,49,50
 278 183 278 183 257.5 133 c 128,-1,51
 237 83 237 83 219.5 54.5 c 128,-1,52
 202 26 202 26 185.5 16 c 128,-1,53
 169 6 169 6 150 6 c 0,54,55
 138 7 138 7 129 15 c 128,-1,56
 120 23 120 23 114.5 52 c 128,-1,57
 109 81 109 81 105.5 138 c 128,-1,58
 102 195 102 195 101 293 c 0,59,60
 99 405 99 405 125.5 492.5 c 128,-1,61
 152 580 152 580 198 639.5 c 128,-1,62
 244 699 244 699 304 730 c 128,-1,63
 364 761 364 761 429 761 c 0,0,1
406 417 m 0,64,65
 383 417 383 417 369 408.5 c 128,-1,66
 355 400 355 400 346.5 385.5 c 128,-1,67
 338 371 338 371 334 352 c 128,-1,68
 330 333 330 333 327 311 c 1,69,70
 347 296 347 296 365 288 c 128,-1,71
 383 280 383 280 394 277 c 1,72,73
 435 280 435 280 454 294 c 128,-1,74
 473 308 473 308 473 348 c 0,75,76
 473 382 473 382 453.5 399.5 c 128,-1,77
 434 417 434 417 406 417 c 0,64,65
EndSplineSet
EndChar
StartChar: uni0E05
Encoding: 3589 3589 9
Width: 827
Flags: W
Fore
397 700 m 0,0,1
 408 690 408 690 417 680 c 128,-1,2
 426 670 426 670 433 660 c 1,3,4
 441 671 441 671 448.5 680.5 c 128,-1,5
 456 690 456 690 465 699 c 0,6,7
 485 722 485 722 505.5 742.5 c 128,-1,8
 526 763 526 763 558 767 c 1,9,10
 613 759 613 759 647.5 713 c 128,-1,11
 682 667 682 667 700.5 588 c 128,-1,12
 719 509 719 509 725.5 400 c 128,-1,13
 732 291 732 291 732 157 c 0,14,15
 732 126 732 126 732 91.5 c 128,-1,16
 732 57 732 57 731 23 c 0,17,18
 731 4 731 4 721 -3.5 c 128,-1,19
 711 -11 711 -11 700.5 -9.5 c 128,-1,20
 690 -8 690 -8 682 2 c 128,-1,21
 674 12 674 12 677 28 c 1,22,23
 678 75 678 75 678.5 122 c 128,-1,24
 679 169 679 169 679 217 c 0,25,26
 679 325 679 325 671.5 414.5 c 128,-1,27
 664 504 664 504 648.5 567.5 c 128,-1,28
 633 631 633 631 609 666 c 128,-1,29
 585 701 585 701 551 701 c 0,30,31
 537 701 537 701 522 686.5 c 128,-1,32
 507 672 507 672 493 652.5 c 128,-1,33
 479 633 479 633 467 611.5 c 128,-1,34
 455 590 455 590 447 577 c 0,35,36
 443 571 443 571 437 571 c 128,-1,37
 431 571 431 571 426 576 c 1,38,39
 399 614 399 614 365.5 648 c 128,-1,40
 332 682 332 682 290 695 c 1,41,42
 264 684 264 684 237 650 c 128,-1,43
 210 616 210 616 188.5 570 c 128,-1,44
 167 524 167 524 154 470.5 c 128,-1,45
 141 417 141 417 142 366 c 0,46,47
 139 315 139 315 138.5 260.5 c 128,-1,48
 138 206 138 206 140.5 162 c 128,-1,49
 143 118 143 118 147.5 89.5 c 128,-1,50
 152 61 152 61 158 62 c 1,51,52
 173 71 173 71 186 105.5 c 128,-1,53
 199 140 199 140 210.5 183 c 128,-1,54
 222 226 222 226 232.5 268 c 128,-1,55
 243 310 243 310 254 334 c 2,56,57
 265 373 265 373 279 401 c 128,-1,58
 293 429 293 429 311.5 447 c 128,-1,59
 330 465 330 465 354.5 473 c 128,-1,60
 379 481 379 481 412 481 c 0,61,62
 468 481 468 481 498.5 448.5 c 128,-1,63
 529 416 529 416 529 354 c 0,64,65
 529 232 529 232 409 232 c 0,66,67
 387 232 387 232 355 241.5 c 128,-1,68
 323 251 323 251 294 269 c 1,69,70
 282 235 282 235 273 206 c 128,-1,71
 264 177 264 177 256 154 c 0,72,73
 241 109 241 109 230.5 80 c 128,-1,74
 220 51 220 51 209.5 34.5 c 128,-1,75
 199 18 199 18 186 12 c 128,-1,76
 173 6 173 6 153 6 c 0,77,78
 141 6 141 6 128 18 c 128,-1,79
 115 30 115 30 105 63.5 c 128,-1,80
 95 97 95 97 88.5 157.5 c 128,-1,81
 82 218 82 218 82 316 c 0,82,83
 82 393 82 393 94 465 c 128,-1,84
 106 537 106 537 131.5 597 c 128,-1,85
 157 657 157 657 195.5 700 c 128,-1,86
 234 743 234 743 287 761 c 1,87,88
 319 758 319 758 346.5 741 c 128,-1,89
 374 724 374 724 397 700 c 0,0,1
413 421 m 0,90,91
 362 421 362 421 346 391 c 1,92,-1
 346 392 l 1,93,94
 337 378 337 378 330.5 359 c 128,-1,95
 324 340 324 340 319 317 c 1,96,97
 342 300 342 300 366 293 c 128,-1,98
 390 286 390 286 407 283 c 1,99,100
 420 284 420 284 434 287.5 c 128,-1,101
 448 291 448 291 461 299 c 0,102,103
 486 315 486 315 486 354 c 0,104,105
 486 392 486 392 463 406 c 0,106,107
 439 421 439 421 413 421 c 0,90,91
EndSplineSet
EndChar
StartChar: uni0E06
Encoding: 3590 3590 10
Width: 860
Flags: W
Fore
80 505 m 0,0,1
 81 474 81 474 99.5 458.5 c 128,-1,2
 118 443 118 443 151 441 c 1,3,4
 180 446 180 446 195 461.5 c 128,-1,5
 210 477 210 477 210 506 c 0,6,7
 210 568 210 568 143 571 c 0,8,9
 125 572 125 572 111 565 c 0,10,11
 99 559 99 559 89 545 c 128,-1,12
 79 531 79 531 80 505 c 0,0,1
381 626 m 2,13,14
 381 644 381 644 373 653.5 c 128,-1,15
 365 663 365 663 355 665.5 c 128,-1,16
 345 668 345 668 335 662 c 128,-1,17
 325 656 325 656 321 642 c 1,18,-1
 321 643 l 1,19,-1
 301 582 l 1,20,21
 293 568 293 568 275.5 568 c 128,-1,22
 258 568 258 568 247 586 c 1,23,24
 245 599 245 599 240 613.5 c 128,-1,25
 235 628 235 628 225 640.5 c 128,-1,26
 215 653 215 653 199.5 661 c 128,-1,27
 184 669 184 669 162 669 c 0,28,29
 133 671 133 671 112.5 656 c 128,-1,30
 92 641 92 641 90 612 c 1,31,32
 104 617 104 617 117 619 c 128,-1,33
 130 621 130 621 143 621 c 0,34,35
 168 621 168 621 190 612.5 c 128,-1,36
 212 604 212 604 228 589.5 c 128,-1,37
 244 575 244 575 253.5 555 c 128,-1,38
 263 535 263 535 265 512 c 0,39,40
 266 494 266 494 259 472.5 c 128,-1,41
 252 451 252 451 237 432.5 c 128,-1,42
 222 414 222 414 200.5 401.5 c 128,-1,43
 179 389 179 389 151 389 c 0,44,45
 85 392 85 392 56.5 424.5 c 128,-1,46
 28 457 28 457 25 523 c 0,47,48
 23 561 23 561 29.5 597.5 c 128,-1,49
 36 634 36 634 52.5 663 c 128,-1,50
 69 692 69 692 97 709.5 c 128,-1,51
 125 727 125 727 167 727 c 0,52,53
 193 727 193 727 221 711 c 128,-1,54
 249 695 249 695 269 661 c 1,55,56
 283 691 283 691 302.5 706 c 128,-1,57
 322 721 322 721 342 723 c 0,58,59
 357 725 357 725 372.5 724.5 c 128,-1,60
 388 724 388 724 400.5 719.5 c 128,-1,61
 413 715 413 715 422 706.5 c 128,-1,62
 431 698 431 698 434 684 c 1,63,64
 434 634 434 634 433 575.5 c 128,-1,65
 432 517 432 517 430 456.5 c 128,-1,66
 428 396 428 396 426.5 337.5 c 128,-1,67
 425 279 425 279 424 229 c 1,68,69
 475 201 475 201 511.5 180.5 c 128,-1,70
 548 160 548 160 576.5 143 c 128,-1,71
 605 126 605 126 627 111.5 c 128,-1,72
 649 97 649 97 670 82 c 2,73,-1
 719 43 l 1,74,-1
 719 695 l 2,75,76
 719 712 719 712 727.5 720.5 c 128,-1,77
 736 729 736 729 747 728.5 c 128,-1,78
 758 728 758 728 767 718 c 128,-1,79
 776 708 776 708 776 689 c 0,80,81
 775 545 775 545 775 442.5 c 128,-1,82
 775 340 775 340 774.5 269.5 c 128,-1,83
 774 199 774 199 774 156 c 128,-1,84
 774 113 774 113 774 87.5 c 128,-1,85
 774 62 774 62 773.5 50 c 128,-1,86
 773 38 773 38 773 29 c 0,87,88
 771 5 771 5 759 -2.5 c 128,-1,89
 747 -10 747 -10 730 -12 c 1,90,91
 707 -9 707 -9 686 2 c 128,-1,92
 665 13 665 13 646 26 c 128,-1,93
 627 39 627 39 610 51.5 c 128,-1,94
 593 64 593 64 578 72 c 2,95,96
 547 95 547 95 511.5 118.5 c 128,-1,97
 476 142 476 142 425 169 c 1,98,99
 424 133 424 133 419.5 98.5 c 128,-1,100
 415 64 415 64 405 39 c 1,101,-1
 410 43 l 1,102,103
 398 11 398 11 368 -7 c 128,-1,104
 338 -25 338 -25 295 -26 c 0,105,106
 252 -26 252 -26 224 -12.5 c 128,-1,107
 196 1 196 1 179.5 22.5 c 128,-1,108
 163 44 163 44 156.5 69.5 c 128,-1,109
 150 95 150 95 150 119 c 0,110,111
 149 137 149 137 157 160.5 c 128,-1,112
 165 184 165 184 183 205 c 128,-1,113
 201 226 201 226 229.5 241 c 128,-1,114
 258 256 258 256 298 256 c 0,115,116
 312 256 312 256 333.5 252.5 c 128,-1,117
 355 249 355 249 373 243 c 1,118,-1
 381 626 l 2,13,14
369 159 m 0,119,120
 368 167 368 167 360 175 c 128,-1,121
 352 183 352 183 341 189 c 128,-1,122
 330 195 330 195 318.5 198.5 c 128,-1,123
 307 202 307 202 300 202 c 0,124,125
 257 202 257 202 229 179 c 128,-1,126
 201 156 201 156 203 116 c 1,127,-1
 203 117 l 1,128,129
 201 99 201 99 208 82 c 128,-1,130
 215 65 215 65 228 52.5 c 128,-1,131
 241 40 241 40 258 33 c 128,-1,132
 275 26 275 26 294 27 c 0,133,134
 337 29 337 29 356 61 c 128,-1,135
 375 93 375 93 369 159 c 0,119,120
EndSplineSet
EndChar
StartChar: uni0E07
Encoding: 3591 3591 11
Width: 678
Flags: W
Fore
598 532 m 2,0,1
 593 393 593 393 583 292 c 128,-1,2
 573 191 573 191 557 126 c 128,-1,3
 541 61 541 61 520 29.5 c 128,-1,4
 499 -2 499 -2 473 -2 c 0,5,6
 438 -2 438 -2 386.5 43 c 128,-1,7
 335 88 335 88 277 166.5 c 128,-1,8
 219 245 219 245 161 352.5 c 128,-1,9
 103 460 103 460 57 586 c 0,10,11
 48 611 48 611 74 619 c 0,12,13
 102 626 102 626 109 607 c 0,14,15
 174 450 174 450 231.5 344.5 c 128,-1,16
 289 239 289 239 336 175.5 c 128,-1,17
 383 112 383 112 417.5 85.5 c 128,-1,18
 452 59 452 59 464 57 c 1,19,20
 479 59 479 59 487.5 83.5 c 128,-1,21
 496 108 496 108 503.5 147.5 c 128,-1,22
 511 187 511 187 517.5 236 c 128,-1,23
 524 285 524 285 528.5 333.5 c 128,-1,24
 533 382 533 382 536 425 c 128,-1,25
 539 468 539 468 540 495 c 1,26,27
 523 483 523 483 501 476 c 128,-1,28
 479 469 479 469 456 469 c 0,29,30
 421 469 421 469 393 480 c 128,-1,31
 365 491 365 491 345.5 509.5 c 128,-1,32
 326 528 326 528 315.5 552.5 c 128,-1,33
 305 577 305 577 305 604 c 0,34,35
 305 680 305 680 344 721.5 c 128,-1,36
 383 763 383 763 452 763 c 0,37,38
 495 763 495 763 523.5 746.5 c 128,-1,39
 552 730 552 730 568.5 702.5 c 128,-1,40
 585 675 585 675 591.5 638 c 128,-1,41
 598 601 598 601 598 560 c 2,42,-1
 598 532 l 2,0,1
456 531 m 0,43,44
 497 531 497 531 513 554 c 0,45,46
 533 580 533 580 533 606 c 0,47,48
 533 629 533 629 525.5 648 c 128,-1,49
 518 667 518 667 506 680 c 128,-1,50
 494 693 494 693 478 700 c 128,-1,51
 462 707 462 707 446 707 c 0,52,53
 425 707 425 707 409 699 c 128,-1,54
 393 691 393 691 382.5 677.5 c 128,-1,55
 372 664 372 664 367 646.5 c 128,-1,56
 362 629 362 629 362 611 c 0,57,58
 362 576 362 576 384 553.5 c 128,-1,59
 406 531 406 531 456 531 c 0,43,44
EndSplineSet
EndChar
StartChar: uni0E08
Encoding: 3592 3592 12
Width: 735
Flags: W
Fore
117 436 m 0,0,1
 117 417 117 417 108 409.5 c 128,-1,2
 99 402 99 402 84 406 c 0,3,4
 73 410 73 410 65.5 417 c 128,-1,5
 58 424 58 424 58 436 c 0,6,7
 58 512 58 512 73.5 567 c 128,-1,8
 89 622 89 622 114 660 c 128,-1,9
 139 698 139 698 171.5 721.5 c 128,-1,10
 204 745 204 745 239 757.5 c 128,-1,11
 274 770 274 770 308.5 774 c 128,-1,12
 343 778 343 778 372 778 c 0,13,14
 473 778 473 778 528 738 c 0,15,16
 557 718 557 718 578.5 693 c 128,-1,17
 600 668 600 668 614 641 c 0,18,19
 642 585 642 585 648 521 c 0,20,21
 654 461 654 461 654 420 c 0,22,23
 654 342 654 342 640 266.5 c 128,-1,24
 626 191 626 191 604 131.5 c 128,-1,25
 582 72 582 72 553.5 36 c 128,-1,26
 525 0 525 0 497 2 c 0,27,28
 473 4 473 4 458.5 18.5 c 128,-1,29
 444 33 444 33 436.5 55.5 c 128,-1,30
 429 78 429 78 427 106.5 c 128,-1,31
 425 135 425 135 425 166 c 2,32,-1
 425 231 l 2,33,34
 425 238 425 238 425.5 240.5 c 128,-1,35
 426 243 426 243 426 245 c 128,-1,36
 426 249 l 128,-1,37
 426 251 426 251 425 256 c 1,38,39
 408 248 408 248 390.5 245 c 128,-1,40
 373 242 373 242 354 242 c 0,41,42
 290 242 290 242 256 284 c 0,43,44
 224 324 224 324 219 356 c 0,45,46
 214 386 214 386 224 413.5 c 128,-1,47
 234 441 234 441 253 461 c 128,-1,48
 272 481 272 481 298 493 c 128,-1,49
 324 505 324 505 352 505 c 0,50,51
 376 505 376 505 400.5 497.5 c 128,-1,52
 425 490 425 490 444 469.5 c 128,-1,53
 463 449 463 449 474.5 412 c 128,-1,54
 486 375 486 375 484 315 c 0,55,56
 482 286 482 286 480.5 250 c 128,-1,57
 479 214 479 214 479 179 c 0,58,59
 479 155 479 155 480 132.5 c 128,-1,60
 481 110 481 110 483 93.5 c 128,-1,61
 485 77 485 77 489 67 c 128,-1,62
 493 57 493 57 499 58 c 1,63,64
 508 58 508 58 522 92 c 0,65,66
 531 111 531 111 540 135 c 128,-1,67
 549 159 549 159 557 190 c 0,68,69
 577 252 577 252 586 311 c 0,70,71
 592 344 592 344 594.5 371 c 128,-1,72
 597 398 597 398 597 420 c 0,73,74
 597 451 597 451 594 485 c 128,-1,75
 591 519 591 519 582.5 552.5 c 128,-1,76
 574 586 574 586 558 616 c 128,-1,77
 542 646 542 646 517 669 c 128,-1,78
 492 692 492 692 456.5 705.5 c 128,-1,79
 421 719 421 719 372 719 c 0,80,81
 354 719 354 719 328 716.5 c 128,-1,82
 302 714 302 714 274 705 c 128,-1,83
 246 696 246 696 217.5 678 c 128,-1,84
 189 660 189 660 167 628.5 c 128,-1,85
 145 597 145 597 131 550 c 128,-1,86
 117 503 117 503 117 436 c 0,0,1
288 408 m 0,87,88
 281 388 281 388 281 370 c 0,89,90
 281 341 281 341 300.5 321 c 128,-1,91
 320 301 320 301 356 299 c 0,92,93
 386 297 386 297 403.5 317.5 c 128,-1,94
 421 338 421 338 421 366 c 0,95,96
 421 395 421 395 403 416.5 c 128,-1,97
 385 438 385 438 353 440 c 0,98,99
 334 442 334 442 315 435 c 128,-1,100
 296 428 296 428 288 408 c 0,87,88
EndSplineSet
EndChar
StartChar: uni0E09
Encoding: 3593 3593 13
Width: 836
Flags: W
Fore
288 60 m 1,0,1
 329 85 329 85 367 113 c 128,-1,2
 405 141 405 141 458 183 c 2,3,-1
 545 253 l 1,4,5
 547 281 547 281 548 308.5 c 128,-1,6
 549 336 549 336 549 364 c 0,7,8
 549 426 549 426 540 484 c 128,-1,9
 531 542 531 542 507.5 587 c 128,-1,10
 484 632 484 632 444.5 660.5 c 128,-1,11
 405 689 405 689 344 693 c 0,12,13
 293 692 293 692 251.5 679.5 c 128,-1,14
 210 667 210 667 187 641 c 0,15,16
 162 613 162 613 147.5 575.5 c 128,-1,17
 133 538 133 538 127 503 c 0,18,19
 124 489 124 489 115 481 c 128,-1,20
 106 473 106 473 94 471 c 0,21,22
 62 468 62 468 62 499 c 0,23,24
 63 511 63 511 65 522 c 128,-1,25
 67 533 67 533 70 553 c 0,26,27
 79 598 79 598 106 643 c 0,28,29
 121 666 121 666 142 685 c 128,-1,30
 163 704 163 704 190 721 c 0,31,32
 250 755 250 755 344 755 c 0,33,34
 447 755 447 755 505 703 c 0,35,36
 532 679 532 679 552.5 646.5 c 128,-1,37
 573 614 573 614 584 577 c 0,38,39
 596 542 596 542 603 500.5 c 128,-1,40
 610 459 610 459 611 416 c 2,41,-1
 611 376 l 2,42,43
 611 360 611 360 611 348 c 128,-1,44
 611 336 611 336 611 325 c 128,-1,45
 611 314 611 314 610.5 302.5 c 128,-1,46
 610 291 610 291 609 276 c 1,47,48
 619 281 619 281 627 281.5 c 128,-1,49
 635 282 635 282 645 282 c 0,50,51
 669 282 669 282 691.5 271 c 128,-1,52
 714 260 714 260 731.5 241 c 128,-1,53
 749 222 749 222 759 196 c 128,-1,54
 769 170 769 170 769 140 c 0,55,56
 769 124 769 124 764.5 99.5 c 128,-1,57
 760 75 760 75 746.5 52 c 128,-1,58
 733 29 733 29 707.5 12.5 c 128,-1,59
 682 -4 682 -4 640 -4 c 0,60,61
 567 -4 567 -4 549 53 c 0,62,63
 543 73 543 73 540.5 101 c 128,-1,64
 538 129 538 129 538 165 c 1,65,66
 501 142 501 142 478.5 125 c 128,-1,67
 456 108 456 108 439 94 c 0,68,69
 428 84 428 84 415.5 74.5 c 128,-1,70
 403 65 403 65 388 55 c 128,-1,71
 373 45 373 45 354 33 c 128,-1,72
 335 21 335 21 311 7 c 0,73,74
 268 -15 268 -15 248 20 c 0,75,76
 240 34 240 34 235.5 52 c 128,-1,77
 231 70 231 70 230 90 c 0,78,79
 229 96 229 96 229 105 c 128,-1,80
 229 114 229 114 229 122 c 0,81,82
 229 141 229 141 230 161 c 128,-1,83
 231 181 231 181 232 199 c 0,84,85
 232 206 232 206 232.5 207.5 c 130,-1,86
 233 209 l 1,87,88
 233 209.5 l 130,-1,89
 233 210 233 210 233 215 c 1,90,91
 219 204 219 204 198.5 199 c 128,-1,92
 178 194 178 194 155 194 c 0,93,94
 94 194 94 194 67 234 c 0,95,96
 39 273 39 273 41 320 c 0,97,98
 42 364 42 364 71 405 c 0,99,100
 102 445 102 445 163 445 c 0,101,102
 227 445 227 445 263.5 411 c 128,-1,103
 300 377 300 377 296 309 c 0,104,105
 294 268 294 268 292 221.5 c 128,-1,106
 290 175 290 175 290 137 c 0,107,108
 290 105 290 105 289.5 83 c 128,-1,109
 289 61 289 61 288 60 c 1,0,1
597 185 m 2,110,111
 597 152 597 152 597.5 127 c 128,-1,112
 598 102 598 102 602 84.5 c 128,-1,113
 606 67 606 67 614.5 58.5 c 128,-1,114
 623 50 623 50 640 50 c 0,115,116
 665 50 665 50 679.5 58 c 128,-1,117
 694 66 694 66 702 78 c 128,-1,118
 710 90 710 90 712.5 105.5 c 128,-1,119
 715 121 715 121 717 136 c 0,120,121
 718 154 718 154 712.5 170 c 128,-1,122
 707 186 707 186 696.5 198 c 128,-1,123
 686 210 686 210 672 217.5 c 128,-1,124
 658 225 658 225 643 225 c 0,125,126
 630 225 630 225 619 220.5 c 128,-1,127
 608 216 608 216 597 205 c 1,128,-1
 597 185 l 2,110,111
103 353 m 1,129,130
 100 345 100 345 98 337 c 128,-1,131
 96 329 96 329 96 320 c 0,132,133
 96 309 96 309 98.5 300.5 c 128,-1,134
 101 292 101 292 106 282 c 1,135,-1
 106 283 l 1,136,137
 120 251 120 251 167 249 c 0,138,139
 182 248 182 248 194.5 253.5 c 128,-1,140
 207 259 207 259 215.5 269 c 128,-1,141
 224 279 224 279 229 291.5 c 128,-1,142
 234 304 234 304 234 318 c 0,143,144
 234 347 234 347 219 367 c 128,-1,145
 204 387 204 387 172 389 c 0,146,147
 153 391 153 391 131.5 383 c 128,-1,148
 110 375 110 375 103 354 c 1,149,-1
 103 353 l 1,129,130
EndSplineSet
KernsSLIFO: 68 -113 0 0 67 -113 0 0 66 -113 0 0 56 -102 0 0
EndChar
StartChar: uni0E0A
Encoding: 3594 3594 14
Width: 643
Flags: W
Fore
88 599 m 0,0,1
 82 581 82 581 82 566 c 0,2,3
 82 544 82 544 91 528 c 0,4,5
 109 493 109 493 154 492 c 0,6,7
 181 491 181 491 199 510 c 128,-1,8
 217 529 217 529 217 558 c 256,9,10
 217 587 217 587 199 607 c 128,-1,11
 181 627 181 627 151 629 c 0,12,13
 132 631 132 631 114 624.5 c 128,-1,14
 96 618 96 618 88 599 c 0,0,1
263 430 m 0,15,16
 278 484 278 484 290.5 537 c 128,-1,17
 303 590 303 590 305 641 c 1,18,19
 298 674 298 674 272 689.5 c 128,-1,20
 246 705 246 705 217 706 c 0,21,22
 196 707 196 707 177 701 c 128,-1,23
 158 695 158 695 147 687 c 1,24,25
 212 683 212 683 239 652 c 128,-1,26
 266 621 266 621 270 563 c 1,27,-1
 270 564 l 1,28,29
 272 546 272 546 264 524.5 c 128,-1,30
 256 503 256 503 240 484 c 128,-1,31
 224 465 224 465 201 452.5 c 128,-1,32
 178 440 178 440 150 440 c 0,33,34
 118 441 118 441 94 453 c 128,-1,35
 70 465 70 465 54 484.5 c 128,-1,36
 38 504 38 504 31 530 c 128,-1,37
 24 556 24 556 27 585 c 0,38,39
 29 611 29 611 38.5 641.5 c 128,-1,40
 48 672 48 672 69.5 698.5 c 128,-1,41
 91 725 91 725 126.5 743 c 128,-1,42
 162 761 162 761 195 764.5 c 128,-1,43
 228 768 228 768 269.5 759.5 c 128,-1,44
 311 751 311 751 336.5 710 c 128,-1,45
 362 669 362 669 362 609 c 0,46,47
 362 586 362 586 359.5 562.5 c 128,-1,48
 357 539 357 539 352 515 c 0,49,50
 344 479 344 479 335 441.5 c 128,-1,51
 326 404 326 404 316 369 c 0,52,53
 302 318 302 318 292 276 c 128,-1,54
 282 234 282 234 282 207 c 0,55,56
 282 188 282 188 285 162 c 128,-1,57
 288 136 288 136 296 112.5 c 128,-1,58
 304 89 304 89 318 72.5 c 128,-1,59
 332 56 332 56 354 58 c 0,60,61
 385 59 385 59 405.5 71 c 128,-1,62
 426 83 426 83 438 103 c 128,-1,63
 450 123 450 123 455 149.5 c 128,-1,64
 460 176 460 176 460 206 c 0,65,66
 460 238 460 238 455.5 273.5 c 128,-1,67
 451 309 451 309 443.5 344.5 c 128,-1,68
 436 380 436 380 427.5 414.5 c 128,-1,69
 419 449 419 449 411 479 c 0,70,71
 403 511 403 511 396 537 c 128,-1,72
 389 563 389 563 387 584 c 1,73,74
 410 638 410 638 440.5 679.5 c 128,-1,75
 471 721 471 721 500 747 c 0,76,77
 533 776 533 776 578 802 c 1,78,79
 593 808 593 808 603.5 804 c 128,-1,80
 614 800 614 800 619 791 c 128,-1,81
 624 782 624 782 622.5 771 c 128,-1,82
 621 760 621 760 612 752 c 0,83,84
 593 739 593 739 575.5 725 c 128,-1,85
 558 711 558 711 539 694 c 0,86,87
 511 669 511 669 485.5 637.5 c 128,-1,88
 460 606 460 606 450 577 c 1,89,90
 454 560 454 560 460 535.5 c 128,-1,91
 466 511 466 511 473 485 c 0,92,93
 487 432 487 432 501.5 367 c 128,-1,94
 516 302 516 302 523 241 c 0,95,96
 526 215 526 215 526 188 c 0,97,98
 526 148 526 148 517.5 113 c 128,-1,99
 509 78 509 78 489 52.5 c 128,-1,100
 469 27 469 27 436.5 13 c 128,-1,101
 404 -1 404 -1 355 0 c 0,102,103
 310 1 310 1 283.5 21.5 c 128,-1,104
 257 42 257 42 242.5 72.5 c 128,-1,105
 228 103 228 103 223.5 139 c 128,-1,106
 219 175 219 175 219 207 c 0,107,108
 221 267 221 267 234 321.5 c 128,-1,109
 247 376 247 376 263 430 c 0,15,16
EndSplineSet
EndChar
StartChar: uni0E0B
Encoding: 3595 3595 15
Width: 739
Flags: W
Fore
82 558 m 0,0,1
 81 545 81 545 86 532.5 c 128,-1,2
 91 520 91 520 100 510 c 128,-1,3
 109 500 109 500 122.5 494.5 c 128,-1,4
 136 489 136 489 153 489 c 0,5,6
 184 490 184 490 199.5 509.5 c 128,-1,7
 215 529 215 529 215 558 c 256,8,9
 215 587 215 587 200.5 605 c 128,-1,10
 186 623 186 623 154 625 c 0,11,12
 134 624 134 624 119 617 c 0,13,14
 105 611 105 611 94.5 597.5 c 128,-1,15
 84 584 84 584 82 558 c 0,0,1
147 676 m 0,16,17
 184 676 184 676 210.5 661.5 c 128,-1,18
 237 647 237 647 252 622 c 1,19,20
 249 633 249 633 244.5 647 c 128,-1,21
 240 661 240 661 232.5 673.5 c 128,-1,22
 225 686 225 686 215 695 c 128,-1,23
 205 704 205 704 192 704 c 0,24,25
 163 705 163 705 151.5 694.5 c 128,-1,26
 140 684 140 684 134 676 c 1,27,28
 139 677 139 677 140.5 676.5 c 128,-1,29
 142 676 142 676 147 676 c 0,16,17
346 428 m 0,30,31
 360 482 360 482 373.5 534.5 c 128,-1,32
 387 587 387 587 388 641 c 1,33,34
 383 661 383 661 375.5 679 c 128,-1,35
 368 697 368 697 353 695 c 0,36,37
 337 693 337 693 330 671 c 2,38,-1
 307 613 l 2,39,40
 300 593 300 593 285.5 592.5 c 128,-1,41
 271 592 271 592 262 604 c 1,42,43
 270 586 270 586 271 564 c 0,44,45
 272 545 272 545 264 523 c 128,-1,46
 256 501 256 501 240.5 482 c 128,-1,47
 225 463 225 463 202.5 450.5 c 128,-1,48
 180 438 180 438 153 438 c 0,49,50
 90 440 90 440 58 479 c 128,-1,51
 26 518 26 518 26 579 c 0,52,53
 29 612 29 612 43.5 644 c 128,-1,54
 58 676 58 676 80.5 701 c 128,-1,55
 103 726 103 726 133 741.5 c 128,-1,56
 163 757 163 757 197 757 c 0,57,58
 223 757 223 757 244 742 c 128,-1,59
 265 727 265 727 282 692 c 1,60,61
 294 726 294 726 312.5 739 c 128,-1,62
 331 752 331 752 352 752 c 0,63,64
 407 752 407 752 427.5 719 c 128,-1,65
 448 686 448 686 448 633 c 0,66,67
 448 579 448 579 433.5 515 c 128,-1,68
 419 451 419 451 402 385 c 0,69,70
 388 331 388 331 376 285 c 128,-1,71
 364 239 364 239 362 206 c 0,72,73
 360 188 360 188 363.5 162.5 c 128,-1,74
 367 137 367 137 376 113.5 c 128,-1,75
 385 90 385 90 400.5 74 c 128,-1,76
 416 58 416 58 438 58 c 0,77,78
 468 58 468 58 488.5 69 c 128,-1,79
 509 80 509 80 521 98.5 c 128,-1,80
 533 117 533 117 538.5 142.5 c 128,-1,81
 544 168 544 168 544 198 c 0,82,83
 544 215 544 215 542 236 c 128,-1,84
 540 257 540 257 537 277 c 0,85,86
 529 328 529 328 516 382.5 c 128,-1,87
 503 437 503 437 491 482 c 0,88,89
 483 513 483 513 477 537 c 128,-1,90
 471 561 471 561 469 584 c 1,91,92
 492 638 492 638 523 679.5 c 128,-1,93
 554 721 554 721 583 747 c 0,94,95
 599 761 599 761 619 775 c 128,-1,96
 639 789 639 789 661 802 c 1,97,98
 676 808 676 808 686 804 c 128,-1,99
 696 800 696 800 701 791 c 128,-1,100
 706 782 706 782 704.5 771 c 128,-1,101
 703 760 703 760 694 752 c 0,102,103
 676 739 676 739 658 725 c 128,-1,104
 640 711 640 711 621 694 c 0,105,106
 594 669 594 669 568.5 637.5 c 128,-1,107
 543 606 543 606 532 577 c 1,108,109
 536 560 536 560 542.5 535.5 c 128,-1,110
 549 511 549 511 556 485 c 0,111,112
 570 431 570 431 584.5 366.5 c 128,-1,113
 599 302 599 302 605 241 c 0,114,115
 608 215 608 215 608 188 c 0,116,117
 608 147 608 147 599.5 112.5 c 128,-1,118
 591 78 591 78 571.5 52.5 c 128,-1,119
 552 27 552 27 519 13 c 128,-1,120
 486 -1 486 -1 438 0 c 0,121,122
 393 1 393 1 366 21.5 c 128,-1,123
 339 42 339 42 324.5 72.5 c 128,-1,124
 310 103 310 103 305.5 139 c 128,-1,125
 301 175 301 175 301 207 c 0,126,127
 303 264 303 264 316.5 319 c 128,-1,128
 330 374 330 374 346 428 c 0,30,31
EndSplineSet
EndChar
StartChar: uni0E0C
Encoding: 3596 3596 16
Width: 1006
Flags: W
Fore
261 243 m 0,0,1
 293 243 293 243 314.5 232 c 128,-1,2
 336 221 336 221 350 205 c 128,-1,3
 364 189 364 189 370.5 170.5 c 128,-1,4
 377 152 377 152 379 137 c 1,5,6
 383 155 383 155 393 172.5 c 128,-1,7
 403 190 403 190 418.5 204.5 c 128,-1,8
 434 219 434 219 455 227.5 c 128,-1,9
 476 236 476 236 503 236 c 0,10,11
 519 236 519 236 536 233 c 1,12,-1
 536 264 l 2,13,14
 536 378 536 378 525 455.5 c 128,-1,15
 514 533 514 533 489.5 581 c 128,-1,16
 465 629 465 629 425.5 651.5 c 128,-1,17
 386 674 386 674 329 679 c 0,18,19
 270 680 270 680 225.5 666.5 c 128,-1,20
 181 653 181 653 149.5 632 c 128,-1,21
 118 611 118 611 100 586 c 128,-1,22
 82 561 82 561 77 540 c 1,23,-1
 193 495 l 2,24,25
 204 489 204 489 208.5 471 c 128,-1,26
 213 453 213 453 213 427 c 0,27,28
 213 404 213 404 210.5 374.5 c 128,-1,29
 208 345 208 345 205 313 c 2,30,-1
 198 233 l 1,31,32
 220 245 220 245 261 243 c 0,0,1
854 65 m 1,33,34
 854 141 854 141 854.5 220.5 c 128,-1,35
 855 300 855 300 855 380 c 128,-1,36
 855 460 855 460 854 538.5 c 128,-1,37
 853 617 853 617 852 689 c 0,38,39
 852 706 852 706 862.5 714.5 c 128,-1,40
 873 723 873 723 886 723 c 128,-1,41
 899 723 899 723 909.5 714 c 128,-1,42
 920 705 920 705 920 687 c 2,43,-1
 914 41 l 2,44,45
 913 28 913 28 907 19.5 c 128,-1,46
 901 11 901 11 893 5.5 c 128,-1,47
 885 0 885 0 876 -1.5 c 128,-1,48
 867 -3 867 -3 860 -2 c 1,49,-1
 602 142 l 1,50,51
 605 115 605 115 599.5 90 c 128,-1,52
 594 65 594 65 580.5 45.5 c 128,-1,53
 567 26 567 26 545.5 13.5 c 128,-1,54
 524 1 524 1 496 0 c 0,55,56
 442 0 442 0 411.5 26 c 128,-1,57
 381 52 381 52 376 98 c 2,58,-1
 376 99 l 1,59,60
 371 79 371 79 360 61 c 128,-1,61
 349 43 349 43 333 29.5 c 128,-1,62
 317 16 317 16 297 8 c 128,-1,63
 277 0 277 0 254 2 c 2,64,65
 239 0 239 0 218 7 c 128,-1,66
 197 14 197 14 177.5 29 c 128,-1,67
 158 44 158 44 144.5 67.5 c 128,-1,68
 131 91 131 91 131 123 c 256,69,70
 131 155 131 155 134.5 201.5 c 128,-1,71
 138 248 138 248 142 291 c 0,72,73
 146 333 146 333 149 370 c 128,-1,74
 152 407 152 407 152 430 c 0,75,76
 152 448 152 448 153 449 c 1,77,78
 139 455 139 455 123 461.5 c 128,-1,79
 107 468 107 468 96 472 c 0,80,81
 79 478 79 478 64 483 c 128,-1,82
 49 488 49 488 38 494 c 128,-1,83
 27 500 27 500 20 507 c 128,-1,84
 13 514 13 514 13 524 c 0,85,86
 13 557 13 557 32.5 594 c 128,-1,87
 52 631 52 631 89.5 663 c 128,-1,88
 127 695 127 695 181 716 c 128,-1,89
 235 737 235 737 303 737 c 0,90,91
 311 737 311 737 318.5 737 c 128,-1,92
 326 737 326 737 333 736 c 0,93,94
 368 733 368 733 399.5 726.5 c 128,-1,95
 431 720 431 720 457.5 708 c 128,-1,96
 484 696 484 696 505.5 676.5 c 128,-1,97
 527 657 527 657 542 628 c 1,98,-1
 541 628 l 1,99,100
 567 580 567 580 581.5 499.5 c 128,-1,101
 596 419 596 419 596 295 c 0,102,103
 596 272 596 272 595.5 253.5 c 128,-1,104
 595 235 595 235 594 210 c 1,105,-1
 854 65 l 1,33,34
323 128 m 0,106,107
 322 156 322 156 302.5 174 c 128,-1,108
 283 192 283 192 254 192 c 0,109,110
 222 192 222 192 205 171 c 128,-1,111
 188 150 188 150 188 123 c 256,112,113
 188 96 188 96 205 76 c 128,-1,114
 222 56 222 56 254 56 c 0,115,116
 283 56 283 56 302 75.5 c 128,-1,117
 321 95 321 95 323 128 c 0,106,107
554 119 m 0,118,119
 554 128 554 128 552 138 c 128,-1,120
 550 148 550 148 543.5 157 c 128,-1,121
 537 166 537 166 526 172.5 c 128,-1,122
 515 179 515 179 498 179 c 0,123,124
 483 179 483 179 470 173.5 c 128,-1,125
 457 168 457 168 447.5 158 c 128,-1,126
 438 148 438 148 433.5 133.5 c 128,-1,127
 429 119 429 119 432 103 c 0,128,129
 435 85 435 85 442 75 c 128,-1,130
 449 65 449 65 457.5 59.5 c 128,-1,131
 466 54 466 54 476 53 c 128,-1,132
 486 52 486 52 495 52 c 0,133,134
 514 52 514 52 525.5 58 c 128,-1,135
 537 64 537 64 543 73 c 128,-1,136
 549 82 549 82 551.5 94 c 128,-1,137
 554 106 554 106 554 119 c 0,118,119
EndSplineSet
EndChar
StartChar: uni0E0D
Encoding: 3597 3597 17
Width: 1004
Flags: W
Fore
538 349 m 2,0,1
 538 679 538 679 330 679 c 0,2,3
 279 679 279 679 234.5 665.5 c 128,-1,4
 190 652 190 652 157 631.5 c 128,-1,5
 124 611 124 611 103.5 586 c 128,-1,6
 83 561 83 561 79 539 c 1,7,-1
 194 495 l 1,8,9
 201 490 201 490 203.5 468.5 c 128,-1,10
 206 447 206 447 206 412.5 c 128,-1,11
 206 378 206 378 204 332.5 c 128,-1,12
 202 287 202 287 199 233 c 1,13,14
 218 245 218 245 262 243 c 0,15,16
 298 243 298 243 321.5 229 c 128,-1,17
 345 215 345 215 358 195.5 c 128,-1,18
 371 176 371 176 376 155.5 c 128,-1,19
 381 135 381 135 381 122 c 0,20,21
 377 78 377 78 346 41 c 0,22,23
 311 2 311 2 254 2 c 0,24,25
 239 0 239 0 218 7 c 128,-1,26
 197 14 197 14 177.5 29 c 128,-1,27
 158 44 158 44 144.5 67.5 c 128,-1,28
 131 91 131 91 131 123 c 0,29,30
 131 156 131 156 132.5 199 c 128,-1,31
 134 242 134 242 136.5 287.5 c 128,-1,32
 139 333 139 333 142 376 c 128,-1,33
 145 419 145 419 149 451 c 1,34,35
 135 460 135 460 112 467 c 128,-1,36
 89 474 89 474 67 482 c 128,-1,37
 45 490 45 490 29 500 c 128,-1,38
 13 510 13 510 13 524 c 0,39,40
 13 558 13 558 40.5 597 c 128,-1,41
 68 636 68 636 113 668 c 128,-1,42
 158 700 158 700 215.5 720 c 128,-1,43
 273 740 273 740 333 736 c 0,44,45
 398 732 398 732 446.5 712.5 c 128,-1,46
 495 693 495 693 527.5 647.5 c 128,-1,47
 560 602 560 602 577 524.5 c 128,-1,48
 594 447 594 447 596 327 c 2,49,-1
 587 65 l 1,50,51
 654 60 654 60 719.5 60.5 c 128,-1,52
 785 61 785 61 858 63 c 1,53,54
 858 69 858 69 858.5 94 c 128,-1,55
 859 119 859 119 859 156.5 c 128,-1,56
 859 194 859 194 859.5 240.5 c 128,-1,57
 860 287 860 287 860 337 c 0,58,59
 860 385 860 385 859.5 434.5 c 128,-1,60
 859 484 859 484 858.5 530.5 c 128,-1,61
 858 577 858 577 857 619 c 128,-1,62
 856 661 856 661 855 693 c 1,63,-1
 855 691 l 1,64,65
 852 712 852 712 861.5 723.5 c 128,-1,66
 871 735 871 735 883 735 c 0,67,68
 894 735 894 735 904 724.5 c 128,-1,69
 914 714 914 714 914 690 c 2,70,-1
 916 369 l 2,71,72
 917 320 917 320 917.5 274 c 128,-1,73
 918 228 918 228 918 183 c 256,74,75
 918 138 918 138 917 103.5 c 128,-1,76
 916 69 916 69 914 44 c 0,77,78
 911 23 911 23 902 16.5 c 128,-1,79
 893 10 893 10 882 6 c 0,80,81
 871 3 871 3 840 2.5 c 128,-1,82
 809 2 809 2 765.5 2.5 c 128,-1,83
 722 3 722 3 671 3.5 c 128,-1,84
 620 4 620 4 570 4 c 0,85,86
 554 4 554 4 541.5 10 c 128,-1,87
 529 16 529 16 529 39 c 2,88,-1
 538 349 l 2,0,1
323 128 m 0,89,90
 322 156 322 156 302.5 174 c 128,-1,91
 283 192 283 192 254 192 c 0,92,93
 222 192 222 192 205.5 171.5 c 128,-1,94
 189 151 189 151 189 123 c 256,95,96
 189 95 189 95 205.5 75.5 c 128,-1,97
 222 56 222 56 254 56 c 0,98,99
 283 56 283 56 302 75.5 c 128,-1,100
 321 95 321 95 323 128 c 0,89,90
940 -74 m 1,101,102
 940 -73 940 -73 940.5 -73 c 128,-1,103
 941 -73 941 -73 941 -72 c 1,104,-1
 940 -74 l 1,101,102
678 -144 m 0,105,106
 683 -182 683 -182 664 -219.5 c 128,-1,107
 645 -257 645 -257 600 -277 c 1,108,109
 629 -283 629 -283 659.5 -285 c 128,-1,110
 690 -287 690 -287 719 -282 c 0,111,112
 760 -276 760 -276 797 -268 c 128,-1,113
 834 -260 834 -260 863 -239 c 128,-1,114
 892 -218 892 -218 912 -179.5 c 128,-1,115
 932 -141 932 -141 940 -74 c 0,116,117
 941 -49 941 -49 951.5 -38.5 c 128,-1,118
 962 -28 962 -28 974 -29 c 128,-1,119
 986 -30 986 -30 996 -41 c 128,-1,120
 1006 -52 1006 -52 1006 -70 c 0,121,122
 1001 -142 1001 -142 974.5 -193.5 c 128,-1,123
 948 -245 948 -245 905 -279 c 128,-1,124
 862 -313 862 -313 805.5 -329 c 128,-1,125
 749 -345 749 -345 684 -345 c 0,126,127
 640 -345 640 -345 597 -336 c 128,-1,128
 554 -327 554 -327 519 -307 c 128,-1,129
 484 -287 484 -287 460.5 -254 c 128,-1,130
 437 -221 437 -221 432 -174 c 1,131,-1
 432 -175 l 1,132,133
 427 -148 427 -148 433.5 -125 c 128,-1,134
 440 -102 440 -102 454 -85 c 128,-1,135
 468 -68 468 -68 488.5 -57 c 128,-1,136
 509 -46 509 -46 532 -43 c 0,137,138
 558 -40 558 -40 582.5 -44 c 128,-1,139
 607 -48 607 -48 627 -60.5 c 128,-1,140
 647 -73 647 -73 660.5 -94 c 128,-1,141
 674 -115 674 -115 678 -144 c 0,105,106
534 -103 m 1,142,143
 514 -105 514 -105 500 -123 c 128,-1,144
 486 -141 486 -141 488 -168 c 256,145,146
 490 -195 490 -195 508.5 -215 c 128,-1,147
 527 -235 527 -235 553 -232 c 0,148,149
 570 -231 570 -231 583 -223 c 128,-1,150
 596 -215 596 -215 604.5 -203.5 c 128,-1,151
 613 -192 613 -192 616.5 -178.5 c 128,-1,152
 620 -165 620 -165 619 -153 c 0,153,154
 617 -138 617 -138 609 -128 c 128,-1,155
 601 -118 601 -118 589 -112 c 128,-1,156
 577 -106 577 -106 562.5 -104 c 128,-1,157
 548 -102 548 -102 533 -103 c 1,158,-1
 534 -103 l 1,142,143
EndSplineSet
Substitution: 0 65534 'L026' uni0E0D.alt1
Substitution: 0 65534 'L026' uni0E0D.alt1
EndChar
StartChar: uni0E0E
Encoding: 3598 3598 18
Width: 778
Flags: W
Fore
634 119 m 2,0,1
 635 145 635 145 635 169.5 c 128,-1,2
 635 194 635 194 635 217 c 0,3,4
 635 338 635 338 626 425.5 c 128,-1,5
 617 513 617 513 591.5 571.5 c 128,-1,6
 566 630 566 630 520 660.5 c 128,-1,7
 474 691 474 691 400 697 c 0,8,9
 325 697 325 697 272 680 c 128,-1,10
 219 663 219 663 183.5 640.5 c 128,-1,11
 148 618 148 618 130 594.5 c 128,-1,12
 112 571 112 571 108 558 c 1,13,-1
 247 517 l 1,14,15
 255 517 255 517 259.5 479 c 128,-1,16
 264 441 264 441 265.5 381 c 128,-1,17
 267 321 267 321 266.5 248 c 128,-1,18
 266 175 266 175 263 105 c 0,19,20
 261 72 261 72 245 51 c 128,-1,21
 229 30 229 30 207 18 c 128,-1,22
 185 6 185 6 162.5 2 c 128,-1,23
 140 -2 140 -2 126 0 c 1,24,-1
 127 0 l 1,25,26
 69 5 69 5 39.5 40.5 c 128,-1,27
 10 76 10 76 14 128 c 0,28,29
 14 142 14 142 20 162.5 c 128,-1,30
 26 183 26 183 41 201 c 128,-1,31
 56 219 56 219 80.5 231 c 128,-1,32
 105 243 105 243 141 241 c 0,33,34
 166 241 166 241 183 234 c 128,-1,35
 200 227 200 227 211 217 c 1,36,37
 211 247 211 247 210.5 285 c 128,-1,38
 210 323 210 323 209.5 359.5 c 128,-1,39
 209 396 209 396 207.5 426.5 c 128,-1,40
 206 457 206 457 205 471 c 1,41,-1
 206 471 l 1,42,43
 192 479 192 479 168 485.5 c 128,-1,44
 144 492 144 492 121 497 c 0,45,46
 90 505 90 505 65 515 c 128,-1,47
 40 525 40 525 40 543 c 0,48,49
 41 567 41 567 61 603.5 c 128,-1,50
 81 640 81 640 122 674 c 128,-1,51
 163 708 163 708 225.5 732 c 128,-1,52
 288 756 288 756 374 756 c 0,53,54
 473 756 473 756 536 725 c 128,-1,55
 599 694 599 694 634.5 630 c 128,-1,56
 670 566 670 566 683 467.5 c 128,-1,57
 696 369 696 369 695 234 c 2,58,-1
 691 -275 l 2,59,60
 691 -295 691 -295 686 -309.5 c 128,-1,61
 681 -324 681 -324 673.5 -333 c 128,-1,62
 666 -342 666 -342 657.5 -344 c 128,-1,63
 649 -346 649 -346 643 -341 c 0,64,65
 619 -322 619 -322 598 -305 c 128,-1,66
 577 -288 577 -288 556 -272.5 c 128,-1,67
 535 -257 535 -257 511.5 -242.5 c 128,-1,68
 488 -228 488 -228 458 -214 c 1,69,70
 449 -250 449 -250 424 -279 c 128,-1,71
 399 -308 399 -308 364.5 -327.5 c 128,-1,72
 330 -347 330 -347 290 -357.5 c 128,-1,73
 250 -368 250 -368 211 -368 c 0,74,75
 179 -368 179 -368 151 -361.5 c 128,-1,76
 123 -355 123 -355 101.5 -341 c 128,-1,77
 80 -327 80 -327 66.5 -306.5 c 128,-1,78
 53 -286 53 -286 51 -257 c 0,79,80
 49 -220 49 -220 60 -192 c 128,-1,81
 71 -164 71 -164 92 -145 c 128,-1,82
 113 -126 113 -126 142 -115.5 c 128,-1,83
 171 -105 171 -105 204 -102 c 0,84,85
 254 -98 254 -98 311 -108 c 128,-1,86
 368 -118 368 -118 412 -137 c 1,87,-1
 415 -109 l 2,88,89
 417 -98 417 -98 426.5 -89.5 c 128,-1,90
 436 -81 436 -81 446 -82 c 128,-1,91
 456 -83 456 -83 463.5 -98 c 128,-1,92
 471 -113 471 -113 469 -149 c 1,93,94
 499 -164 499 -164 529 -182 c 0,95,96
 555 -197 555 -197 582.5 -216.5 c 128,-1,97
 610 -236 610 -236 633 -259 c 1,98,-1
 634 119 l 2,0,1
67 132 m 0,99,100
 65 100 65 100 83 79 c 128,-1,101
 101 58 101 58 129 54 c 0,102,103
 144 51 144 51 157 55.5 c 128,-1,104
 170 60 170 60 179 69 c 128,-1,105
 188 78 188 78 193.5 90 c 128,-1,106
 199 102 199 102 201 114 c 0,107,108
 205 140 205 140 188.5 163 c 128,-1,109
 172 186 172 186 143 190 c 0,110,111
 114 193 114 193 92 177 c 128,-1,112
 70 161 70 161 67 132 c 0,99,100
201 -313 m 0,113,114
 232 -313 232 -313 266.5 -304.5 c 128,-1,115
 301 -296 301 -296 330 -280.5 c 128,-1,116
 359 -265 359 -265 379.5 -243 c 128,-1,117
 400 -221 400 -221 404 -194 c 1,118,119
 386 -185 386 -185 363 -178.5 c 128,-1,120
 340 -172 340 -172 315 -167.5 c 128,-1,121
 290 -163 290 -163 265.5 -160.5 c 128,-1,122
 241 -158 241 -158 221 -159 c 0,123,124
 197 -161 197 -161 175.5 -165.5 c 128,-1,125
 154 -170 154 -170 137.5 -181 c 128,-1,126
 121 -192 121 -192 112 -210 c 128,-1,127
 103 -228 103 -228 105 -256 c 0,128,129
 107 -285 107 -285 135 -299 c 128,-1,130
 163 -313 163 -313 201 -313 c 0,113,114
EndSplineSet
Substitution: 0 65534 'L026' uni0E0E.alt1
Substitution: 0 65534 'L026' uni0E0E.alt1
EndChar
StartChar: uni0E0F
Encoding: 3599 3599 19
Width: 795
Flags: W
Fore
582 -211 m 1,0,1
 598 -234 598 -234 613 -254 c 128,-1,2
 628 -274 628 -274 639 -285 c 1,3,4
 641 -276 641 -276 642.5 -256.5 c 128,-1,5
 644 -237 644 -237 645.5 -210.5 c 128,-1,6
 647 -184 647 -184 648 -152.5 c 128,-1,7
 649 -121 649 -121 649 -89 c 0,8,9
 649 -58 649 -58 649.5 -21.5 c 128,-1,10
 650 15 650 15 650.5 53 c 128,-1,11
 651.5 129 l 128,-1,12
 652 167 652 167 652 202 c 0,13,14
 652 331 652 331 643.5 422.5 c 128,-1,15
 635 514 635 514 610.5 573.5 c 128,-1,16
 586 633 586 633 541.5 662.5 c 128,-1,17
 497 692 497 692 425 697 c 0,18,19
 362 702 362 702 309 688 c 128,-1,20
 256 674 256 674 217 651 c 128,-1,21
 178 628 178 628 155.5 602 c 128,-1,22
 133 576 133 576 132 558 c 1,23,-1
 284 513 l 1,24,-1
 290 112 l 2,25,26
 290 85 290 85 277.5 63 c 128,-1,27
 265 41 265 41 244.5 26.5 c 128,-1,28
 224 12 224 12 199.5 5 c 128,-1,29
 175 -2 175 -2 151 0 c 1,30,-1
 152 0 l 1,31,32
 122 0 122 0 100 10.5 c 128,-1,33
 78 21 78 21 64 38.5 c 128,-1,34
 50 56 50 56 43.5 79 c 128,-1,35
 37 102 37 102 38 128 c 0,36,37
 38 142 38 142 44 162 c 128,-1,38
 50 182 50 182 64.5 200 c 128,-1,39
 79 218 79 218 103.5 230 c 128,-1,40
 128 242 128 242 165 241 c 0,41,42
 183 241 183 241 196 237 c 128,-1,43
 209 233 209 233 218 228 c 0,44,45
 228 222 228 222 235 215 c 1,46,-1
 230 471 l 1,47,-1
 231 471 l 1,48,49
 217 478 217 478 193.5 485 c 128,-1,50
 170 492 170 492 147 497 c 0,51,52
 131 501 131 501 116 505 c 128,-1,53
 101 509 101 509 89.5 514 c 128,-1,54
 78 519 78 519 71 526 c 128,-1,55
 64 533 64 533 64 543 c 0,56,57
 61 570 61 570 86 608.5 c 128,-1,58
 111 647 111 647 159 681.5 c 128,-1,59
 207 716 207 716 276 738 c 128,-1,60
 345 760 345 760 429 755 c 0,61,62
 515 750 515 750 570 716 c 128,-1,63
 625 682 625 682 656.5 616 c 128,-1,64
 688 550 688 550 699.5 450 c 128,-1,65
 711 350 711 350 711 214 c 2,66,-1
 711 -70 l 2,67,68
 710 -170 710 -170 706 -226.5 c 128,-1,69
 702 -283 702 -283 693.5 -311 c 128,-1,70
 685 -339 685 -339 671.5 -346 c 128,-1,71
 658 -353 658 -353 638 -353 c 0,72,73
 630 -353 630 -353 619.5 -344 c 128,-1,74
 609 -335 609 -335 598 -321.5 c 128,-1,75
 587 -308 587 -308 575 -291.5 c 128,-1,76
 563 -275 563 -275 553 -260 c 0,77,78
 536 -237 536 -237 523 -219 c 128,-1,79
 510 -201 510 -201 505 -200 c 1,80,81
 497 -212 497 -212 479 -236.5 c 128,-1,82
 461 -261 461 -261 440.5 -285.5 c 128,-1,83
 420 -310 420 -310 399 -329 c 128,-1,84
 378 -348 378 -348 364 -349 c 1,85,86
 352 -348 352 -348 334.5 -327.5 c 128,-1,87
 317 -307 317 -307 300 -284 c 0,88,89
 281 -257 281 -257 260 -222 c 1,90,91
 259 -244 259 -244 250.5 -263.5 c 128,-1,92
 242 -283 242 -283 228.5 -299 c 128,-1,93
 215 -315 215 -315 197 -325.5 c 128,-1,94
 179 -336 179 -336 159 -339 c 0,95,96
 134 -344 134 -344 110 -338.5 c 128,-1,97
 86 -333 86 -333 66.5 -319.5 c 128,-1,98
 47 -306 47 -306 34.5 -285 c 128,-1,99
 22 -264 22 -264 20 -237 c 0,100,101
 17 -185 17 -185 32.5 -156.5 c 128,-1,102
 48 -128 48 -128 70 -114.5 c 128,-1,103
 92 -101 92 -101 113.5 -98.5 c 128,-1,104
 135 -96 135 -96 144 -96 c 0,105,106
 183 -96 183 -96 211 -112 c 1,107,-1
 211 -101 l 2,108,109
 209 -83 209 -83 218 -74.5 c 128,-1,110
 227 -66 227 -66 238.5 -66.5 c 128,-1,111
 250 -67 250 -67 259.5 -76 c 128,-1,112
 269 -85 269 -85 269 -101 c 1,113,-1
 269 -99 l 1,114,-1
 274 -143 l 1,115,116
 288 -159 288 -159 302.5 -179.5 c 128,-1,117
 317 -200 317 -200 331 -220 c 0,118,119
 345 -241 345 -241 357 -258.5 c 128,-1,120
 369 -276 369 -276 366 -282 c 1,121,122
 428 -203 428 -203 457 -167 c 128,-1,123
 486 -131 486 -131 500 -129 c 1,124,125
 518 -129 518 -129 538.5 -152.5 c 128,-1,126
 559 -176 559 -176 579 -207 c 2,127,-1
 583 -212 l 1,128,-1
 582 -211 l 1,0,1
91 132 m 0,129,130
 89 100 89 100 107.5 79 c 128,-1,131
 126 58 126 58 154 54 c 0,132,133
 170 52 170 52 182.5 56.5 c 128,-1,134
 195 61 195 61 203.5 69.5 c 128,-1,135
 212 78 212 78 217.5 90 c 128,-1,136
 223 102 223 102 226 114 c 0,137,138
 230 140 230 140 213.5 163 c 128,-1,139
 197 186 197 186 167 190 c 0,140,141
 138 194 138 194 116 177.5 c 128,-1,142
 94 161 94 161 91 132 c 0,129,130
207 -200 m 0,143,144
 205 -173 205 -173 185 -162 c 128,-1,145
 165 -151 165 -151 139 -151 c 0,146,147
 124 -151 124 -151 110 -156 c 128,-1,148
 96 -161 96 -161 86.5 -171 c 128,-1,149
 77 -181 77 -181 72.5 -196.5 c 128,-1,150
 68 -212 68 -212 73 -233 c 0,151,152
 79 -261 79 -261 95 -274 c 128,-1,153
 111 -287 111 -287 130 -287 c 0,154,155
 144 -287 144 -287 158.5 -283.5 c 128,-1,156
 173 -280 173 -280 184 -270 c 128,-1,157
 195 -260 195 -260 201.5 -243 c 128,-1,158
 208 -226 208 -226 207 -200 c 0,143,144
EndSplineSet
Substitution: 0 65534 'L026' uni0E0F.alt1
Substitution: 0 65534 'L026' uni0E0F.alt1
EndChar
StartChar: uni0E10
Encoding: 3600 3600 20
Width: 719
Flags: W
Fore
212 318 m 0,0,1
 214 286 214 286 234 265.5 c 128,-1,2
 254 245 254 245 289 245 c 0,3,4
 304 244 304 244 317.5 249.5 c 128,-1,5
 331 255 331 255 340.5 265 c 128,-1,6
 350 275 350 275 355.5 288 c 128,-1,7
 361 301 361 301 361 316 c 0,8,9
 361 346 361 346 340 369.5 c 128,-1,10
 319 393 319 393 286 396 c 0,11,12
 257 396 257 396 242 383.5 c 128,-1,13
 227 371 227 371 220 357 c 0,14,15
 212 339 212 339 212 318 c 0,0,1
92 -246 m 1,16,-1
 92 -245 l 1,17,-1
 92 -246 l 1,16,-1
38 -314 m 0,18,19
 66 -312 66 -312 81 -295 c 128,-1,20
 96 -278 96 -278 92 -245 c 1,21,22
 85 -231 85 -231 71.5 -224.5 c 128,-1,23
 58 -218 58 -218 44 -218 c 0,24,25
 25 -218 25 -218 10 -231 c 128,-1,26
 -5 -244 -5 -244 -3 -272 c 0,27,28
 -2 -294 -2 -294 10 -304.5 c 128,-1,29
 22 -315 22 -315 38 -314 c 0,18,19
434 -277 m 0,30,31
 445 -288 445 -288 456 -297 c 128,-1,32
 467 -306 467 -306 476 -313 c 1,33,34
 482 -287 482 -287 483 -261 c 128,-1,35
 484 -235 484 -235 482 -210 c 1,36,37
 465 -221 465 -221 431 -221 c 0,38,39
 407 -221 407 -221 388.5 -212.5 c 128,-1,40
 370 -204 370 -204 357.5 -190 c 128,-1,41
 345 -176 345 -176 338.5 -158 c 128,-1,42
 332 -140 332 -140 332 -121 c 256,43,44
 332 -102 332 -102 338 -84 c 128,-1,45
 344 -66 344 -66 356.5 -52 c 128,-1,46
 369 -38 369 -38 387 -29 c 128,-1,47
 405 -20 405 -20 429 -20 c 0,48,49
 488 -20 488 -20 513.5 -47 c 128,-1,50
 539 -74 539 -74 544 -121 c 0,51,52
 544 -205 544 -205 541 -256.5 c 128,-1,53
 538 -308 538 -308 530 -335 c 128,-1,54
 522 -362 522 -362 508.5 -370.5 c 128,-1,55
 495 -379 495 -379 474 -377 c 0,56,57
 464 -377 464 -377 448.5 -364 c 128,-1,58
 433 -351 433 -351 415.5 -335.5 c 128,-1,59
 398 -320 398 -320 382.5 -305.5 c 128,-1,60
 367 -291 367 -291 357 -286 c 1,61,62
 351 -289 351 -289 336 -303 c 128,-1,63
 321 -317 321 -317 304.5 -332.5 c 128,-1,64
 288 -348 288 -348 272.5 -361 c 128,-1,65
 257 -374 257 -374 249 -374 c 0,66,67
 237 -374 237 -374 223 -365.5 c 128,-1,68
 209 -357 209 -357 194 -344 c 128,-1,69
 179 -331 179 -331 165.5 -315 c 128,-1,70
 152 -299 152 -299 142 -285 c 1,71,72
 131 -321 131 -321 104 -342 c 128,-1,73
 77 -363 77 -363 48 -367 c 0,74,75
 31 -368 31 -368 13 -362.5 c 128,-1,76
 -5 -357 -5 -357 -20 -345 c 128,-1,77
 -35 -333 -35 -333 -45 -314.5 c 128,-1,78
 -55 -296 -55 -296 -57 -272 c 0,79,80
 -59 -245 -59 -245 -50 -225 c 128,-1,81
 -41 -205 -41 -205 -25.5 -191.5 c 128,-1,82
 -10 -178 -10 -178 9.5 -171 c 128,-1,83
 29 -164 29 -164 49 -164 c 0,84,85
 66 -164 66 -164 81 -170 c 128,-1,86
 96 -176 96 -176 108 -185 c 1,87,88
 108 -180 108 -180 106.5 -171 c 128,-1,89
 105 -162 105 -162 101 -152 c 1,90,91
 99 -137 99 -137 106 -127.5 c 128,-1,92
 113 -118 113 -118 123 -116 c 128,-1,93
 133 -114 133 -114 143.5 -119 c 128,-1,94
 154 -124 154 -124 159 -139 c 1,95,-1
 159 -138 l 1,96,97
 165 -177 165 -177 165 -195 c 128,-1,98
 165 -213 165 -213 164 -218 c 1,99,100
 176 -233 176 -233 189 -250 c 128,-1,101
 202 -267 202 -267 213 -281 c 128,-1,102
 224 -295 224 -295 231.5 -304.5 c 128,-1,103
 239 -314 239 -314 241 -314 c 1,104,105
 253 -303 253 -303 267 -289.5 c 128,-1,106
 281 -276 281 -276 296 -263 c 128,-1,107
 311 -250 311 -250 325.5 -239 c 128,-1,108
 340 -228 340 -228 353 -222 c 1,109,110
 370 -222 370 -222 390.5 -239.5 c 128,-1,111
 411 -257 411 -257 434 -277 c 0,30,31
486 -126 m 256,112,113
 487 -100 487 -100 469 -86.5 c 128,-1,114
 451 -73 451 -73 434 -71 c 0,115,116
 413 -71 413 -71 400 -85 c 128,-1,117
 387 -99 387 -99 387 -119 c 0,118,119
 387 -127 387 -127 390 -136 c 128,-1,120
 393 -145 393 -145 399 -152.5 c 128,-1,121
 405 -160 405 -160 414 -165 c 128,-1,122
 423 -170 423 -170 435 -170 c 0,123,124
 457 -169 457 -169 471 -160.5 c 128,-1,125
 485 -152 485 -152 486 -126 c 256,112,113
594 418 m 0,126,127
 592 340 592 340 580 264.5 c 128,-1,128
 568 189 568 189 547.5 130.5 c 128,-1,129
 527 72 527 72 499.5 36 c 128,-1,130
 472 0 472 0 439 0 c 0,131,132
 413 0 413 0 398 14.5 c 128,-1,133
 383 29 383 29 375 53 c 128,-1,134
 367 77 367 77 364 107.5 c 128,-1,135
 361 138 361 138 359 170 c 0,136,137
 358 184 358 184 358.5 187.5 c 128,-1,138
 359 191 359 191 357 205 c 1,139,140
 340 197 340 197 322.5 194.5 c 128,-1,141
 305 192 305 192 287 192 c 0,142,143
 261 192 261 192 238 201 c 128,-1,144
 215 210 215 210 197 225.5 c 128,-1,145
 179 241 179 241 167.5 261.5 c 128,-1,146
 156 282 156 282 153 306 c 0,147,148
 149 336 149 336 158.5 363 c 128,-1,149
 168 390 168 390 186.5 410.5 c 128,-1,150
 205 431 205 431 231 442.5 c 128,-1,151
 257 454 257 454 286 454 c 0,152,153
 308 454 308 454 332 447 c 128,-1,154
 356 440 356 440 376.5 419.5 c 128,-1,155
 397 399 397 399 409.5 362 c 128,-1,156
 422 325 422 325 420 266 c 0,157,158
 420 231 420 231 420.5 194 c 128,-1,159
 421 157 421 157 423 127 c 128,-1,160
 425 97 425 97 429.5 77.5 c 128,-1,161
 434 58 434 58 442 58 c 0,162,163
 451 57 451 57 461.5 74 c 128,-1,164
 472 91 472 91 483 119.5 c 128,-1,165
 494 148 494 148 503.5 185.5 c 128,-1,166
 513 223 513 223 521 263 c 128,-1,167
 529 303 529 303 533.5 342 c 128,-1,168
 538 381 538 381 538 414 c 0,169,170
 536 432 536 432 532.5 445 c 128,-1,171
 529 458 529 458 518 466 c 128,-1,172
 507 474 507 474 485.5 478 c 128,-1,173
 464 482 464 482 427 482 c 0,174,175
 379 482 379 482 339 481.5 c 128,-1,176
 299 481 299 481 264 480 c 0,177,178
 243 479 243 479 218.5 479 c 128,-1,179
 194 479 194 479 177 479 c 0,180,181
 135 479 135 479 106 481.5 c 128,-1,182
 77 484 77 484 59 490.5 c 128,-1,183
 41 497 41 497 32.5 508.5 c 128,-1,184
 24 520 24 520 23 539 c 0,185,186
 21 570 21 570 45 606.5 c 128,-1,187
 69 643 69 643 108 674.5 c 128,-1,188
 147 706 147 706 196 727 c 128,-1,189
 245 748 245 748 295 748 c 0,190,191
 337 748 337 748 367 743 c 128,-1,192
 397 738 397 738 420 727 c 0,193,194
 451 711 451 711 469.5 692 c 128,-1,195
 488 673 488 673 503 656.5 c 128,-1,196
 518 640 518 640 532.5 629 c 128,-1,197
 547 618 547 618 569 618 c 0,198,199
 576 618 576 618 580 622 c 128,-1,200
 584 626 584 626 584 638 c 0,201,202
 584 660 584 660 613 660 c 0,203,204
 643 660 643 660 643 636 c 0,205,206
 643 619 643 619 636 604.5 c 128,-1,207
 629 590 629 590 618 580 c 128,-1,208
 607 570 607 570 594 564.5 c 128,-1,209
 581 559 581 559 569 559 c 0,210,211
 544 557 544 557 523 569 c 128,-1,212
 502 581 502 581 484 597 c 128,-1,213
 466 613 466 613 451.5 629 c 128,-1,214
 437 645 437 645 425 653 c 0,215,216
 405 670 405 670 375.5 680.5 c 128,-1,217
 346 691 346 691 301 691 c 0,218,219
 266 691 266 691 228 677 c 128,-1,220
 190 663 190 663 158.5 642 c 128,-1,221
 127 621 127 621 107.5 595.5 c 128,-1,222
 88 570 88 570 90 548 c 0,223,224
 90 543 90 543 115 542 c 128,-1,225
 140 541 140 541 206 541 c 2,226,-1
 297 541 l 2,227,228
 336 541 336 541 383 541.5 c 128,-1,229
 430 542 430 542 487 542 c 1,230,-1
 486 542 l 1,231,232
 547 547 547 547 571 506 c 0,233,234
 596 470 596 470 594 418 c 0,126,127
EndSplineSet
Substitution: 0 65534 'L026' uni0E10.alt1
Substitution: 0 65534 'L026' uni0E10.alt1
EndChar
StartChar: uni0E11
Encoding: 3601 3601 21
Width: 932
Flags: W
Fore
89 540 m 1,0,1
 83 522 83 522 83 505 c 0,2,3
 83 495 83 495 84 487.5 c 128,-1,4
 85 480 85 480 90 472 c 0,5,6
 106 442 106 442 154 441 c 0,7,8
 183 439 183 439 197.5 458 c 128,-1,9
 212 477 212 477 212 506 c 0,10,11
 212 568 212 568 146 571 c 0,12,13
 128 573 128 573 112.5 566.5 c 128,-1,14
 97 560 97 560 89 539 c 1,15,-1
 89 540 l 1,0,1
407 92 m 2,16,-1
 407 161 l 2,17,18
 407 212 407 212 405.5 271.5 c 128,-1,19
 404 331 404 331 402 398 c 2,20,-1
 398 499 l 2,21,22
 396 545 396 545 394.5 577 c 128,-1,23
 393 609 393 609 389 628.5 c 128,-1,24
 385 648 385 648 377.5 656.5 c 128,-1,25
 370 665 370 665 356 665 c 0,26,27
 336 663 336 663 331 643 c 0,28,29
 328 627 328 627 323.5 611.5 c 128,-1,30
 319 596 319 596 314 578 c 1,31,32
 303 570 303 570 292 568 c 1,33,-1
 293 569 l 1,34,35
 268 561 268 561 255 579 c 1,36,37
 253 588 253 588 247 603 c 128,-1,38
 241 618 241 618 230.5 632.5 c 128,-1,39
 220 647 220 647 204.5 657.5 c 128,-1,40
 189 668 189 668 168 669 c 1,41,42
 154 666 154 666 142 662 c 128,-1,43
 130 658 130 658 122 653 c 0,44,45
 110 647 110 647 101.5 636.5 c 128,-1,46
 93 626 93 626 91 611 c 1,47,48
 118 621 118 621 146 621 c 0,49,50
 196 621 196 621 229.5 589.5 c 128,-1,51
 263 558 263 558 268 512 c 0,52,53
 269 494 269 494 262 472.5 c 128,-1,54
 255 451 255 451 240 432.5 c 128,-1,55
 225 414 225 414 203 401.5 c 128,-1,56
 181 389 181 389 154 389 c 0,57,58
 88 392 88 392 59.5 425 c 128,-1,59
 31 458 31 458 27 523 c 0,60,61
 23 596 23 596 56 658 c 0,62,63
 94 723 94 723 168 727 c 0,64,65
 194 729 194 729 225 712.5 c 128,-1,66
 256 696 256 696 278 661 c 1,67,68
 301 723 301 723 355 723 c 0,69,70
 381 723 381 723 400 714 c 128,-1,71
 419 705 419 705 432 679 c 128,-1,72
 445 653 445 653 451.5 606 c 128,-1,73
 458 559 458 559 460 484 c 1,74,75
 471 526 471 526 489 570 c 128,-1,76
 507 614 507 614 534 650 c 128,-1,77
 561 686 561 686 599 709 c 128,-1,78
 637 732 637 732 688 732 c 0,79,80
 739 730 739 730 770 694.5 c 128,-1,81
 801 659 801 659 818 602 c 128,-1,82
 835 545 835 545 840.5 472 c 128,-1,83
 846 399 846 399 846 324 c 0,84,85
 846 278 846 278 845 233 c 128,-1,86
 844 188 844 188 842 146 c 0,87,88
 842 81 842 81 841.5 43.5 c 128,-1,89
 841 6 841 6 814 4 c 1,90,91
 791 -5 791 -5 780 25 c 1,92,93
 781 69 781 69 782.5 119 c 128,-1,94
 784 169 784 169 786 226 c 1,95,-1
 786 225 l 1,96,97
 787 247 787 247 787.5 267.5 c 128,-1,98
 788 288 788 288 788 315.5 c 128,-1,99
 788 343 788 343 786.5 375 c 128,-1,100
 785 407 785 407 783 439 c 0,101,102
 779 489 779 489 771.5 532 c 128,-1,103
 764 575 764 575 752 609 c 0,104,105
 733 671 733 671 688 673 c 0,106,107
 585 675 585 675 531 513 c 0,108,109
 502 428 502 428 488.5 311 c 128,-1,110
 475 194 475 194 474 39 c 0,111,112
 472 22 472 22 460 13 c 128,-1,113
 448 4 448 4 436 4 c 0,114,115
 421 4 421 4 410.5 14.5 c 128,-1,116
 400 25 400 25 407 92 c 2,16,-1
EndSplineSet
EndChar
StartChar: uni0E12
Encoding: 3602 3602 22
Width: 1081
Flags: W
Fore
370 351 m 0,0,1
 369 380 369 380 347 398.5 c 128,-1,2
 325 417 325 417 296 417 c 0,3,4
 260 417 260 417 245 394 c 0,5,6
 229 370 229 370 229 346 c 0,7,8
 229 326 229 326 245 299 c 0,9,10
 252 289 252 289 265 283 c 128,-1,11
 278 277 278 277 296 277 c 0,12,13
 327 277 327 277 347 297.5 c 128,-1,14
 367 318 367 318 370 351 c 0,0,1
631 379 m 1,15,-1
 627 445 l 2,16,17
 625 493 625 493 622 533.5 c 128,-1,18
 619 574 619 574 611.5 604 c 128,-1,19
 604 634 604 634 589.5 650.5 c 128,-1,20
 575 667 575 667 551 667 c 0,21,22
 512 669 512 669 485 638 c 128,-1,23
 458 607 458 607 443 532 c 1,24,25
 438 522 438 522 432.5 516.5 c 128,-1,26
 427 511 427 511 416 511 c 0,27,28
 394 511 394 511 387 533 c 2,29,-1
 382 545 l 1,30,-1
 383 543 l 1,31,32
 373 568 373 568 363.5 590.5 c 128,-1,33
 354 613 354 613 341 629.5 c 128,-1,34
 328 646 328 646 311 655.5 c 128,-1,35
 294 665 294 665 270 665 c 0,36,37
 243 665 243 665 220.5 650 c 128,-1,38
 198 635 198 635 181 601 c 128,-1,39
 164 567 164 567 154.5 513.5 c 128,-1,40
 145 460 145 460 145 382 c 0,41,42
 145 310 145 310 147.5 249 c 128,-1,43
 150 188 150 188 154 143.5 c 128,-1,44
 158 99 158 99 163 74.5 c 128,-1,45
 168 50 168 50 173 50 c 0,46,47
 182 50 182 50 195 57.5 c 128,-1,48
 208 65 208 65 223.5 77.5 c 128,-1,49
 239 90 239 90 256 107 c 128,-1,50
 273 124 273 124 290 143 c 0,51,52
 309 166 309 166 326 191 c 128,-1,53
 343 216 343 216 356 240 c 1,54,55
 326 225 326 225 296 225 c 0,56,57
 258 225 258 225 234 238 c 128,-1,58
 210 251 210 251 196 269.5 c 128,-1,59
 182 288 182 288 177 308 c 128,-1,60
 172 328 172 328 172 342 c 0,61,62
 172 355 172 355 178 377 c 128,-1,63
 184 399 184 399 198.5 420.5 c 128,-1,64
 213 442 213 442 237.5 457.5 c 128,-1,65
 262 473 262 473 298 473 c 0,66,67
 314 473 314 473 336.5 466.5 c 128,-1,68
 359 460 359 460 380 444 c 128,-1,69
 401 428 401 428 416 401 c 128,-1,70
 431 374 431 374 431 333 c 0,71,72
 431 288 431 288 417 246.5 c 128,-1,73
 403 205 403 205 380.5 168.5 c 128,-1,74
 358 132 358 132 329 101.5 c 128,-1,75
 300 71 300 71 270.5 48.5 c 128,-1,76
 241 26 241 26 213 12 c 128,-1,77
 185 -2 185 -2 164 -6 c 1,78,79
 130 -4 130 -4 112 88.5 c 128,-1,80
 94 181 94 181 88 358 c 1,81,-1
 88 357 l 1,82,83
 87 368 87 368 87 378 c 128,-1,84
 87 388 87 388 87 399 c 0,85,86
 87 501 87 501 104.5 565 c 128,-1,87
 122 629 122 629 149 665 c 128,-1,88
 176 701 176 701 208 714 c 128,-1,89
 240 727 240 727 270 727 c 0,90,91
 305 727 305 727 332.5 714.5 c 128,-1,92
 360 702 360 702 377 681 c 0,93,94
 387 669 387 669 396 655 c 128,-1,95
 405 641 405 641 411 626 c 1,96,97
 416 643 416 643 423.5 655.5 c 128,-1,98
 431 668 431 668 442 682 c 0,99,100
 481 729 481 729 554 727 c 0,101,102
 596 727 596 727 622 706.5 c 128,-1,103
 648 686 648 686 662.5 630 c 128,-1,104
 677 574 677 574 682.5 474 c 128,-1,105
 688 374 688 374 688 214 c 1,106,-1
 937 63 l 1,107,108
 936 68 936 68 935.5 122 c 128,-1,109
 935 176 935 176 935 256 c 0,110,111
 935 314 935 314 934.5 377 c 128,-1,112
 934 440 934 440 933 501 c 0,113,114
 932 555 932 555 931.5 605 c 128,-1,115
 931 655 931 655 931 691 c 1,116,117
 934 712 934 712 942 721 c 128,-1,118
 950 730 950 730 960.5 730.5 c 128,-1,119
 971 731 971 731 981 723.5 c 128,-1,120
 991 716 991 716 991 687 c 0,121,122
 992 662 992 662 991 629 c 128,-1,123
 990 596 990 596 990 551 c 0,124,125
 990 507 990 507 990 462 c 128,-1,126
 990 417 990 417 991 369 c 0,127,128
 991 344 991 344 991.5 321.5 c 128,-1,129
 992 299 992 299 992 276 c 256,130,131
 992 253 992 253 991.5 231 c 128,-1,132
 991 209 991 209 991 187 c 2,133,-1
 988 49 l 1,134,135
 983 20 983 20 972.5 11.5 c 128,-1,136
 962 3 962 3 951 0 c 1,137,138
 943 -1 943 -1 934 0 c 128,-1,139
 925 1 925 1 916 6 c 2,140,-1
 692 141 l 1,141,142
 693 136 693 136 693 131 c 128,-1,143
 693 126 693 126 693 120 c 0,144,145
 693 99 693 99 688.5 78.5 c 128,-1,146
 684 58 684 58 672.5 41 c 128,-1,147
 661 24 661 24 640.5 13 c 128,-1,148
 620 2 620 2 587 0 c 0,149,150
 558 -2 558 -2 533.5 5.5 c 128,-1,151
 509 13 509 13 495 28 c 0,152,153
 467 62 467 62 463 98 c 0,154,155
 461 122 461 122 468.5 146.5 c 128,-1,156
 476 171 476 171 492 191 c 128,-1,157
 508 211 508 211 533.5 223.5 c 128,-1,158
 559 236 559 236 593 236 c 0,159,160
 603 236 603 236 610.5 235.5 c 128,-1,161
 618 235 618 235 629 233 c 1,162,-1
 631 379 l 1,15,-1
634 168 m 1,163,164
 630 170 630 170 629 170 c 1,165,166
 629 172 629 172 628.5 172.5 c 128,-1,167
 628 173 628 173 628 175 c 1,168,-1
 634 168 l 1,163,164
638 122 m 0,169,170
 638 144 638 144 629 170 c 1,171,172
 619 175 619 175 609 177 c 128,-1,173
 599 179 599 179 590 179 c 0,174,175
 561 179 561 179 540.5 158 c 128,-1,176
 520 137 520 137 523 103 c 0,177,178
 524 88 524 88 537 66 c 1,179,-1
 536 67 l 1,180,181
 549 52 549 52 586 52 c 256,182,183
 623 52 623 52 633 87 c 0,184,185
 638 105 638 105 638 122 c 0,169,170
EndSplineSet
EndChar
StartChar: uni0E13
Encoding: 3603 3603 23
Width: 1110
Flags: W
Fore
892 332 m 0,0,1
 892 304 892 304 891.5 278 c 128,-1,2
 891 252 891 252 893 226 c 1,3,4
 902 228 902 228 910.5 229 c 128,-1,5
 919 230 919 230 927 230 c 0,6,7
 962 230 962 230 986.5 216.5 c 128,-1,8
 1011 203 1011 203 1026.5 182.5 c 128,-1,9
 1042 162 1042 162 1048.5 138 c 128,-1,10
 1055 114 1055 114 1054 93 c 0,11,12
 1050 57 1050 57 1024 22 c 0,13,14
 996 -12 996 -12 934 -6 c 0,15,16
 901 -2 901 -2 880.5 9.5 c 128,-1,17
 860 21 860 21 848.5 37.5 c 128,-1,18
 837 54 837 54 832.5 74 c 128,-1,19
 828 94 828 94 828 114 c 0,20,21
 828 119 828 119 828 125.5 c 128,-1,22
 828 132 828 132 829 137 c 1,23,-1
 587 1 l 2,24,25
 575 -4 575 -4 562 -4 c 0,26,27
 548 -4 548 -4 535.5 4 c 128,-1,28
 523 12 523 12 518 36 c 1,29,-1
 518 172 l 2,30,31
 518 214 518 214 518 266 c 128,-1,32
 518 318 518 318 520 380 c 0,33,34
 519 458 519 458 506.5 513.5 c 128,-1,35
 494 569 494 569 470 605 c 128,-1,36
 446 641 446 641 411 659.5 c 128,-1,37
 376 678 376 678 330 683 c 0,38,39
 270 686 270 686 225 672 c 128,-1,40
 180 658 180 658 149 636 c 128,-1,41
 118 614 118 614 100.5 588 c 128,-1,42
 83 562 83 562 78 540 c 1,43,-1
 194 495 l 1,44,45
 205 488 205 488 208.5 469.5 c 128,-1,46
 212 451 212 451 212 425 c 0,47,48
 212 397 212 397 209.5 360.5 c 128,-1,49
 207 324 207 324 204 286 c 0,50,51
 202 271 202 271 201 256.5 c 128,-1,52
 200 242 200 242 199 227 c 1,53,54
 219 239 219 239 262 237 c 0,55,56
 299 237 299 237 322 223 c 128,-1,57
 345 209 345 209 358 189.5 c 128,-1,58
 371 170 371 170 376 149 c 128,-1,59
 381 128 381 128 381 115 c 0,60,61
 376 71 376 71 346 35 c 0,62,63
 313 -4 313 -4 254 -4 c 0,64,65
 239 -6 239 -6 218.5 1 c 128,-1,66
 198 8 198 8 178.5 23 c 128,-1,67
 159 38 159 38 145.5 61 c 128,-1,68
 132 84 132 84 132 116 c 0,69,70
 132 153 132 153 136 204.5 c 128,-1,71
 140 256 140 256 145 305 c 0,72,73
 145 310 145 310 146 316 c 128,-1,74
 147 322 147 322 147 327 c 0,75,76
 150 357 150 357 151.5 382.5 c 128,-1,77
 153 408 153 408 153 425 c 0,78,79
 153 448 153 448 155 449 c 1,80,81
 140 455 140 455 123.5 461.5 c 128,-1,82
 107 468 107 468 96 472 c 0,83,84
 80 478 80 478 65 483 c 128,-1,85
 50 488 50 488 39 494 c 128,-1,86
 28 500 28 500 21 507 c 128,-1,87
 14 514 14 514 14 524 c 0,88,89
 14 556 14 556 33.5 594 c 128,-1,90
 53 632 53 632 90 664.5 c 128,-1,91
 127 697 127 697 180.5 719 c 128,-1,92
 234 741 234 741 302 741 c 0,93,94
 309 741 309 741 317.5 741 c 128,-1,95
 326 741 326 741 333 740 c 0,96,97
 394 735 394 735 440 715.5 c 128,-1,98
 486 696 486 696 516 654.5 c 128,-1,99
 546 613 546 613 561 546 c 128,-1,100
 576 479 576 479 576 380 c 0,101,102
 575 357 575 357 575 335.5 c 128,-1,103
 575 314 575 314 575 292 c 0,104,105
 575 250 575 250 575.5 213 c 128,-1,106
 576 176 576 176 578 146 c 0,107,108
 578 132 578 132 578.5 122 c 128,-1,109
 579 112 579 112 579 103 c 128,-1,110
 579 94 579 94 579.5 84.5 c 128,-1,111
 580 75 580 75 581 63 c 1,112,113
 646 99 646 99 707.5 133 c 128,-1,114
 769 167 769 167 835 203 c 1,115,-1
 831 704 l 1,116,117
 834 721 834 721 842.5 729.5 c 128,-1,118
 851 738 851 738 860.5 738.5 c 128,-1,119
 870 739 870 739 879.5 732.5 c 128,-1,120
 889 726 889 726 894 713 c 1,121,122
 895 682 895 682 895.5 650 c 128,-1,123
 896 618 896 618 896 586 c 256,124,125
 896 554 896 554 895.5 521.5 c 128,-1,126
 895 489 895 489 894 457 c 0,127,128
 892 425 892 425 892 394 c 128,-1,129
 892 332 l 0,0,1
254 50 m 0,130,131
 283 50 283 50 302.5 69 c 128,-1,132
 322 88 322 88 324 121 c 0,133,134
 324 149 324 149 303.5 167 c 128,-1,135
 283 185 283 185 254 185 c 0,136,137
 219 185 219 185 205 163 c 0,138,139
 189 139 189 139 189 116 c 0,140,141
 189 95 189 95 205 71 c 0,142,143
 220 50 220 50 254 50 c 0,130,131
893 169 m 1,144,145
 891 165 891 165 891 163 c 1,146,147
 888 161 888 161 887 161 c 1,148,-1
 893 169 l 1,144,145
932 174 m 0,149,150
 915 174 915 174 891 163 c 1,151,152
 887 150 887 150 885 138.5 c 128,-1,153
 883 127 883 127 883 115 c 0,154,155
 883 99 883 99 888 82 c 0,156,157
 899 46 899 46 935 45 c 0,158,159
 972 44 972 44 983 59 c 0,160,161
 997 78 997 78 999 98 c 0,162,163
 1001 131 1001 131 981 152.5 c 128,-1,164
 961 174 961 174 932 174 c 0,149,150
EndSplineSet
EndChar
StartChar: uni0E14
Encoding: 3604 3604 24
Width: 817
Flags: W
Fore
407 693 m 0,0,1
 359 693 359 693 313.5 671.5 c 128,-1,2
 268 650 268 650 233 607.5 c 128,-1,3
 198 565 198 565 177 501.5 c 128,-1,4
 156 438 156 438 156 354 c 0,5,6
 156 208 156 208 161.5 131 c 128,-1,7
 167 54 167 54 178 54 c 0,8,9
 204 54 204 54 247 83 c 0,10,11
 294 116 294 116 336 158 c 0,12,13
 377 200 377 200 412 250 c 2,14,-1
 418 258 l 1,15,16
 406 253 406 253 394.5 250.5 c 128,-1,17
 383 248 383 248 372 248 c 0,18,19
 335 248 335 248 311 261 c 128,-1,20
 287 274 287 274 273 292 c 128,-1,21
 259 310 259 310 253 330 c 128,-1,22
 247 350 247 350 247 364 c 256,23,24
 247 378 247 378 253 399.5 c 128,-1,25
 259 421 259 421 273.5 441.5 c 128,-1,26
 288 462 288 462 312 476.5 c 128,-1,27
 336 491 336 491 372 491 c 0,28,29
 387 491 387 491 407 484 c 128,-1,30
 427 477 427 477 446 461 c 128,-1,31
 465 445 465 445 480 419 c 128,-1,32
 495 393 495 393 499 355 c 1,33,-1
 499 356 l 1,34,35
 503 304 503 304 469 241 c 0,36,37
 453 212 453 212 430.5 182.5 c 128,-1,38
 408 153 408 153 385 127 c 0,39,40
 360 101 360 101 331 77 c 128,-1,41
 302 53 302 53 274 35 c 0,42,43
 244 16 244 16 218 5.5 c 128,-1,44
 192 -5 192 -5 168 -6 c 0,45,46
 144 -6 144 -6 130 15 c 128,-1,47
 116 36 116 36 108 81 c 0,48,49
 95 159 95 159 94 358 c 0,50,51
 92 480 92 480 127 557 c 0,52,53
 164 635 164 635 211 678 c 0,54,55
 258 720 258 720 315 737 c 0,56,57
 371 755 371 755 407 755 c 0,58,59
 441 755 441 755 492 744 c 0,60,61
 520 739 520 739 546.5 725.5 c 128,-1,62
 573 712 573 712 598 690 c 256,63,64
 623 668 623 668 644.5 636.5 c 128,-1,65
 666 605 666 605 685 563 c 0,66,67
 721 476 721 476 725 333 c 2,68,-1
 725 19 l 2,69,70
 725 17 725 17 723.5 14 c 128,-1,71
 722 11 722 11 721 10 c 0,72,73
 710 -2 710 -2 697 -2 c 0,74,75
 683 -2 683 -2 678 4 c 0,76,77
 677 5 677 5 675 6 c 128,-1,78
 673 7 673 7 673 8 c 1,79,80
 672 9 672 9 670.5 12 c 128,-1,81
 669 15 669 15 669 17 c 2,82,-1
 669 329 l 2,83,84
 669 433 669 433 646 502.5 c 128,-1,85
 623 572 623 572 586 614 c 128,-1,86
 549 656 549 656 502 673.5 c 128,-1,87
 455 691 455 691 407 693 c 0,0,1
435 374 m 0,88,89
 434 401 434 401 416.5 420.5 c 128,-1,90
 399 440 399 440 372 440 c 0,91,92
 337 440 337 440 320 416 c 0,93,94
 312 404 312 404 307.5 391 c 128,-1,95
 303 378 303 378 303 369 c 0,96,97
 303 348 303 348 319 323 c 0,98,99
 337 299 337 299 372 299 c 0,100,101
 401 299 401 299 416.5 320 c 128,-1,102
 432 341 432 341 435 374 c 0,88,89
EndSplineSet
EndChar
StartChar: uni0E15
Encoding: 3605 3605 25
Width: 817
Flags: W
Fore
464 553 m 2,0,1
 457 535 457 535 439 535 c 0,2,3
 415 535 415 535 412 558 c 1,4,5
 400 584 400 584 385 608.5 c 128,-1,6
 370 633 370 633 354 652 c 0,7,8
 339 672 339 672 319 680.5 c 128,-1,9
 299 689 299 689 272 689 c 0,10,11
 213 689 213 689 184 606 c 0,12,13
 152 516 152 516 152 382 c 0,14,15
 152 231 152 231 158 138 c 0,16,17
 166 55 166 55 179 54 c 0,18,19
 187 53 187 53 199.5 59.5 c 128,-1,20
 212 66 212 66 227 78.5 c 128,-1,21
 242 91 242 91 258.5 107.5 c 128,-1,22
 275 124 275 124 292 143 c 0,23,24
 310 166 310 166 327 191 c 128,-1,25
 344 216 344 216 356 240 c 1,26,27
 328 225 328 225 298 225 c 0,28,29
 262 225 262 225 238 238 c 128,-1,30
 214 251 214 251 200.5 269.5 c 128,-1,31
 187 288 187 288 182 308 c 128,-1,32
 177 328 177 328 177 342 c 0,33,34
 177 355 177 355 183 377 c 128,-1,35
 189 399 189 399 203 420.5 c 128,-1,36
 217 442 217 442 240.5 457.5 c 128,-1,37
 264 473 264 473 300 473 c 0,38,39
 316 473 316 473 338 466.5 c 128,-1,40
 360 460 360 460 380 444 c 128,-1,41
 400 428 400 428 414 401 c 128,-1,42
 428 374 428 374 428 333 c 0,43,44
 428 264 428 264 398.5 202 c 128,-1,45
 369 140 369 140 327.5 93.5 c 128,-1,46
 286 47 286 47 242 20.5 c 128,-1,47
 198 -6 198 -6 168 -6 c 0,48,49
 124 -6 124 -6 106 83 c 0,50,51
 92 162 92 162 92 358 c 0,52,53
 92 484 92 484 109 560.5 c 128,-1,54
 126 637 126 637 152 678 c 128,-1,55
 178 719 178 719 210 732.5 c 128,-1,56
 242 746 242 746 272 746 c 0,57,58
 342 746 342 746 387 700 c 0,59,60
 417 670 417 670 432 637 c 1,61,62
 439 654 439 654 448 670.5 c 128,-1,63
 457 687 457 687 469 701 c 0,64,65
 489 722 489 722 515 734 c 128,-1,66
 541 746 541 746 572 746 c 0,67,68
 599 746 599 746 626.5 734.5 c 128,-1,69
 654 723 654 723 676 686 c 128,-1,70
 698 649 698 649 711.5 579.5 c 128,-1,71
 725 510 725 510 725 394 c 2,72,-1
 725 19 l 2,73,74
 725 17 725 17 723.5 14 c 128,-1,75
 722 11 722 11 721 10 c 0,76,77
 710 -2 710 -2 697 -2 c 0,78,79
 683 -2 683 -2 678 4 c 0,80,81
 677 5 677 5 675 6 c 128,-1,82
 673 7 673 7 673 8 c 1,83,84
 672 9 672 9 670.5 12 c 128,-1,85
 669 15 669 15 669 17 c 2,86,-1
 669 356 l 2,87,88
 669 425 669 425 664 486 c 128,-1,89
 659 547 659 547 648 592.5 c 128,-1,90
 637 638 637 638 618 664.5 c 128,-1,91
 599 691 599 691 572 691 c 0,92,93
 555 691 555 691 539 684 c 128,-1,94
 523 677 523 677 509 661.5 c 128,-1,95
 495 646 495 646 483.5 620 c 128,-1,96
 472 594 472 594 465 556 c 2,97,-1
 464 553 l 2,0,1
369 351 m 0,98,99
 368 380 368 380 347.5 398.5 c 128,-1,100
 327 417 327 417 298 417 c 0,101,102
 264 417 264 417 248 394 c 0,103,104
 232 370 232 370 232 346 c 0,105,106
 232 326 232 326 248 299 c 0,107,108
 256 289 256 289 268 283 c 128,-1,109
 280 277 280 277 298 277 c 0,110,111
 328 277 328 277 347 297.5 c 128,-1,112
 366 318 366 318 369 351 c 0,98,99
EndSplineSet
EndChar
StartChar: uni0E16
Encoding: 3606 3606 26
Width: 776
Flags: W
Fore
404 122 m 2,0,1
 399 76 399 76 369 41 c 0,2,3
 336 2 336 2 278 2 c 0,4,5
 262 0 262 0 241.5 7 c 128,-1,6
 221 14 221 14 202.5 29 c 128,-1,7
 184 44 184 44 171 67.5 c 128,-1,8
 158 91 158 91 158 123 c 0,9,10
 158 153 158 153 160.5 198 c 128,-1,11
 163 243 163 243 167 289 c 0,12,13
 170 334 170 334 173 376.5 c 128,-1,14
 176 419 176 419 176 447 c 0,15,16
 176 469 176 469 177 470 c 1,17,18
 162 478 162 478 139 484.5 c 128,-1,19
 116 491 116 491 95 496 c 0,20,21
 79 500 79 500 64 504.5 c 128,-1,22
 49 509 49 509 37 514.5 c 128,-1,23
 25 520 25 520 18 527 c 128,-1,24
 11 534 11 534 11 544 c 0,25,26
 14 568 14 568 33 604 c 128,-1,27
 52 640 52 640 94 673 c 128,-1,28
 136 706 136 706 204.5 729.5 c 128,-1,29
 273 753 273 753 375 753 c 0,30,31
 383 753 383 753 393 753 c 128,-1,32
 403 753 403 753 411 752 c 0,33,34
 495 746 495 746 549.5 718.5 c 128,-1,35
 604 691 604 691 635.5 639.5 c 128,-1,36
 667 588 667 588 679.5 511 c 128,-1,37
 692 434 692 434 692 329 c 0,38,39
 692 284 692 284 691 234 c 128,-1,40
 690 184 690 184 688 128 c 0,41,42
 688 103 688 103 687 75.5 c 128,-1,43
 686 48 686 48 686 22 c 1,44,45
 672 5 672 5 658 5.5 c 128,-1,46
 644 6 644 6 631 14 c 0,47,48
 625 18 625 18 625 25 c 0,49,50
 630 119 630 119 632.5 196.5 c 128,-1,51
 635 274 635 274 635 338 c 0,52,53
 635 437 635 437 625.5 504.5 c 128,-1,54
 616 572 616 572 590.5 614 c 128,-1,55
 565 656 565 656 521 674.5 c 128,-1,56
 477 693 477 693 408 695 c 0,57,58
 318 697 318 697 257 681.5 c 128,-1,59
 196 666 196 666 158.5 643.5 c 128,-1,60
 121 621 121 621 102.5 597 c 128,-1,61
 84 573 84 573 79 558 c 1,62,-1
 218 517 l 1,63,64
 228 509 228 509 232 491.5 c 128,-1,65
 236 474 236 474 236 449 c 0,66,67
 236 423 236 423 233.5 388 c 128,-1,68
 231 353 231 353 228 315 c 0,69,70
 226 294 226 294 224.5 272.5 c 128,-1,71
 223 251 223 251 222 231 c 1,72,73
 251 245 251 245 286 243 c 0,74,75
 323 243 323 243 346 229 c 128,-1,76
 369 215 369 215 382 195.5 c 128,-1,77
 395 176 395 176 399.5 156 c 128,-1,78
 404 136 404 136 404 123 c 2,79,-1
 404 122 l 2,0,1
348 128 m 0,80,81
 347 156 347 156 326.5 174 c 128,-1,82
 306 192 306 192 278 192 c 0,83,84
 261 192 261 192 248.5 186 c 128,-1,85
 236 180 236 180 229 170 c 0,86,87
 213 146 213 146 213 123 c 0,88,89
 213 101 213 101 229 77 c 0,90,91
 242 56 242 56 278 56 c 0,92,93
 307 56 307 56 326 75.5 c 128,-1,94
 345 95 345 95 348 128 c 0,80,81
EndSplineSet
EndChar
StartChar: uni0E17
Encoding: 3607 3607 27
Width: 831
Flags: W
Fore
276 604 m 0,0,1
 276 653 276 653 249 678 c 128,-1,2
 222 703 222 703 177 705 c 0,3,4
 139 705 139 705 116 679 c 0,5,6
 105 664 105 664 99 647 c 128,-1,7
 93 630 93 630 92 612 c 0,8,9
 91 578 91 578 111 546 c 1,10,11
 122 534 122 534 139.5 527 c 128,-1,12
 157 520 157 520 180 521 c 0,13,14
 217 523 217 523 247 544 c 0,15,16
 276 565 276 565 276 604 c 0,0,1
357 14 m 1,17,18
 337 1 337 1 321 0 c 0,19,20
 312 -1 312 -1 303 0.5 c 128,-1,21
 294 2 294 2 287 8 c 128,-1,22
 280 14 280 14 276 25.5 c 128,-1,23
 272 37 272 37 274 56 c 2,24,-1
 278 488 l 1,25,26
 247 463 247 463 180 461 c 0,27,28
 109 460 109 460 69 507 c 0,29,30
 32 554 32 554 31 610 c 0,31,32
 30 639 30 639 40 664.5 c 128,-1,33
 50 690 50 690 67 713 c 0,34,35
 87 735 87 735 114.5 748 c 128,-1,36
 142 761 142 761 177 761 c 0,37,38
 253 761 253 761 290.5 723 c 128,-1,39
 328 685 328 685 335 616 c 1,40,-1
 335 617 l 1,41,42
 338 593 338 593 339 558.5 c 128,-1,43
 340 524 340 524 340 484 c 0,44,45
 340 430 340 430 339 371 c 128,-1,46
 338 312 338 312 336 256 c 0,47,48
 335 243 335 243 335 230 c 128,-1,49
 335 204 l 1,50,51
 351 294 351 294 374 376 c 128,-1,52
 397 458 397 458 424.5 525.5 c 128,-1,53
 452 593 452 593 484.5 642.5 c 128,-1,54
 517 692 517 692 552 717 c 0,55,56
 569 728 569 728 586.5 733 c 128,-1,57
 604 738 604 738 618 736 c 0,58,59
 645 732 645 732 661 726 c 0,60,61
 688 714 688 714 705 673.5 c 128,-1,62
 722 633 722 633 731.5 574 c 128,-1,63
 741 515 741 515 744.5 443 c 128,-1,64
 748 371 748 371 748 295 c 0,65,66
 748 241 748 241 747.5 188 c 128,-1,67
 747 135 747 135 745 86 c 0,68,69
 744 69 744 69 744 53 c 128,-1,70
 744 37 744 37 744 20 c 0,71,72
 744 16 744 16 739 11 c 0,73,74
 728 1 728 1 719 0 c 1,75,76
 708 -3 708 -3 698 2 c 128,-1,77
 688 7 688 7 684 26 c 1,78,79
 682 58 682 58 682 91.5 c 128,-1,80
 682 125 682 125 682 158 c 2,81,-1
 682 326 l 2,82,83
 682 383 682 383 680.5 435 c 128,-1,84
 679 487 679 487 675 530.5 c 128,-1,85
 671 574 671 574 662.5 606.5 c 128,-1,86
 654 639 654 639 641 656 c 0,87,88
 623 679 623 679 594 670 c 1,89,-1
 598 671 l 1,90,91
 555 639 555 639 520.5 577 c 128,-1,92
 486 515 486 515 457.5 430.5 c 128,-1,93
 429 346 429 346 406 241.5 c 128,-1,94
 383 137 383 137 363 22 c 1,95,-1
 357 14 l 1,17,18
EndSplineSet
EndChar
StartChar: uni0E18
Encoding: 3608 3608 28
Width: 672
Flags: W
Fore
475 258 m 0,0,1
 475 325 475 325 471.5 361 c 128,-1,2
 468 397 468 397 459.5 413.5 c 128,-1,3
 451 430 451 430 436.5 432.5 c 128,-1,4
 422 435 422 435 401 435 c 2,5,-1
 390 435 l 1,6,-1
 176 442 l 2,7,8
 144 443 144 443 123 445 c 128,-1,9
 102 447 102 447 89 450 c 0,10,11
 56 456 56 456 56 504 c 0,12,13
 56 537 56 537 72.5 577.5 c 128,-1,14
 89 618 89 618 120.5 653.5 c 128,-1,15
 152 689 152 689 198 713.5 c 128,-1,16
 244 738 244 738 302 738 c 0,17,18
 379 738 379 738 424.5 714 c 128,-1,19
 470 690 470 690 495 659 c 1,20,-1
 495 660 l 1,21,22
 504 651 504 651 511.5 639.5 c 128,-1,23
 519 628 519 628 526 618 c 0,24,25
 534 607 534 607 539.5 599 c 128,-1,26
 545 591 545 591 549 591 c 0,27,28
 560 591 560 591 562 597 c 128,-1,29
 564 603 564 603 566 612 c 1,30,-1
 566 611 l 1,31,32
 566 612 566 612 566.5 612.5 c 128,-1,33
 567 613 567 613 567 615 c 0,34,35
 568 649 568 649 596 649 c 0,36,37
 625 649 625 649 626 621 c 0,38,39
 627 605 627 605 622 589.5 c 128,-1,40
 617 574 617 574 607.5 562 c 128,-1,41
 598 550 598 550 583.5 542.5 c 128,-1,42
 569 535 569 535 551 535 c 0,43,44
 512 535 512 535 493 561 c 0,45,46
 485 572 485 572 475.5 583.5 c 128,-1,47
 466 595 466 595 455 609 c 0,48,49
 445 622 445 622 432 633.5 c 128,-1,50
 419 645 419 645 401 655 c 0,51,52
 368 677 368 677 302 679 c 0,53,54
 259 679 259 679 224.5 660 c 128,-1,55
 190 641 190 641 165.5 614 c 128,-1,56
 141 587 141 587 127.5 558 c 128,-1,57
 114 529 114 529 114 510 c 0,58,59
 114 502 114 502 136.5 500.5 c 128,-1,60
 159 499 159 499 207 499 c 2,61,-1
 256 499 l 2,62,63
 290 499 290 499 331.5 499 c 128,-1,64
 373 499 373 499 424 498 c 0,65,66
 457 497 457 497 479 492.5 c 128,-1,67
 501 488 501 488 513.5 466 c 128,-1,68
 526 444 526 444 531 396 c 128,-1,69
 536 348 536 348 536 260 c 2,70,-1
 536 72 l 2,71,72
 538 53 538 53 531 40 c 128,-1,73
 524 27 524 27 514 20 c 0,74,75
 504 12 504 12 488 12 c 2,76,-1
 348 8 l 2,77,78
 329 7 329 7 306.5 7 c 128,-1,79
 284 7 284 7 266 7 c 2,80,-1
 232 7 l 2,81,82
 170 9 170 9 139 16 c 0,83,84
 129 18 129 18 129 28 c 2,85,-1
 131 339 l 1,86,87
 139 372 139 372 163 372 c 0,88,89
 173 372 173 372 182.5 364 c 128,-1,90
 192 356 192 356 194 340 c 2,91,-1
 193 66 l 1,92,93
 216 65 216 65 244.5 64.5 c 128,-1,94
 273 64 273 64 293 64 c 0,95,96
 358 64 358 64 403 67 c 0,97,98
 426 68 426 68 441 69 c 128,-1,99
 456 70 456 70 474 72 c 1,100,101
 475 79 475 79 475.5 86 c 128,-1,102
 476 93 476 93 476 101.5 c 128,-1,103
 476 110 476 110 476 121 c 128,-1,104
 476 132 476 132 476 148 c 0,105,106
 476 168 476 168 475.5 194.5 c 128,-1,107
 475 221 475 221 475 258 c 0,0,1
EndSplineSet
EndChar
StartChar: uni0E19
Encoding: 3609 3609 29
Width: 928
Flags: W
Fore
279 48 m 2,0,1
 275 108 275 108 273 163 c 128,-1,2
 271 218 271 218 272 269 c 0,3,4
 272 295 272 295 272.5 316.5 c 128,-1,5
 273 338 273 338 273 359.5 c 128,-1,6
 273 381 273 381 273.5 405 c 128,-1,7
 274 429 274 429 275 461 c 1,8,9
 258 450 258 450 233.5 443 c 128,-1,10
 209 436 209 436 179 435 c 0,11,12
 106 434 106 434 68 481 c 0,13,14
 31 528 31 528 30 583 c 0,15,16
 29 612 29 612 38.5 638 c 128,-1,17
 48 664 48 664 65 687 c 0,18,19
 84 709 84 709 112 721.5 c 128,-1,20
 140 734 140 734 175 734 c 0,21,22
 252 734 252 734 289.5 696 c 128,-1,23
 327 658 327 658 332 591 c 0,24,25
 333 576 333 576 333.5 552.5 c 128,-1,26
 334 529 334 529 334 501 c 256,27,28
 334 473 334 473 333.5 441.5 c 128,-1,29
 333 410 333 410 333 377 c 0,30,31
 332 341 332 341 332 304.5 c 128,-1,32
 332 268 332 268 332 233 c 256,33,34
 332 198 332 198 332 168 c 128,-1,35
 332 138 332 138 331.5 115.5 c 128,-1,36
 331 93 331 93 330.5 79.5 c 128,-1,37
 330 66 330 66 329 65 c 1,38,39
 386 96 386 96 450 149 c 0,40,41
 512 199 512 199 599 247 c 1,42,43
 601 379 601 379 601.5 479.5 c 128,-1,44
 602 580 602 580 602 664 c 2,45,-1
 602 719 l 1,46,47
 617 759 617 759 645 740 c 0,48,49
 668 725 668 725 664 701 c 1,50,51
 664 674 664 674 663 643.5 c 128,-1,52
 662 613 662 613 661 578 c 0,53,54
 658 491 658 491 658 377 c 0,55,56
 658 346 658 346 657.5 321 c 128,-1,57
 657 296 657 296 658 261 c 1,58,59
 678 266 678 266 694.5 267.5 c 128,-1,60
 711 269 711 269 725 269 c 0,61,62
 772 269 772 269 800 252.5 c 128,-1,63
 828 236 828 236 842.5 213.5 c 128,-1,64
 857 191 857 191 861 168.5 c 128,-1,65
 865 146 865 146 865 135 c 0,66,67
 865 118 865 118 859.5 93.5 c 128,-1,68
 854 69 854 69 838.5 46 c 128,-1,69
 823 23 823 23 796.5 6.5 c 128,-1,70
 770 -10 770 -10 728 -10 c 0,71,72
 662 -10 662 -10 631 43 c 128,-1,73
 600 96 600 96 599 184 c 1,74,75
 552 155 552 155 519 130 c 128,-1,76
 486 105 486 105 457 83 c 0,77,78
 431 64 431 64 407 46 c 128,-1,79
 383 28 383 28 353 10 c 0,80,81
 344 5 344 5 335.5 4 c 128,-1,82
 327 3 327 3 321 4 c 0,83,84
 307 7 307 7 295.5 15 c 128,-1,85
 284 23 284 23 279 46 c 1,86,-1
 279 48 l 2,0,1
275 578 m 0,87,88
 275 626 275 626 248 652.5 c 128,-1,89
 221 679 221 679 176 681 c 0,90,91
 136 681 136 681 113 653 c 0,92,93
 100 638 100 638 94 621 c 128,-1,94
 88 604 88 604 86 587 c 256,95,96
 84 570 84 570 88.5 553 c 128,-1,97
 93 536 93 536 104 522 c 0,98,99
 126 492 126 492 179 492 c 0,100,101
 215 492 215 492 246 517 c 0,102,103
 275 541 275 541 275 578 c 0,87,88
657 206 m 1,104,105
 657 204 657 204 656.5 202 c 128,-1,106
 656 200 656 200 656 198 c 1,107,-1
 650 195 l 1,108,-1
 657 206 l 1,104,105
725 216 m 0,109,110
 696 216 696 216 656 198 c 1,111,112
 654 120 654 120 675 82.5 c 128,-1,113
 696 45 696 45 728 45 c 0,114,115
 769 45 769 45 790 74 c 0,116,117
 812 105 812 105 812 135 c 0,118,119
 812 146 812 146 807 160 c 128,-1,120
 802 174 802 174 791.5 186.5 c 128,-1,121
 781 199 781 199 764.5 207.5 c 128,-1,122
 748 216 748 216 725 216 c 0,109,110
EndSplineSet
EndChar
StartChar: uni0E1A
Encoding: 3610 3610 30
Width: 872
Flags: W
Fore
392 408 m 0,0,1
 392 268 392 268 386 63 c 1,2,3
 397 61 397 61 412.5 61 c 128,-1,4
 428 61 428 61 449 61 c 0,5,6
 510 61 510 61 551.5 60 c 128,-1,7
 593 59 593 59 622 58.5 c 128,-1,8
 651 58 651 58 671 59 c 128,-1,9
 691 60 691 60 710 63 c 0,10,11
 722 65 722 65 720.5 79 c 128,-1,12
 719 93 719 93 719 116 c 0,13,14
 719 165 719 165 716.5 239.5 c 128,-1,15
 714 314 714 314 712 396 c 0,16,17
 709 481 709 481 706.5 560.5 c 128,-1,18
 704 640 704 640 704 698 c 0,19,20
 702 717 702 717 711.5 729 c 128,-1,21
 721 741 721 741 733 741 c 256,22,23
 745 741 745 741 755 730.5 c 128,-1,24
 765 720 765 720 765 697 c 2,25,-1
 769 607 l 1,26,-1
 769 608 l 1,27,-1
 772 555 l 1,28,-1
 779 368 l 2,29,30
 783 283 783 283 783.5 201 c 128,-1,31
 784 119 784 119 783 35 c 0,32,33
 784 8 784 8 752 0 c 1,34,35
 642 -1 642 -1 571.5 -1.5 c 128,-1,36
 501 -2 501 -2 454.5 -2.5 c 128,-1,37
 408 -3 408 -3 380 -3 c 128,-1,38
 352 -3 352 -3 328 -3 c 0,39,40
 326 -3 326 -3 325 3.5 c 128,-1,41
 324 10 324 10 324 30.5 c 128,-1,42
 324 51 324 51 325 90 c 128,-1,43
 326 129 326 129 327 195 c 0,44,45
 328 247 328 247 329 286 c 128,-1,46
 330 325 330 325 330.5 356.5 c 128,-1,47
 331 388 331 388 331.5 416.5 c 128,-1,48
 332 445 332 445 332 476 c 1,49,50
 316 462 316 462 292.5 456.5 c 128,-1,51
 269 451 269 451 236 450 c 0,52,53
 201 449 201 449 173.5 460.5 c 128,-1,54
 146 472 146 472 126.5 492 c 128,-1,55
 107 512 107 512 96.5 539.5 c 128,-1,56
 86 567 86 567 85 598 c 0,57,58
 84 628 84 628 95 655 c 128,-1,59
 106 682 106 682 125.5 703 c 128,-1,60
 145 724 145 724 172 736 c 128,-1,61
 199 748 199 748 231 748 c 0,62,63
 379 748 379 748 388 605 c 0,64,65
 390 579 390 579 391 528.5 c 128,-1,66
 392 478 392 478 392 408 c 0,0,1
330 592 m 0,67,68
 330 640 330 640 304.5 668 c 128,-1,69
 279 696 279 696 233 695 c 0,70,71
 191 694 191 694 168.5 666.5 c 128,-1,72
 146 639 146 639 141 601 c 0,73,74
 137 557 137 557 162.5 532 c 128,-1,75
 188 507 188 507 236 507 c 0,76,77
 253 507 253 507 269.5 513 c 128,-1,78
 286 519 286 519 299.5 530.5 c 128,-1,79
 313 542 313 542 321.5 557.5 c 128,-1,80
 330 573 330 573 330 592 c 0,67,68
EndSplineSet
EndChar
StartChar: uni0E1B
Encoding: 3611 3611 31
Width: 811
Flags: W
Fore
335 408 m 0,0,1
 335 268 335 268 329 63 c 1,2,3
 351 62 351 62 397 61.5 c 128,-1,4
 443 61 443 61 514 61 c 0,5,6
 547 61 547 61 582.5 61.5 c 128,-1,7
 618 62 618 62 663 64 c 1,8,-1
 663 111 l 2,9,10
 663 172 663 172 660 267 c 2,11,-1
 653 478 l 2,12,13
 649 596 649 596 645.5 705.5 c 128,-1,14
 642 815 642 815 638 909 c 0,15,16
 636 957 636 957 635.5 994 c 128,-1,17
 635 1031 635 1031 635 1056 c 1,18,19
 641 1081 641 1081 670 1079 c 0,20,21
 700 1077 700 1077 700 1051 c 0,22,23
 700 1024 700 1024 701.5 970.5 c 128,-1,24
 703 917 703 917 705 848 c 2,25,-1
 708 758 l 1,26,-1
 714 546 l 2,27,28
 716 439 716 439 718 362 c 128,-1,29
 720 285 720 285 721.5 231 c 128,-1,30
 723 177 723 177 724 142.5 c 128,-1,31
 725 108 725 108 725.5 87.5 c 128,-1,32
 726 67 726 67 726 56 c 128,-1,33
 726 45 726 45 726 38 c 0,34,35
 727 23 727 23 720.5 13.5 c 128,-1,36
 714 4 714 4 696 0 c 0,37,38
 693 -1 693 -1 670.5 -0.5 c 128,-1,39
 648 0 648 0 606 1 c 256,40,41
 564 2 564 2 535.5 2.5 c 128,-1,42
 507 3 507 3 491 3 c 0,43,44
 476 3 476 3 459.5 2.5 c 128,-1,45
 443 2 443 2 426 1 c 0,46,47
 372 1 372 1 338 1 c 128,-1,48
 304 1 304 1 278 6 c 1,49,50
 267 5 267 5 271 195 c 0,51,52
 272 247 272 247 273 286 c 128,-1,53
 274 325 274 325 274.5 356.5 c 128,-1,54
 275 388 275 388 275.5 416.5 c 128,-1,55
 276 445 276 445 276 476 c 1,56,57
 259 462 259 462 235 456.5 c 128,-1,58
 211 451 211 451 178 450 c 0,59,60
 144 449 144 449 116 460.5 c 128,-1,61
 88 472 88 472 68.5 492 c 128,-1,62
 49 512 49 512 38.5 539 c 128,-1,63
 28 566 28 566 29 598 c 0,64,65
 30 631 30 631 41 658.5 c 128,-1,66
 52 686 52 686 70.5 706 c 128,-1,67
 89 726 89 726 115.5 737 c 128,-1,68
 142 748 142 748 174 748 c 0,69,70
 325 748 325 748 331 605 c 0,71,72
 333 579 333 579 334 528.5 c 128,-1,73
 335 478 335 478 335 408 c 0,0,1
274 592 m 0,74,75
 274 640 274 640 247.5 667.5 c 128,-1,76
 221 695 221 695 176 695 c 0,77,78
 155 695 155 695 137.5 686.5 c 128,-1,79
 120 678 120 678 108 664.5 c 128,-1,80
 96 651 96 651 90 634 c 128,-1,81
 84 617 84 617 85 601 c 0,82,83
 86 558 86 558 105.5 532.5 c 128,-1,84
 125 507 125 507 178 507 c 0,85,86
 195 507 195 507 212.5 513 c 128,-1,87
 230 519 230 519 243.5 530.5 c 128,-1,88
 257 542 257 542 265.5 557.5 c 128,-1,89
 274 573 274 573 274 592 c 0,74,75
EndSplineSet
EndChar
StartChar: uni0E1C
Encoding: 3612 3612 32
Width: 717
Flags: W
Fore
87 295 m 0,0,1
 87 347 87 347 86.5 410.5 c 128,-1,2
 86 474 86 474 85 555 c 0,3,4
 78 651 78 651 115 701 c 128,-1,5
 152 751 152 751 227 757 c 0,6,7
 258 759 258 759 286.5 750 c 128,-1,8
 315 741 315 741 336 723 c 128,-1,9
 357 705 357 705 370 678.5 c 128,-1,10
 383 652 383 652 385 621 c 0,11,12
 388 551 388 551 351.5 505.5 c 128,-1,13
 315 460 315 460 251 455 c 0,14,15
 238 454 238 454 223.5 456 c 128,-1,16
 209 458 209 458 195 462 c 128,-1,17
 181 466 181 466 169 472.5 c 128,-1,18
 157 479 157 479 148 487 c 1,19,-1
 150 396 l 2,20,21
 151 357 151 357 151 318.5 c 128,-1,22
 151 280 151 280 151 242 c 0,23,24
 151 185 151 185 151.5 146.5 c 128,-1,25
 152 108 152 108 150 84 c 1,26,27
 195 129 195 129 237 177 c 0,28,29
 260 207 260 207 283 250.5 c 128,-1,30
 306 294 306 294 326 345 c 1,31,32
 330 352 330 352 336 361 c 128,-1,33
 342 370 342 370 354 371 c 0,34,35
 367 372 367 372 376 366.5 c 128,-1,36
 385 361 385 361 389 341 c 1,37,-1
 388 342 l 1,38,39
 403 299 403 299 426.5 251.5 c 128,-1,40
 450 204 450 204 476.5 164.5 c 128,-1,41
 503 125 503 125 528.5 99 c 128,-1,42
 554 73 554 73 574 73 c 1,43,44
 572 73 572 73 571.5 98 c 128,-1,45
 571 123 571 123 571 169 c 0,46,47
 571 195 571 195 570.5 225.5 c 128,-1,48
 570 256 570 256 570 291 c 256,49,50
 570 326 570 326 569.5 365 c 128,-1,51
 569 404 569 404 569 447 c 0,52,53
 569 510 569 510 570 578.5 c 128,-1,54
 571 647 571 647 573 719 c 1,55,56
 577 735 577 735 585 739 c 128,-1,57
 593 743 593 743 608 743 c 0,58,59
 620 743 620 743 627 736 c 128,-1,60
 634 729 634 729 636 711 c 0,61,62
 635 651 635 651 635 598 c 128,-1,63
 635 545 635 545 635 496 c 0,64,65
 635 306 635 306 635 196 c 128,-1,66
 635 86 635 86 629 47 c 2,67,68
 629 37 629 37 623.5 28.5 c 128,-1,69
 618 20 618 20 610 14 c 128,-1,70
 602 8 602 8 593 5 c 128,-1,71
 584 2 584 2 578 2 c 0,72,73
 533 4 533 4 463 75 c 0,74,75
 431 108 431 108 406 148.5 c 128,-1,76
 381 189 381 189 357 249 c 1,77,78
 340 210 340 210 311 166.5 c 128,-1,79
 282 123 282 123 249.5 86.5 c 128,-1,80
 217 50 217 50 185.5 26 c 128,-1,81
 154 2 154 2 132 2 c 0,82,83
 115 2 115 2 106 13 c 128,-1,84
 97 24 97 24 93 55.5 c 128,-1,85
 89 87 89 87 88 144.5 c 128,-1,86
 87 202 87 202 87 295 c 0,0,1
151 597 m 0,87,88
 152 578 152 578 160.5 561.5 c 128,-1,89
 169 545 169 545 182.5 533 c 128,-1,90
 196 521 196 521 212.5 515 c 128,-1,91
 229 509 229 509 247 511 c 0,92,93
 282 514 282 514 305 541.5 c 128,-1,94
 328 569 328 569 325 614 c 0,95,96
 321 659 321 659 293.5 679.5 c 128,-1,97
 266 700 266 700 231 697 c 0,98,99
 186 693 186 693 166 664 c 128,-1,100
 146 635 146 635 151 597 c 0,87,88
EndSplineSet
EndChar
StartChar: uni0E1D
Encoding: 3613 3613 33
Width: 723
Flags: W
Fore
87 331 m 0,0,1
 87 379 87 379 86.5 433.5 c 128,-1,2
 86 488 86 488 85 555 c 0,3,4
 81 643 81 643 116.5 697 c 128,-1,5
 152 751 152 751 227 757 c 0,6,7
 258 759 258 759 286 751 c 128,-1,8
 314 743 314 743 335 725.5 c 128,-1,9
 356 708 356 708 369.5 681.5 c 128,-1,10
 383 655 383 655 385 621 c 0,11,12
 387 586 387 586 378.5 556.5 c 128,-1,13
 370 527 370 527 352 505.5 c 128,-1,14
 334 484 334 484 308.5 470.5 c 128,-1,15
 283 457 283 457 251 455 c 0,16,17
 225 453 225 453 196 461.5 c 128,-1,18
 167 470 167 470 149 486 c 1,19,20
 151 438 151 438 151.5 376.5 c 128,-1,21
 152 315 152 315 153 254 c 0,22,23
 153 185 153 185 152.5 137.5 c 128,-1,24
 152 90 152 90 152 63 c 1,25,26
 199 99 199 99 241.5 169.5 c 128,-1,27
 284 240 284 240 324 345 c 0,28,29
 327 354 327 354 334.5 359.5 c 128,-1,30
 342 365 342 365 350.5 365 c 128,-1,31
 359 365 359 365 367.5 359.5 c 128,-1,32
 376 354 376 354 381 342 c 0,33,34
 392 316 392 316 409 285.5 c 128,-1,35
 426 255 426 255 445.5 224.5 c 128,-1,36
 465 194 465 194 484.5 165 c 128,-1,37
 504 136 504 136 520 113.5 c 128,-1,38
 536 91 536 91 546.5 77.5 c 128,-1,39
 557 64 557 64 558 64 c 1,40,41
 562 73 562 73 564.5 125.5 c 128,-1,42
 567 178 567 178 569 259 c 128,-1,43
 571 340 571 340 572 442 c 128,-1,44
 573 544 573 544 574 652 c 128,-1,45
 575 760 575 760 575.5 866.5 c 128,-1,46
 576 973 576 973 577 1063 c 0,47,48
 577 1084 577 1084 587 1091 c 128,-1,49
 597 1098 597 1098 614 1096 c 1,50,-1
 613 1097 l 1,51,52
 630 1096 630 1096 635 1087 c 128,-1,53
 640 1078 640 1078 641 1058 c 2,54,-1
 640 943 l 2,55,56
 639 895 639 895 640 841.5 c 128,-1,57
 641 788 641 788 641 728 c 0,58,59
 641 631 641 631 640.5 529 c 128,-1,60
 640 427 640 427 638 334.5 c 128,-1,61
 636 242 636 242 632.5 166.5 c 128,-1,62
 629 91 629 91 623 48 c 0,63,64
 621 29 621 29 607.5 16 c 128,-1,65
 594 3 594 3 576 2 c 0,66,67
 562 1 562 1 547 8.5 c 128,-1,68
 532 16 532 16 508.5 42 c 128,-1,69
 485 68 485 68 449 119 c 128,-1,70
 413 170 413 170 358 256 c 1,71,72
 337 211 337 211 309 165 c 128,-1,73
 281 119 281 119 251 82.5 c 128,-1,74
 221 46 221 46 190.5 23 c 128,-1,75
 160 0 160 0 134 0 c 0,76,77
 117 0 117 0 107 11.5 c 128,-1,78
 97 23 97 23 92 57.5 c 128,-1,79
 87 92 87 92 86 157.5 c 128,-1,80
 85 223 85 223 87 331 c 0,0,1
151 597 m 0,81,82
 152 578 152 578 160.5 561.5 c 128,-1,83
 169 545 169 545 182.5 533 c 128,-1,84
 196 521 196 521 212.5 515 c 128,-1,85
 229 509 229 509 247 511 c 0,86,87
 282 514 282 514 305 541.5 c 128,-1,88
 328 569 328 569 325 614 c 256,89,90
 322 659 322 659 294 679.5 c 128,-1,91
 266 700 266 700 231 697 c 0,92,93
 186 693 186 693 166 664 c 128,-1,94
 146 635 146 635 151 597 c 0,81,82
EndSplineSet
EndChar
StartChar: uni0E1E
Encoding: 3614 3614 34
Width: 852
Flags: W
Fore
682 4 m 2,0,1
 653 4 653 4 634 29 c 128,-1,2
 615 54 615 54 592.5 97.5 c 128,-1,3
 570 141 570 141 548.5 200.5 c 128,-1,4
 527 260 527 260 508 330 c 1,5,6
 491 259 491 259 466.5 199 c 128,-1,7
 442 139 442 139 416 95.5 c 128,-1,8
 390 52 390 52 364.5 28 c 128,-1,9
 339 4 339 4 321 4 c 0,10,11
 304 4 304 4 295 13 c 128,-1,12
 286 22 286 22 282 44 c 128,-1,13
 278 66 278 66 277 103.5 c 128,-1,14
 276 141 276 141 276 198 c 0,15,16
 276 227 276 227 276 254.5 c 128,-1,17
 276 282 276 282 276 314.5 c 128,-1,18
 276 347 276 347 275 388 c 128,-1,19
 274 429 274 429 272 486 c 1,20,21
 255 465 255 465 229 457.5 c 128,-1,22
 203 450 203 450 171 450 c 0,23,24
 108 450 108 450 65 492 c 0,25,26
 23 535 23 535 23 600 c 0,27,28
 23 632 23 632 33.5 659.5 c 128,-1,29
 44 687 44 687 63 707 c 128,-1,30
 82 727 82 727 108.5 738.5 c 128,-1,31
 135 750 135 750 167 750 c 0,32,33
 251 750 251 750 290 706 c 1,34,-1
 290 707 l 1,35,36
 326 666 326 666 334 565 c 0,37,38
 336 535 336 535 337 498.5 c 128,-1,39
 338 462 338 462 338 419 c 0,40,41
 339 377 339 377 339 336.5 c 128,-1,42
 339 296 339 296 339 257 c 0,43,44
 339 219 339 219 339 186.5 c 128,-1,45
 339 154 339 154 340 127 c 2,46,-1
 340 98 l 1,47,-1
 357 126 l 2,48,49
 369 146 369 146 380.5 171.5 c 128,-1,50
 392 197 392 197 406 228 c 0,51,52
 418 258 418 258 429 290.5 c 128,-1,53
 440 323 440 323 448.5 354.5 c 128,-1,54
 457 386 457 386 463 415.5 c 128,-1,55
 469 445 469 445 472 469 c 0,56,57
 475 481 475 481 484.5 487 c 128,-1,58
 494 493 494 493 504.5 493 c 128,-1,59
 515 493 515 493 524 487 c 128,-1,60
 533 481 533 481 536 469 c 0,61,62
 541 445 541 445 548.5 416 c 128,-1,63
 556 387 556 387 565 352 c 0,64,65
 574 318 574 318 583.5 284.5 c 128,-1,66
 593 251 593 251 604 219 c 0,67,68
 613 192 613 192 624.5 164.5 c 128,-1,69
 636 137 636 137 649 113 c 0,70,71
 668 75 668 75 678 75 c 0,72,73
 686 75 686 75 691.5 127 c 128,-1,74
 697 179 697 179 700.5 268 c 128,-1,75
 704 357 704 357 705.5 474 c 128,-1,76
 707 591 707 591 707 722 c 1,77,78
 710 730 710 730 718.5 734.5 c 128,-1,79
 727 739 727 739 736.5 739 c 128,-1,80
 746 739 746 739 755 735.5 c 128,-1,81
 764 732 764 732 769 724 c 1,82,83
 768 547 768 547 764.5 413 c 128,-1,84
 761 279 761 279 752 188.5 c 128,-1,85
 743 98 743 98 731.5 52 c 128,-1,86
 720 6 720 6 683 4 c 2,87,-1
 682 4 l 2,0,1
261 599 m 0,88,89
 260 635 260 635 239.5 663 c 128,-1,90
 219 691 219 691 173 691 c 0,91,92
 138 691 138 691 112 667.5 c 128,-1,93
 86 644 86 644 86 600 c 0,94,95
 86 553 86 553 113 529 c 128,-1,96
 140 505 140 505 175 505 c 0,97,98
 193 505 193 505 208 512.5 c 128,-1,99
 223 520 223 520 234.5 532.5 c 128,-1,100
 246 545 246 545 253 562 c 128,-1,101
 260 579 260 579 261 599 c 0,88,89
EndSplineSet
EndChar
StartChar: uni0E1F
Encoding: 3615 3615 35
Width: 848
Flags: W
Fore
695 6 m 2,0,1
 668 3 668 3 640.5 30.5 c 128,-1,2
 613 58 613 58 587.5 104.5 c 128,-1,3
 562 151 562 151 539 213.5 c 128,-1,4
 516 276 516 276 496 345 c 1,5,6
 481 274 481 274 459.5 212.5 c 128,-1,7
 438 151 438 151 415.5 105 c 128,-1,8
 393 59 393 59 370 32.5 c 128,-1,9
 347 6 347 6 329 6 c 0,10,11
 309 6 309 6 298 22.5 c 128,-1,12
 287 39 287 39 281.5 77.5 c 128,-1,13
 276 116 276 116 275 178 c 128,-1,14
 274 240 274 240 274 331 c 0,15,16
 274 353 274 353 274 370 c 128,-1,17
 274 387 274 387 274 404.5 c 128,-1,18
 274 422 274 422 273.5 442.5 c 128,-1,19
 273 463 273 463 273 493 c 1,20,21
 255 473 255 473 228.5 463 c 128,-1,22
 202 453 202 453 173 453 c 0,23,24
 112 453 112 453 66 497 c 0,25,26
 22 543 22 543 22 606 c 0,27,28
 22 637 22 637 32.5 665 c 128,-1,29
 43 693 43 693 62 713 c 128,-1,30
 81 733 81 733 108.5 745 c 128,-1,31
 136 757 136 757 169 757 c 0,32,33
 211 757 211 757 241.5 747 c 128,-1,34
 272 737 272 737 291.5 715 c 128,-1,35
 311 693 311 693 321 657.5 c 128,-1,36
 331 622 331 622 334 570 c 0,37,38
 335 539 335 539 335.5 502.5 c 128,-1,39
 336 466 336 466 336 423 c 0,40,41
 336 381 336 381 336.5 340.5 c 128,-1,42
 337 300 337 300 337 261 c 0,43,44
 338 226 338 226 339.5 192 c 128,-1,45
 341 158 341 158 343 132 c 0,46,47
 345 113 345 113 345 101.5 c 128,-1,48
 345 90 345 90 344 90 c 1,49,50
 346 90 346 90 362 127 c 0,51,52
 373 151 373 151 383 178 c 128,-1,53
 393 205 393 205 403 234 c 256,54,55
 413 263 413 263 422 295.5 c 128,-1,56
 431 328 431 328 440 366 c 0,57,58
 449 401 449 401 454 430 c 128,-1,59
 459 459 459 459 461 483 c 0,60,61
 464 499 464 499 473.5 507 c 128,-1,62
 483 515 483 515 494 515 c 128,-1,63
 505 515 505 515 514.5 507.5 c 128,-1,64
 524 500 524 500 527 486 c 0,65,66
 530 463 530 463 537 433.5 c 128,-1,67
 544 404 544 404 554 368 c 1,68,-1
 553 369 l 1,69,70
 564 334 564 334 574.5 300 c 128,-1,71
 585 266 585 266 598 233 c 0,72,73
 609 203 609 203 621 174.5 c 128,-1,74
 633 146 633 146 647 121 c 1,75,-1
 646 121 l 1,76,77
 668 81 668 81 680 81 c 0,78,79
 682 81 682 81 684 110 c 128,-1,80
 686 139 686 139 688 189.5 c 128,-1,81
 690 240 690 240 691.5 307 c 128,-1,82
 693 374 693 374 695 450 c 0,83,84
 696 482 696 482 696 517 c 128,-1,85
 696 587 l 0,86,87
 696 654 696 654 695 721.5 c 128,-1,88
 694 789 694 789 692.5 853 c 128,-1,89
 691 917 691 917 688 975.5 c 128,-1,90
 685 1034 685 1034 682 1084 c 0,91,92
 682 1120 682 1120 713 1115 c 0,93,94
 739 1110 739 1110 742 1088 c 0,95,96
 748 1039 748 1039 752 978.5 c 128,-1,97
 756 918 756 918 758.5 850.5 c 128,-1,98
 761 783 761 783 762.5 710.5 c 128,-1,99
 764 638 764 638 764 565 c 0,100,101
 764 501 l 128,-1,102
 764 469 764 469 763 437 c 0,103,104
 762 350 762 350 757 273 c 128,-1,105
 752 196 752 196 747 137.5 c 128,-1,106
 742 79 742 79 733.5 43 c 128,-1,107
 725 7 725 7 696 6 c 2,108,-1
 695 6 l 2,0,1
258 605 m 0,109,110
 258 623 258 623 252.5 639.5 c 128,-1,111
 247 656 247 656 236.5 668.5 c 128,-1,112
 226 681 226 681 210 689 c 128,-1,113
 194 697 194 697 171 697 c 0,114,115
 134 697 134 697 108 673.5 c 128,-1,116
 82 650 82 650 82 606 c 0,117,118
 82 583 82 583 89.5 565 c 128,-1,119
 97 547 97 547 110 535 c 128,-1,120
 123 523 123 523 139 517 c 128,-1,121
 155 511 155 511 173 511 c 0,122,123
 208 511 208 511 232 537 c 128,-1,124
 256 563 256 563 258 605 c 0,109,110
EndSplineSet
EndChar
StartChar: uni0E20
Encoding: 3616 3616 36
Width: 784
Flags: W
Fore
211 219 m 2,0,1
 212 218 l 1,2,3
 215 275 215 275 215 320 c 0,4,5
 215 340 215 340 215 359 c 128,-1,6
 215 378 215 378 213 395 c 0,7,8
 209 469 209 469 205 471 c 1,9,-1
 206 471 l 1,10,11
 191 479 191 479 169.5 485.5 c 128,-1,12
 148 492 148 492 126 497 c 0,13,14
 95 505 95 505 72 514 c 128,-1,15
 49 523 49 523 49 543 c 0,16,17
 51 568 51 568 70.5 606 c 128,-1,18
 90 644 90 644 134.5 679 c 128,-1,19
 179 714 179 714 252.5 738 c 128,-1,20
 326 762 326 762 437 759 c 0,21,22
 496 757 496 757 539.5 744 c 128,-1,23
 583 731 583 731 611 710 c 0,24,25
 667 665 667 665 685 571 c 0,26,27
 692 537 692 537 695 494.5 c 128,-1,28
 698 452 698 452 698 403 c 0,29,30
 698 375 l 128,-1,31
 698 361 698 361 697 346 c 1,32,-1
 697 347 l 1,33,34
 695 279 695 279 693.5 197 c 128,-1,35
 692 115 692 115 692 21 c 1,36,37
 679 4 679 4 666 4 c 256,38,39
 653 4 653 4 643 10 c 1,40,-1
 646 9 l 1,41,-1
 637 13 l 2,42,43
 629 17 629 17 629 24 c 2,44,-1
 633 209 l 2,45,46
 634 255 634 255 634.5 296 c 128,-1,47
 635 337 635 337 635 374 c 0,48,49
 635 458 635 458 628 520 c 128,-1,50
 621 582 621 582 599.5 622 c 128,-1,51
 578 662 578 662 539 681.5 c 128,-1,52
 500 701 500 701 436 701 c 0,53,54
 343 701 343 701 283 684.5 c 128,-1,55
 223 668 223 668 188 645 c 128,-1,56
 153 622 153 622 137 597.5 c 128,-1,57
 121 573 121 573 117 558 c 1,58,59
 149 547 149 547 184.5 537.5 c 128,-1,60
 220 528 220 528 252 517 c 0,61,62
 266 511 266 511 271 451 c 0,63,64
 273 425 273 425 274 394.5 c 128,-1,65
 275 364 275 364 276 332 c 2,66,-1
 276 296 l 2,67,68
 276 272 276 272 275.5 248.5 c 128,-1,69
 275 225 275 225 274 202 c 0,70,71
 273 180 273 180 271.5 155 c 128,-1,72
 270 130 270 130 269 107 c 0,73,74
 267 74 267 74 250 52.5 c 128,-1,75
 233 31 233 31 210.5 18.5 c 128,-1,76
 188 6 188 6 164.5 2 c 128,-1,77
 141 -2 141 -2 126 0 c 1,78,-1
 127 0 l 1,79,80
 69 5 69 5 39.5 40.5 c 128,-1,81
 10 76 10 76 14 128 c 0,82,83
 14 142 14 142 20 162 c 128,-1,84
 26 182 26 182 40.5 200 c 128,-1,85
 55 218 55 218 79.5 230 c 128,-1,86
 104 242 104 242 140 241 c 0,87,88
 166 241 166 241 183 235 c 128,-1,89
 200 229 200 229 211 219 c 2,0,1
69 130 m 0,90,91
 67 98 67 98 85 77 c 128,-1,92
 103 56 103 56 131 52 c 0,93,94
 166 49 166 49 182 68 c 0,95,96
 192 80 192 80 196.5 90.5 c 128,-1,97
 201 101 201 101 203 112 c 0,98,99
 206 133 206 133 192 160 c 0,100,101
 179 184 179 184 145 188 c 0,102,103
 116 191 116 191 94 175 c 128,-1,104
 72 159 72 159 69 130 c 0,90,91
EndSplineSet
EndChar
StartChar: uni0E21
Encoding: 3617 3617 37
Width: 725
Flags: W
Fore
287 190 m 1,0,-1
 281 193 l 1,1,-1
 281 201 l 1,2,-1
 287 190 l 1,0,-1
282 169 m 0,3,4
 282 175 282 175 281.5 180.5 c 128,-1,5
 281 186 281 186 281 193 c 1,6,7
 258 207 258 207 234.5 213 c 128,-1,8
 211 219 211 219 191 219 c 0,9,10
 150 219 150 219 124.5 194.5 c 128,-1,11
 99 170 99 170 101 125 c 0,12,13
 101 109 101 109 106.5 93.5 c 128,-1,14
 112 78 112 78 124 65.5 c 128,-1,15
 136 53 136 53 156 46 c 128,-1,16
 176 39 176 39 205 41 c 0,17,18
 249 45 249 45 265.5 74.5 c 128,-1,19
 282 104 282 104 282 169 c 0,3,4
287 462 m 1,20,21
 253 440 253 440 193 438 c 0,22,23
 155 436 155 436 127.5 448 c 128,-1,24
 100 460 100 460 80 483 c 0,25,26
 43 532 43 532 42 586 c 0,27,28
 41 614 41 614 51 639.5 c 128,-1,29
 61 665 61 665 78 689 c 0,30,31
 98 711 98 711 125.5 723.5 c 128,-1,32
 153 736 153 736 188 736 c 0,33,34
 264 736 264 736 306.5 696 c 128,-1,35
 349 656 349 656 352 589 c 2,36,-1
 339 238 l 1,37,38
 377 212 377 212 407.5 187.5 c 128,-1,39
 438 163 438 163 467 140 c 0,40,41
 493 119 493 119 525 96 c 128,-1,42
 557 73 557 73 590 50 c 1,43,44
 588 52 588 52 586.5 68.5 c 128,-1,45
 585 85 585 85 584 112.5 c 128,-1,46
 583 140 583 140 583 176 c 128,-1,47
 583 212 583 212 583 254 c 0,48,49
 583 315 583 315 582.5 382 c 128,-1,50
 582 449 582 449 581 512 c 0,51,52
 580 560 580 560 579.5 607 c 128,-1,53
 579 654 579 654 579 684 c 0,54,55
 578 697 578 697 587 704 c 128,-1,56
 596 711 596 711 608 711 c 128,-1,57
 620 711 620 711 628 706.5 c 128,-1,58
 636 702 636 702 639 686 c 0,59,60
 642 657 642 657 641 623 c 128,-1,61
 640 589 640 589 640 544 c 2,62,-1
 640 360 l 2,63,64
 640 312 640 312 640 266.5 c 128,-1,65
 640 221 640 221 639 177 c 2,66,-1
 636 36 l 1,67,68
 631 13 631 13 619 5 c 128,-1,69
 607 -3 607 -3 595 -6 c 0,70,71
 588 -7 588 -7 579 -6 c 128,-1,72
 570 -5 570 -5 559 0 c 1,73,74
 528 21 528 21 498.5 45 c 128,-1,75
 469 69 469 69 444 89 c 0,76,77
 430 101 430 101 418 111 c 128,-1,78
 406 121 406 121 394 130.5 c 128,-1,79
 382 140 382 140 369 150.5 c 128,-1,80
 356 161 356 161 339 173 c 1,81,82
 339 130 339 130 332 96.5 c 128,-1,83
 325 63 325 63 310 40 c 128,-1,84
 295 17 295 17 269.5 4.5 c 128,-1,85
 244 -8 244 -8 207 -10 c 0,86,87
 165 -12 165 -12 136 -1 c 128,-1,88
 107 10 107 10 88 29 c 128,-1,89
 69 48 69 48 59.5 73 c 128,-1,90
 50 98 50 98 47 124 c 0,91,92
 47 146 47 146 55.5 172 c 128,-1,93
 64 198 64 198 82 220.5 c 128,-1,94
 100 243 100 243 127 257.5 c 128,-1,95
 154 272 154 272 190 272 c 0,96,97
 209 272 209 272 231 268 c 128,-1,98
 253 264 253 264 278 254 c 1,99,-1
 287 462 l 1,20,21
291 580 m 0,100,101
 291 628 291 628 262.5 655.5 c 128,-1,102
 234 683 234 683 189 685 c 0,103,104
 150 688 150 688 125 658 c 0,105,106
 101 626 101 626 98 589 c 256,107,108
 95 552 95 552 117 521 c 0,109,110
 138 491 138 491 193 491 c 0,111,112
 228 491 228 491 260 517 c 0,113,114
 291 541 291 541 291 580 c 0,100,101
EndSplineSet
EndChar
StartChar: uni0E22
Encoding: 3618 3618 38
Width: 713
Flags: W
Fore
89 192 m 0,0,1
 91 255 91 255 105 293 c 128,-1,2
 119 331 119 331 146 356 c 1,3,4
 123 366 123 366 110.5 390 c 128,-1,5
 98 414 98 414 91.5 444 c 128,-1,6
 85 474 85 474 83.5 506.5 c 128,-1,7
 82 539 82 539 82 568 c 0,8,9
 82 595 82 595 87 628.5 c 128,-1,10
 92 662 92 662 108.5 691.5 c 128,-1,11
 125 721 125 721 156.5 741 c 128,-1,12
 188 761 188 761 240 761 c 0,13,14
 277 760 277 760 304 747.5 c 128,-1,15
 331 735 331 735 348 713 c 0,16,17
 362 691 362 691 370.5 667 c 128,-1,18
 379 643 379 643 379 618 c 0,19,20
 379 589 379 589 370 563 c 128,-1,21
 361 537 361 537 343.5 517.5 c 128,-1,22
 326 498 326 498 301 486.5 c 128,-1,23
 276 475 276 475 244 475 c 0,24,25
 179 475 179 475 133 518 c 1,26,27
 134 492 134 492 138 467 c 128,-1,28
 142 442 142 442 152.5 422.5 c 128,-1,29
 163 403 163 403 181.5 392.5 c 128,-1,30
 200 382 200 382 230 385 c 2,31,32
 245 383 245 383 257 385 c 2,33,34
 270 385 270 385 282.5 387 c 128,-1,35
 295 389 295 389 306 392 c 0,36,37
 317 396 317 396 321 385 c 0,38,39
 328 369 328 369 324 356.5 c 128,-1,40
 320 344 320 344 308 338 c 0,41,42
 297 332 297 332 284 332 c 2,43,-1
 202 328 l 1,44,45
 186 315 186 315 174 302 c 128,-1,46
 162 289 162 289 156 277 c 1,47,-1
 157 277 l 1,48,49
 143 249 143 249 143 196 c 0,50,51
 143 157 143 157 164 129.5 c 128,-1,52
 185 102 185 102 215.5 84.5 c 128,-1,53
 246 67 246 67 281.5 59.5 c 128,-1,54
 317 52 317 52 346 52 c 0,55,56
 382 52 382 52 422.5 58.5 c 128,-1,57
 463 65 463 65 497 83.5 c 128,-1,58
 531 102 531 102 553 134 c 128,-1,59
 575 166 575 166 575 217 c 2,60,-1
 575 473 l 2,61,62
 575 553 575 553 575 621 c 128,-1,63
 575 689 575 689 573 735 c 0,64,65
 573 761 573 761 602 761 c 0,66,67
 633 761 633 761 633 737 c 2,68,-1
 633 218 l 2,69,70
 631 152 631 152 607 110 c 128,-1,71
 583 68 583 68 542 43.5 c 128,-1,72
 501 19 501 19 446.5 9.5 c 128,-1,73
 392 0 392 0 328 0 c 0,74,75
 294 0 294 0 251.5 11 c 128,-1,76
 209 22 209 22 172.5 45.5 c 128,-1,77
 136 69 136 69 111.5 105 c 128,-1,78
 87 141 87 141 89 192 c 0,0,1
143 614 m 0,79,80
 144 573 144 573 176 551 c 0,81,82
 193 539 193 539 209.5 534 c 128,-1,83
 226 529 226 529 242 529 c 0,84,85
 280 529 280 529 301.5 554 c 128,-1,86
 323 579 323 579 323 615 c 0,87,88
 323 650 323 650 302 678 c 0,89,90
 282 705 282 705 239 705 c 0,91,92
 195 705 195 705 170.5 684 c 128,-1,93
 146 663 146 663 143 614 c 0,79,80
EndSplineSet
EndChar
StartChar: uni0E23
Encoding: 3619 3619 39
Width: 713
Flags: W
Fore
490 138 m 2,0,1
 490 98 490 98 477 72 c 128,-1,2
 464 46 464 46 444.5 30.5 c 128,-1,3
 425 15 425 15 401 8.5 c 128,-1,4
 377 2 377 2 355 2 c 0,5,6
 324 2 324 2 298.5 14 c 128,-1,7
 273 26 273 26 255 45 c 128,-1,8
 237 64 237 64 227 87 c 128,-1,9
 217 110 217 110 217 133 c 0,10,11
 217 175 217 175 251 217 c 0,12,13
 268 236 268 236 293 247.5 c 128,-1,14
 318 259 318 259 347 259 c 0,15,16
 374 259 374 259 399.5 249 c 128,-1,17
 425 239 425 239 443 219 c 1,18,19
 443 224 443 224 442.5 229 c 128,-1,20
 442 234 442 234 442 239 c 0,21,22
 441 259 441 259 441 274 c 128,-1,23
 441 289 441 289 441 300 c 0,24,25
 441 345 441 345 435.5 371.5 c 128,-1,26
 430 398 430 398 415.5 412.5 c 128,-1,27
 401 427 401 427 375 431 c 128,-1,28
 349 435 349 435 309 435 c 2,29,-1
 147 433 l 2,30,31
 114 433 114 433 91.5 434.5 c 128,-1,32
 69 436 69 436 54.5 442.5 c 128,-1,33
 40 449 40 449 34 461.5 c 128,-1,34
 28 474 28 474 28 496 c 0,35,36
 28 528 28 528 46.5 568.5 c 128,-1,37
 65 609 65 609 99.5 645 c 128,-1,38
 134 681 134 681 181.5 705.5 c 128,-1,39
 229 730 229 730 288 730 c 0,40,41
 340 730 340 730 378.5 718 c 128,-1,42
 417 706 417 706 444.5 688 c 128,-1,43
 472 670 472 670 491 649 c 128,-1,44
 510 628 510 628 524 611 c 0,45,46
 533 600 533 600 540.5 591 c 128,-1,47
 548 582 548 582 553 582 c 0,48,49
 564 582 564 582 566 588 c 128,-1,50
 568 594 568 594 570 603 c 0,51,52
 570 604 570 604 570.5 605 c 128,-1,53
 571 606 571 606 571 608 c 0,54,55
 572 641 572 641 600 641 c 0,56,57
 627 641 627 641 630 612 c 0,58,59
 631 597 631 597 626 582 c 128,-1,60
 621 567 621 567 611.5 555 c 128,-1,61
 602 543 602 543 587.5 535.5 c 128,-1,62
 573 528 573 528 555 528 c 0,63,64
 524 528 524 528 507 542.5 c 128,-1,65
 490 557 490 557 471 577 c 1,66,-1
 472 577 l 1,67,-1
 452 600 l 2,68,69
 440 613 440 613 425.5 625 c 128,-1,70
 411 637 411 637 391.5 647 c 128,-1,71
 372 657 372 657 346.5 663.5 c 128,-1,72
 321 670 321 670 288 671 c 0,73,74
 244 671 244 671 207.5 652 c 128,-1,75
 171 633 171 633 144 606 c 128,-1,76
 117 579 117 579 102 550 c 128,-1,77
 87 521 87 521 87 502 c 0,78,79
 87 494 87 494 105 491.5 c 128,-1,80
 123 489 123 489 171 489 c 0,81,82
 185 489 185 489 202.5 489.5 c 128,-1,83
 220 490 220 490 240 490 c 0,84,85
 267 490 267 490 299.5 490.5 c 128,-1,86
 332 491 332 491 370 491 c 0,87,88
 444 491 444 491 470 439 c 0,89,90
 481 416 481 416 487.5 386.5 c 128,-1,91
 494 357 494 357 494 324 c 2,92,-1
 490 138 l 2,0,1
349 58 m 0,93,94
 387 58 387 58 405.5 79 c 128,-1,95
 424 100 424 100 422 138 c 0,96,97
 420 162 420 162 400 182 c 128,-1,98
 380 202 380 202 349 202 c 0,99,100
 315 202 315 202 295.5 182 c 128,-1,101
 276 162 276 162 276 133 c 0,102,103
 276 101 276 101 295.5 79.5 c 128,-1,104
 315 58 315 58 349 58 c 0,93,94
EndSplineSet
EndChar
StartChar: uni0E24
Encoding: 3620 3620 40
Width: 780
Flags: W
Fore
398 120 m 2,0,1
 395 75 395 75 363 39 c 0,2,3
 347 20 347 20 325 10 c 128,-1,4
 303 0 303 0 272 0 c 0,5,6
 257 -2 257 -2 235.5 5 c 128,-1,7
 214 12 214 12 194.5 27 c 128,-1,8
 175 42 175 42 161.5 65.5 c 128,-1,9
 148 89 148 89 148 121 c 0,10,11
 150 153 150 153 153.5 197 c 128,-1,12
 157 241 157 241 161 287 c 0,13,14
 162 298 162 298 163.5 311.5 c 128,-1,15
 165 325 165 325 166 336 c 2,16,-1
 174 434 l 2,17,18
 176 463 176 463 178 464 c 1,19,20
 164 473 164 473 141 479 c 128,-1,21
 118 485 118 485 96 491 c 0,22,23
 80 495 80 495 64.5 499.5 c 128,-1,24
 49 504 49 504 37 509 c 128,-1,25
 25 514 25 514 18 521 c 128,-1,26
 11 528 11 528 11 536 c 0,27,28
 11 560 11 560 33 597 c 128,-1,29
 55 634 55 634 99 669 c 128,-1,30
 143 704 143 704 208.5 729 c 128,-1,31
 274 754 274 754 361 754 c 0,32,33
 387 754 l 128,-1,34
 400 754 400 754 412 752 c 1,35,-1
 411 752 l 1,36,37
 501 745 501 745 557 718.5 c 128,-1,38
 613 692 613 692 644 630 c 128,-1,39
 675 568 675 568 685.5 461 c 128,-1,40
 696 354 696 354 696 186 c 0,41,42
 696 108 696 108 694.5 16 c 128,-1,43
 693 -76 693 -76 691 -185 c 2,44,-1
 688 -361 l 2,45,46
 689 -397 689 -397 662 -396 c 1,47,-1
 663 -396 l 1,48,49
 629 -401 629 -401 627 -364 c 0,50,51
 631 -202 631 -202 633 -70.5 c 128,-1,52
 635 61 635 61 637 164 c 0,53,54
 638 181 638 181 638 197.5 c 128,-1,55
 638 214 638 214 638 230 c 0,56,57
 638 309 638 309 633.5 372 c 128,-1,58
 629 435 629 435 621 485 c 0,59,60
 602 597 602 597 552 644 c 0,61,62
 501 689 501 689 403 695 c 0,63,64
 394 696 394 696 385 696 c 128,-1,65
 367 696 l 0,66,67
 296 696 296 696 245.5 680 c 128,-1,68
 195 664 195 664 161 641.5 c 128,-1,69
 127 619 127 619 108 594.5 c 128,-1,70
 89 570 89 570 81 554 c 1,71,-1
 220 511 l 1,72,73
 228 505 228 505 231 491 c 128,-1,74
 234 477 234 477 234 456 c 0,75,76
 234 431 234 431 231.5 398.5 c 128,-1,77
 229 366 229 366 225 330 c 0,78,79
 223 304 223 304 220.5 279 c 128,-1,80
 218 254 218 254 216 230 c 1,81,82
 241 244 241 244 281 241 c 0,83,84
 316 240 316 240 339 226 c 128,-1,85
 362 212 362 212 375 193 c 128,-1,86
 388 174 388 174 393 154 c 128,-1,87
 398 134 398 134 398 121 c 2,88,-1
 398 120 l 2,0,1
341 126 m 0,89,90
 340 154 340 154 320.5 172 c 128,-1,91
 301 190 301 190 272 190 c 0,92,93
 254 190 254 190 242.5 184 c 128,-1,94
 231 178 231 178 223 168 c 0,95,96
 207 144 207 144 207 121 c 256,97,98
 207 98 207 98 223 75 c 0,99,100
 236 54 236 54 272 54 c 0,101,102
 301 54 301 54 319.5 73.5 c 128,-1,103
 338 93 338 93 341 126 c 0,89,90
EndSplineSet
EndChar
StartChar: uni0E25
Encoding: 3621 3621 41
Width: 813
Flags: W
Fore
193 28 m 0,0,1
 170 44 170 44 159.5 63 c 128,-1,2
 149 82 149 82 150 106 c 2,3,4
 148 117 148 117 148 129 c 128,-1,5
 148 153 l 0,6,7
 148 212 148 212 163.5 270.5 c 128,-1,8
 179 329 179 329 208.5 375.5 c 128,-1,9
 238 422 238 422 282 451 c 128,-1,10
 326 480 326 480 383 481 c 0,11,12
 423 481 423 481 454.5 466 c 128,-1,13
 486 451 486 451 511 425.5 c 128,-1,14
 536 400 536 400 555.5 367.5 c 128,-1,15
 575 335 575 335 590 299.5 c 128,-1,16
 605 264 605 264 616 228.5 c 128,-1,17
 627 193 627 193 636 163 c 0,18,19
 647 125 647 125 654 101 c 128,-1,20
 661 77 661 77 666 77 c 0,21,22
 668 77 668 77 669 127.5 c 128,-1,23
 670 178 670 178 670 277 c 0,24,25
 670 298 670 298 670 321.5 c 128,-1,26
 670 345 670 345 669 371 c 0,27,28
 667 466 667 466 641.5 529 c 128,-1,29
 616 592 616 592 577 630 c 128,-1,30
 538 668 538 668 492 685 c 128,-1,31
 446 702 446 702 404 705 c 0,32,33
 354 704 354 704 309.5 689 c 128,-1,34
 265 674 265 674 230 639.5 c 128,-1,35
 195 605 195 605 172 547 c 128,-1,36
 149 489 149 489 142 403 c 0,37,38
 139 378 139 378 111 375 c 0,39,40
 97 374 97 374 90.5 382.5 c 128,-1,41
 84 391 84 391 84 403 c 0,42,43
 91 508 91 508 121 577.5 c 128,-1,44
 151 647 151 647 195 688.5 c 128,-1,45
 239 730 239 730 292.5 747.5 c 128,-1,46
 346 765 346 765 401 765 c 256,47,48
 456 765 456 765 514.5 746 c 128,-1,49
 573 727 573 727 620.5 682 c 128,-1,50
 668 637 668 637 698.5 562 c 128,-1,51
 729 487 729 487 729 376 c 0,52,53
 729 363 729 363 729 342 c 128,-1,54
 729 321 729 321 730 291 c 2,55,-1
 730 259 l 2,56,57
 730 237 730 237 729.5 215 c 128,-1,58
 729 193 729 193 728 171 c 0,59,60
 725 112 725 112 716 65 c 0,61,62
 706 10 706 10 672 10 c 0,63,64
 655 10 655 10 641.5 23 c 128,-1,65
 628 36 628 36 616 58.5 c 128,-1,66
 604 81 604 81 593.5 110.5 c 128,-1,67
 583 140 583 140 572 173 c 0,68,69
 557 216 557 216 540.5 260.5 c 128,-1,70
 524 305 524 305 502 341.5 c 128,-1,71
 480 378 480 378 451.5 401.5 c 128,-1,72
 423 425 423 425 386 425 c 0,73,74
 372 425 372 425 347 416.5 c 128,-1,75
 322 408 322 408 295 387 c 128,-1,76
 268 366 268 366 245 329.5 c 128,-1,77
 222 293 222 293 212 236 c 1,78,79
 227 245 227 245 246.5 249 c 128,-1,80
 266 253 266 253 281 253 c 0,81,82
 315 253 315 253 339 239.5 c 128,-1,83
 363 226 363 226 378 206.5 c 128,-1,84
 393 187 393 187 400 165 c 128,-1,85
 407 143 407 143 407 127 c 0,86,87
 407 59 407 59 363 27 c 0,88,89
 322 0 322 0 281 0 c 0,90,91
 258 0 258 0 236.5 7 c 128,-1,92
 215 14 215 14 193 28 c 0,0,1
203 129 m 0,93,94
 203 94 203 94 224.5 75 c 128,-1,95
 246 56 246 56 281 56 c 0,96,97
 310 56 310 56 331 77 c 0,98,99
 352 101 352 101 352 129 c 0,100,101
 352 137 352 137 347.5 148 c 128,-1,102
 343 159 343 159 335 172 c 0,103,104
 319 194 319 194 279 194 c 0,105,106
 250 194 250 194 226.5 176.5 c 128,-1,107
 203 159 203 159 203 129 c 0,93,94
EndSplineSet
EndChar
StartChar: uni0E26
Encoding: 3622 3622 42
Width: 778
Flags: W
Fore
211 219 m 2,0,1
 212 218 l 1,2,3
 215 275 215 275 215 320 c 0,4,5
 215 340 215 340 215 359 c 128,-1,6
 215 378 215 378 213 395 c 0,7,8
 209 469 209 469 205 471 c 1,9,-1
 206 471 l 1,10,11
 192 479 192 479 170 485.5 c 128,-1,12
 148 492 148 492 126 497 c 0,13,14
 94 505 94 505 72.5 514.5 c 128,-1,15
 51 524 51 524 51 543 c 0,16,17
 53 568 53 568 80.5 606 c 128,-1,18
 108 644 108 644 157.5 679.5 c 128,-1,19
 207 715 207 715 277.5 738.5 c 128,-1,20
 348 762 348 762 438 759 c 0,21,22
 518 753 518 753 568.5 723.5 c 128,-1,23
 619 694 619 694 647 639 c 128,-1,24
 675 584 675 584 685 503.5 c 128,-1,25
 695 423 695 423 695 314 c 0,26,27
 695 278 695 278 695 239.5 c 128,-1,28
 695 201 695 201 694 159 c 0,29,30
 694 145 694 145 694 118.5 c 128,-1,31
 694 92 694 92 693.5 57 c 128,-1,32
 693 22 693 22 693 -18 c 128,-1,33
 693 -98 l 0,34,35
 693 -145 693 -145 692.5 -191.5 c 128,-1,36
 692 -238 692 -238 692 -276.5 c 128,-1,37
 692 -315 692 -315 692 -342.5 c 128,-1,38
 692 -370 692 -370 692 -379 c 1,39,40
 678 -398 678 -398 666 -398 c 0,41,42
 657 -398 657 -398 645 -391 c 1,43,-1
 648 -392 l 1,44,-1
 639 -388 l 2,45,46
 631 -385 631 -385 631 -376 c 0,47,48
 631 -370 631 -370 631 -347 c 128,-1,49
 631 -324 631 -324 631 -290 c 128,-1,50
 631 -256 631 -256 631.5 -214.5 c 128,-1,51
 632 -173 632 -173 632 -129 c 2,52,-1
 632 119 l 2,53,54
 632 133 632 133 632.5 146.5 c 128,-1,55
 633 160 633 160 633 174 c 0,56,57
 634 216 634 216 634.5 254.5 c 128,-1,58
 635 293 635 293 635 328 c 0,59,60
 635 403 635 403 631.5 462.5 c 128,-1,61
 628 522 628 522 616 568 c 0,62,63
 599 636 599 636 557 668.5 c 128,-1,64
 515 701 515 701 435 701 c 0,65,66
 358 701 358 701 301.5 684.5 c 128,-1,67
 245 668 245 668 206.5 644.5 c 128,-1,68
 168 621 168 621 147 597 c 128,-1,69
 126 573 126 573 120 558 c 1,70,71
 151 547 151 547 183.5 537.5 c 128,-1,72
 216 528 216 528 247 517 c 0,73,74
 263 510 263 510 266 451 c 0,75,76
 268 425 268 425 268.5 394.5 c 128,-1,77
 269 364 269 364 269 332 c 0,78,79
 269 299 269 299 268 266 c 128,-1,80
 267 233 267 233 265 201 c 2,81,-1
 259 107 l 2,82,83
 257 74 257 74 241 52.5 c 128,-1,84
 225 31 225 31 204.5 18.5 c 128,-1,85
 184 6 184 6 162 2 c 128,-1,86
 140 -2 140 -2 126 0 c 1,87,-1
 127 0 l 1,88,89
 69 5 69 5 39.5 40.5 c 128,-1,90
 10 76 10 76 14 128 c 0,91,92
 14 142 14 142 20 162 c 128,-1,93
 26 182 26 182 40.5 200 c 128,-1,94
 55 218 55 218 79.5 230 c 128,-1,95
 104 242 104 242 140 241 c 0,96,97
 166 241 166 241 183 235 c 128,-1,98
 200 229 200 229 211 219 c 2,0,1
67 132 m 0,99,100
 65 100 65 100 83 79 c 128,-1,101
 101 58 101 58 129 54 c 0,102,103
 164 51 164 51 180 70 c 0,104,105
 198 92 198 92 201 114 c 0,106,107
 204 135 204 135 190 162 c 0,108,109
 176 186 176 186 143 190 c 0,110,111
 114 193 114 193 92 177 c 128,-1,112
 70 161 70 161 67 132 c 0,99,100
EndSplineSet
EndChar
StartChar: uni0E27
Encoding: 3623 3623 43
Width: 590
Flags: W
Fore
506 118 m 2,0,1
 504 85 504 85 486.5 61 c 128,-1,2
 469 37 469 37 446 22.5 c 128,-1,3
 423 8 423 8 399.5 2 c 128,-1,4
 376 -4 376 -4 361 -2 c 1,5,-1
 362 -2 l 1,6,7
 303 3 303 3 272.5 39.5 c 128,-1,8
 242 76 242 76 244 127 c 0,9,10
 244 141 244 141 251 162 c 128,-1,11
 258 183 258 183 273.5 202 c 128,-1,12
 289 221 289 221 314 234 c 128,-1,13
 339 247 339 247 376 245 c 0,14,15
 399 244 399 244 417 236.5 c 128,-1,16
 435 229 435 229 446 220 c 1,17,-1
 450 358 l 2,18,19
 451 387 451 387 451.5 413 c 128,-1,20
 452 439 452 439 452 463 c 0,21,22
 452 523 452 523 445.5 569.5 c 128,-1,23
 439 616 439 616 418.5 648 c 128,-1,24
 398 680 398 680 360 697 c 128,-1,25
 322 714 322 714 259 715 c 0,26,27
 208 716 208 716 173 703 c 128,-1,28
 138 690 138 690 117 664 c 0,29,30
 75 610 75 610 72 521 c 0,31,32
 71 507 71 507 63.5 500 c 128,-1,33
 56 493 56 493 45 491 c 0,34,35
 16 486 16 486 13 519 c 0,36,37
 10 640 10 640 72 706 c 128,-1,38
 134 772 134 772 255 772 c 0,39,40
 341 772 341 772 391.5 749 c 128,-1,41
 442 726 442 726 468.5 684 c 128,-1,42
 495 642 495 642 502.5 583 c 128,-1,43
 510 524 510 524 510 453 c 0,44,45
 510 430 510 430 510 406.5 c 128,-1,46
 510 383 510 383 509 358 c 2,47,-1
 506 118 l 2,0,1
302 132 m 0,48,49
 300 100 300 100 318 79 c 128,-1,50
 336 58 336 58 364 54 c 0,51,52
 381 52 381 52 395 57 c 128,-1,53
 409 62 409 62 418 71 c 0,54,55
 438 95 438 95 442 114 c 0,56,57
 445 136 445 136 428 161 c 0,58,59
 414 185 414 185 378 190 c 0,60,61
 349 194 349 194 327 177.5 c 128,-1,62
 305 161 305 161 302 132 c 0,48,49
EndSplineSet
EndChar
StartChar: uni0E28
Encoding: 3624 3624 44
Width: 819
Flags: W
Fore
823 1047 m 1,0,1
 828 1024 828 1024 829.5 999.5 c 128,-1,2
 831 975 831 975 831 949 c 0,3,4
 831 897 831 897 822 844 c 128,-1,5
 813 791 813 791 795 740.5 c 128,-1,6
 777 690 777 690 750 644 c 128,-1,7
 723 598 723 598 687 561 c 1,8,9
 709 497 709 497 714 410.5 c 128,-1,10
 719 324 719 324 719 230 c 0,11,12
 719 202 719 202 718.5 169.5 c 128,-1,13
 718 137 718 137 717.5 108 c 128,-1,14
 717 79 717 79 715.5 57 c 128,-1,15
 714 35 714 35 713 27 c 1,16,17
 700 -7 700 -7 676 1 c 1,18,-1
 677 0 l 1,19,20
 669 3 669 3 662 10 c 0,21,22
 661 11 661 11 659.5 14 c 128,-1,23
 658 17 658 17 658 19 c 2,24,-1
 660 243 l 2,25,26
 660 296 660 296 657.5 350 c 128,-1,27
 655 404 655 404 645.5 454 c 128,-1,28
 636 504 636 504 617.5 548 c 128,-1,29
 599 592 599 592 567.5 625 c 128,-1,30
 536 658 536 658 490 678.5 c 128,-1,31
 444 699 444 699 379 703 c 0,32,33
 329 701 329 701 280.5 674.5 c 128,-1,34
 232 648 232 648 194 599.5 c 128,-1,35
 156 551 156 551 131.5 483 c 128,-1,36
 107 415 107 415 104 331 c 0,37,38
 104 323 104 323 103.5 308.5 c 128,-1,39
 103 294 103 294 103 282 c 0,40,41
 102 259 102 259 102 231.5 c 128,-1,42
 102 204 102 204 102 177 c 0,43,44
 102 136 102 136 101 104.5 c 128,-1,45
 100 73 100 73 97 71 c 1,46,47
 109 73 109 73 125 103.5 c 128,-1,48
 141 134 141 134 157.5 175.5 c 128,-1,49
 174 217 174 217 187 259 c 128,-1,50
 200 301 200 301 206 327 c 0,51,52
 224 402 224 402 258.5 441.5 c 128,-1,53
 293 481 293 481 355 479 c 0,54,55
 412 477 412 477 444.5 446 c 128,-1,56
 477 415 477 415 477 362 c 0,57,58
 477 313 477 313 443 276 c 0,59,60
 408 238 408 238 353 238 c 0,61,62
 341 238 341 238 325 241.5 c 128,-1,63
 309 245 309 245 291 251 c 0,64,65
 281 255 281 255 270 262 c 128,-1,66
 259 269 259 269 252 277 c 1,67,68
 227 196 227 196 205 143.5 c 128,-1,69
 183 91 183 91 163 60.5 c 128,-1,70
 143 30 143 30 123.5 18 c 128,-1,71
 104 6 104 6 85 6 c 0,72,73
 77 6 77 6 69.5 16.5 c 128,-1,74
 62 27 62 27 56.5 59.5 c 128,-1,75
 51 92 51 92 47.5 151 c 128,-1,76
 44 210 44 210 44 308 c 0,77,78
 44 525 44 525 134 644 c 0,79,80
 225 761 225 761 379 761 c 0,81,82
 442 761 442 761 489 746.5 c 128,-1,83
 536 732 536 732 569.5 710.5 c 128,-1,84
 603 689 603 689 624.5 662.5 c 128,-1,85
 646 636 646 636 659 612 c 1,86,87
 720 684 720 684 747.5 768 c 128,-1,88
 775 852 775 852 775 952 c 0,89,90
 775 975 775 975 773 998 c 128,-1,91
 771 1021 771 1021 768 1045 c 1,92,93
 773 1069 773 1069 789.5 1069.5 c 128,-1,94
 806 1070 806 1070 820 1053 c 1,95,-1
 823 1047 l 1,0,1
278 362 m 0,96,97
 278 324 278 324 299 306.5 c 128,-1,98
 320 289 320 289 355 289 c 0,99,100
 384 289 384 289 404 311 c 128,-1,101
 424 333 424 333 426 363 c 0,102,103
 427 375 427 375 423.5 386.5 c 128,-1,104
 420 398 420 398 411 407 c 128,-1,105
 402 416 402 416 388 421.5 c 128,-1,106
 374 427 374 427 353 427 c 0,107,108
 324 427 324 427 301 409.5 c 128,-1,109
 278 392 278 392 278 362 c 0,96,97
EndSplineSet
EndChar
StartChar: uni0E29
Encoding: 3625 3625 45
Width: 864
Flags: W
Fore
662 700 m 1,0,-1
 662 698 l 1,1,-1
 662 700 l 1,0,-1
349 408 m 2,2,3
 348 336 348 336 346.5 251 c 128,-1,4
 345 166 345 166 342 63 c 1,5,6
 353 61 353 61 368 61 c 128,-1,7
 383 61 383 61 403 61 c 2,8,-1
 518 61 l 2,9,10
 550 61 550 61 584 63 c 128,-1,11
 618 65 618 65 656 63 c 0,12,13
 665 63 665 63 667.5 73.5 c 128,-1,14
 670 84 670 84 670 103 c 128,-1,15
 670 122 670 122 668.5 148.5 c 128,-1,16
 667 175 667 175 667 207 c 0,17,18
 667 267 667 267 666 339 c 128,-1,19
 664 483 l 0,20,21
 664 510 664 510 663.5 540 c 128,-1,22
 663 570 663 570 663 598.5 c 128,-1,23
 663 627 663 627 662.5 652.5 c 128,-1,24
 662 678 662 678 662 698 c 0,25,26
 661 713 661 713 670 722.5 c 128,-1,27
 679 732 679 732 690.5 732.5 c 128,-1,28
 702 733 702 733 711.5 722.5 c 128,-1,29
 721 712 721 712 721 687 c 0,30,31
 722 653 722 653 723.5 620.5 c 128,-1,32
 725 588 725 588 726 554 c 0,33,34
 728 511 728 511 729 463 c 128,-1,35
 731 367 l 0,36,37
 732 322 732 322 732.5 272 c 128,-1,38
 733 222 733 222 733 180 c 0,39,40
 733 151 733 151 734.5 119.5 c 128,-1,41
 736 88 736 88 734 62 c 128,-1,42
 732 36 732 36 723.5 18.5 c 128,-1,43
 715 1 715 1 695 1 c 0,44,45
 645 2 645 2 586 1.5 c 128,-1,46
 527 1 527 1 470.5 1 c 128,-1,47
 414 1 414 1 366.5 2 c 128,-1,48
 319 3 319 3 291 6 c 0,49,50
 286 7 286 7 284 13 c 128,-1,51
 282 19 282 19 282 24 c 2,52,-1
 285 195 l 2,53,54
 286 247 286 247 287 286 c 128,-1,55
 288 325 288 325 288.5 356.5 c 128,-1,56
 289 388 289 388 289.5 416.5 c 128,-1,57
 290 445 290 445 290 476 c 1,58,59
 274 462 274 462 250.5 456.5 c 128,-1,60
 227 451 227 451 194 450 c 0,61,62
 118 449 118 449 82 495 c 0,63,64
 44 545 44 545 44 598 c 0,65,66
 42 652 42 652 80 700 c 0,67,68
 99 722 99 722 126.5 735 c 128,-1,69
 154 748 154 748 189 748 c 0,70,71
 264 748 264 748 302 709.5 c 128,-1,72
 340 671 340 671 346 605 c 0,73,74
 348 585 348 585 348.5 552 c 128,-1,75
 349 519 349 519 349 474 c 2,76,-1
 349 408 l 2,2,3
288 592 m 0,77,78
 288 640 288 640 262 666.5 c 128,-1,79
 236 693 236 693 191 695 c 0,80,81
 151 696 151 696 126 668 c 0,82,83
 114 654 114 654 107.5 636.5 c 128,-1,84
 101 619 101 619 99 601 c 0,85,86
 96 566 96 566 118 535 c 0,87,88
 128 521 128 521 148 514 c 128,-1,89
 168 507 168 507 194 507 c 0,90,91
 229 507 229 507 259 531 c 0,92,93
 288 554 288 554 288 592 c 0,77,78
609 423 m 0,94,95
 611 391 611 391 593 363 c 128,-1,96
 575 335 575 335 540 321 c 1,97,98
 559 313 559 313 582 310 c 128,-1,99
 605 307 605 307 628 309 c 0,100,101
 656 311 656 311 682.5 318 c 128,-1,102
 709 325 709 325 730 343.5 c 128,-1,103
 751 362 751 362 763.5 395.5 c 128,-1,104
 776 429 776 429 776 484 c 1,105,106
 774 496 774 496 780 505 c 128,-1,107
 786 514 786 514 800 516 c 0,108,109
 833 520 833 520 833 486 c 0,110,111
 833 263 833 263 630 254 c 0,112,113
 589 252 589 252 548.5 260.5 c 128,-1,114
 508 269 508 269 475.5 289.5 c 128,-1,115
 443 310 443 310 422.5 341.5 c 128,-1,116
 402 373 402 373 402 418 c 0,117,118
 402 462 402 462 435 491 c 0,119,120
 450 502 450 502 466 509 c 128,-1,121
 482 516 482 516 498 517 c 0,122,123
 543 519 543 519 573.5 491 c 128,-1,124
 604 463 604 463 609 423 c 0,94,95
495 463 m 0,125,126
 478 463 478 463 467 451.5 c 128,-1,127
 456 440 456 440 456 418 c 0,128,129
 456 384 456 384 472 374 c 1,130,-1
 471 374 l 1,131,132
 491 363 491 363 499 363 c 0,133,134
 512 363 512 363 523.5 368 c 128,-1,135
 535 373 535 373 543 380.5 c 128,-1,136
 551 388 551 388 555 398 c 128,-1,137
 559 408 559 408 558 417 c 0,138,139
 556 443 556 443 537 453 c 128,-1,140
 518 463 518 463 495 463 c 0,125,126
EndSplineSet
EndChar
StartChar: uni0E2A
Encoding: 3626 3626 46
Width: 870
Flags: W
Fore
235 23 m 0,0,1
 219 33 219 33 210.5 47 c 128,-1,2
 202 61 202 61 197.5 76.5 c 128,-1,3
 193 92 193 92 192 108.5 c 128,-1,4
 191 125 191 125 191 140 c 0,5,6
 191 216 191 216 209 279.5 c 128,-1,7
 227 343 227 343 258 389 c 128,-1,8
 289 435 289 435 330 460 c 128,-1,9
 371 485 371 485 418 485 c 0,10,11
 475 485 475 485 515.5 453 c 128,-1,12
 556 421 556 421 584 373 c 128,-1,13
 612 325 612 325 630.5 269.5 c 128,-1,14
 649 214 649 214 663 168 c 2,15,-1
 691 78 l 1,16,17
 692 98.5 l 130,-1,18
 693 119 693 119 693.5 150.5 c 128,-1,19
 694 182 694 182 694.5 220 c 128,-1,20
 695 258 695 258 695 293 c 2,21,-1
 695 374 l 2,22,23
 695 468 695 468 671 531.5 c 128,-1,24
 647 595 647 595 609.5 634 c 128,-1,25
 572 673 572 673 527 690.5 c 128,-1,26
 482 708 482 708 440 711 c 0,27,28
 393 710 393 710 346.5 696.5 c 128,-1,29
 300 683 300 683 261 651 c 128,-1,30
 222 619 222 619 194 566 c 128,-1,31
 166 513 166 513 156 432 c 1,32,33
 152 418 152 418 142.5 413 c 128,-1,34
 133 408 133 408 125 408 c 0,35,36
 93 408 93 408 95 434 c 0,37,38
 98 531 98 531 131.5 595 c 128,-1,39
 165 659 165 659 214.5 697.5 c 128,-1,40
 264 736 264 736 322.5 752 c 128,-1,41
 381 768 381 768 435 768 c 0,42,43
 485 768 485 768 539 753.5 c 128,-1,44
 593 739 593 739 640 701 c 1,45,46
 682 725 682 725 714.5 759 c 128,-1,47
 747 793 747 793 771 834 c 128,-1,48
 795 875 795 875 811 921.5 c 128,-1,49
 827 968 827 968 836 1016 c 0,50,51
 839 1036 839 1036 849 1046 c 128,-1,52
 859 1056 859 1056 871 1056 c 0,53,54
 901 1056 901 1056 895 1004 c 0,55,56
 886 954 886 954 870 903.5 c 128,-1,57
 854 853 854 853 828.5 807 c 128,-1,58
 803 761 803 761 767 721.5 c 128,-1,59
 731 682 731 682 682 655 c 1,60,61
 697 635 697 635 710.5 611 c 128,-1,62
 724 587 724 587 736 545 c 0,63,64
 741 527 741 527 745.5 480.5 c 128,-1,65
 750 434 750 434 753 374.5 c 128,-1,66
 756 315 756 315 755.5 251 c 128,-1,67
 755 187 755 187 749.5 133.5 c 128,-1,68
 744 80 744 80 732 45 c 128,-1,69
 720 10 720 10 699 10 c 0,70,71
 682 10 682 10 668 23.5 c 128,-1,72
 654 37 654 37 642 60 c 128,-1,73
 630 83 630 83 620 113 c 128,-1,74
 610 143 610 143 600 175 c 0,75,76
 586 215 586 215 569.5 259.5 c 128,-1,77
 553 304 553 304 531.5 341 c 128,-1,78
 510 378 510 378 483 402.5 c 128,-1,79
 456 427 456 427 422 427 c 0,80,81
 409 427 409 427 386 419.5 c 128,-1,82
 363 412 363 412 338 391.5 c 128,-1,83
 313 371 313 371 290.5 335 c 128,-1,84
 268 299 268 299 255 242 c 1,85,86
 271 250 271 250 288 253 c 128,-1,87
 305 256 305 256 319 257 c 0,88,89
 356 258 356 258 379.5 244.5 c 128,-1,90
 403 231 403 231 416.5 211 c 128,-1,91
 430 191 430 191 435.5 169 c 128,-1,92
 441 147 441 147 442 131 c 0,93,94
 443 100 443 100 434.5 75.5 c 128,-1,95
 426 51 426 51 409 34.5 c 128,-1,96
 392 18 392 18 369 9 c 128,-1,97
 346 0 346 0 319 0 c 0,98,99
 297 0 297 0 276 4.5 c 128,-1,100
 255 9 255 9 235 23 c 0,0,1
244 133 m 0,101,102
 244 98 244 98 265 78.5 c 128,-1,103
 286 59 286 59 319 59 c 0,104,105
 333 59 333 59 345.5 65 c 128,-1,106
 358 71 358 71 367.5 81.5 c 128,-1,107
 377 92 377 92 382.5 105 c 128,-1,108
 388 118 388 118 388 133 c 0,109,110
 388 150 388 150 371 176 c 0,111,112
 355 198 355 198 317 198 c 0,113,114
 288 198 288 198 266 180.5 c 128,-1,115
 244 163 244 163 244 133 c 0,101,102
EndSplineSet
EndChar
StartChar: uni0E2B
Encoding: 3627 3627 47
Width: 821
Flags: W
Fore
455 334 m 0,0,1
 475 366 475 366 493 394 c 128,-1,2
 511 422 511 422 528 447 c 1,3,4
 471 475 471 475 452 519 c 0,5,6
 434 564 434 564 434 604 c 0,7,8
 434 635 434 635 444 662.5 c 128,-1,9
 454 690 454 690 473.5 710.5 c 128,-1,10
 493 731 493 731 522.5 743 c 128,-1,11
 552 755 552 755 590 755 c 0,12,13
 621 753 621 753 648.5 742 c 128,-1,14
 676 731 676 731 695.5 712.5 c 128,-1,15
 715 694 715 694 726.5 667.5 c 128,-1,16
 738 641 738 641 738 608 c 0,17,18
 738 585 738 585 733 558.5 c 128,-1,19
 728 532 728 532 715.5 508.5 c 128,-1,20
 703 485 703 485 681 467.5 c 128,-1,21
 659 450 659 450 625 446 c 1,22,23
 657 398 657 398 670.5 346 c 128,-1,24
 684 294 684 294 688 240 c 128,-1,25
 692 186 692 186 690 131.5 c 128,-1,26
 688 77 688 77 688 23 c 0,27,28
 686 8 686 8 677 0.5 c 128,-1,29
 668 -7 668 -7 658 -7 c 128,-1,30
 648 -7 648 -7 639.5 0.5 c 128,-1,31
 631 8 631 8 631 23 c 0,32,33
 632 49 632 49 631 71.5 c 128,-1,34
 630 94 630 94 630 117 c 0,35,36
 630 235 630 235 618 307 c 128,-1,37
 606 379 606 379 577 408 c 1,38,39
 549 375 549 375 519.5 325.5 c 128,-1,40
 490 276 490 276 459 222 c 0,41,42
 438 186 438 186 416.5 151 c 128,-1,43
 395 116 395 116 375 86.5 c 128,-1,44
 355 57 355 57 336 35.5 c 128,-1,45
 317 14 317 14 301 5 c 0,46,47
 289 -1 289 -1 275.5 -3 c 128,-1,48
 262 -5 262 -5 250 -1.5 c 128,-1,49
 238 2 238 2 229.5 13 c 128,-1,50
 221 24 221 24 219 44 c 1,51,52
 225 98 225 98 230 138.5 c 128,-1,53
 235 179 235 179 240 212 c 128,-1,54
 245 245 245 245 249.5 272.5 c 128,-1,55
 254 300 254 300 259 326 c 0,56,57
 262 342 262 342 264.5 352.5 c 128,-1,58
 267 363 267 363 269 374 c 128,-1,59
 271 385 271 385 273.5 400 c 128,-1,60
 276 415 276 415 279 439 c 1,61,62
 256 426 256 426 231.5 423.5 c 128,-1,63
 207 421 207 421 184 421 c 0,64,65
 134 419 134 419 101.5 437 c 128,-1,66
 69 455 69 455 50.5 482.5 c 128,-1,67
 32 510 32 510 26 541.5 c 128,-1,68
 20 573 20 573 22 598 c 0,69,70
 24 620 24 620 33.5 647 c 128,-1,71
 43 674 43 674 64 696.5 c 128,-1,72
 85 719 85 719 118.5 733.5 c 128,-1,73
 152 748 152 748 202 746 c 0,74,75
 225 744 225 744 251 733.5 c 128,-1,76
 277 723 277 723 299 702.5 c 128,-1,77
 321 682 321 682 336 651.5 c 128,-1,78
 351 621 351 621 353 580 c 0,79,80
 354 552 354 552 350 511 c 128,-1,81
 346 470 346 470 339.5 423.5 c 128,-1,82
 333 377 333 377 324.5 327.5 c 128,-1,83
 316 278 316 278 308 233 c 0,84,85
 297 176 297 176 289.5 128.5 c 128,-1,86
 282 81 282 81 280 61 c 1,87,88
 295 99 295 99 320.5 131.5 c 128,-1,89
 346 164 346 164 368 196 c 0,90,91
 390 230 390 230 411.5 265 c 128,-1,92
 433 300 433 300 455 334 c 0,0,1
186 477 m 0,93,94
 247 477 247 477 265 504 c 0,95,96
 286 537 286 537 290 587 c 0,97,98
 290 603 290 603 284.5 621 c 128,-1,99
 279 639 279 639 268.5 653.5 c 128,-1,100
 258 668 258 668 242 678 c 128,-1,101
 226 688 226 688 204 689 c 0,102,103
 174 690 174 690 152 682.5 c 128,-1,104
 130 675 130 675 116 661.5 c 128,-1,105
 102 648 102 648 94 631 c 128,-1,106
 86 614 86 614 84 596 c 0,107,108
 82 582 82 582 84.5 561.5 c 128,-1,109
 87 541 87 541 98 522.5 c 128,-1,110
 109 504 109 504 130 490.5 c 128,-1,111
 151 477 151 477 186 477 c 0,93,94
490 605 m 0,112,113
 489 584 489 584 494.5 565 c 128,-1,114
 500 546 500 546 511 531.5 c 128,-1,115
 522 517 522 517 537 508.5 c 128,-1,116
 552 500 552 500 570 500 c 0,117,118
 595 500 595 500 616 505.5 c 128,-1,119
 637 511 637 511 652 523.5 c 128,-1,120
 667 536 667 536 674.5 557 c 128,-1,121
 682 578 682 578 680 609 c 0,122,123
 678 647 678 647 654.5 674 c 128,-1,124
 631 701 631 701 586 701 c 0,125,126
 562 701 562 701 544.5 693 c 128,-1,127
 527 685 527 685 515.5 671.5 c 128,-1,128
 504 658 504 658 497.5 640.5 c 128,-1,129
 491 623 491 623 490 605 c 0,112,113
EndSplineSet
EndChar
StartChar: uni0E2C
Encoding: 3628 3628 48
Width: 938
Flags: W
Fore
682 73 m 0,0,1
 686 73 686 73 690 102.5 c 128,-1,2
 694 132 694 132 697 183 c 128,-1,3
 700 234 700 234 701.5 303.5 c 128,-1,4
 703 373 703 373 703 453 c 0,5,6
 703 504 703 504 702.5 548 c 128,-1,7
 702 592 702 592 699 648 c 1,8,9
 676 640 676 640 658 635.5 c 128,-1,10
 640 631 640 631 623 633 c 0,11,12
 595 633 595 633 573.5 644 c 128,-1,13
 552 655 552 655 537 673 c 128,-1,14
 522 691 522 691 513.5 713.5 c 128,-1,15
 505 736 505 736 505 760 c 0,16,17
 505 782 505 782 513.5 803 c 128,-1,18
 522 824 522 824 537.5 839.5 c 128,-1,19
 553 855 553 855 575 865 c 128,-1,20
 597 875 597 875 625 876 c 0,21,22
 661 878 661 878 685.5 866.5 c 128,-1,23
 710 855 710 855 724 837 c 0,24,25
 747 806 747 806 753 781 c 1,26,27
 766 792 766 792 776.5 801 c 128,-1,28
 787 810 787 810 795 821 c 1,29,30
 806 831 806 831 819 830 c 128,-1,31
 832 829 832 829 841 821.5 c 128,-1,32
 850 814 850 814 851 802 c 128,-1,33
 852 790 852 790 840 778 c 1,34,-1
 844 782 l 1,35,36
 836 765 836 765 819.5 749.5 c 128,-1,37
 803 734 803 734 785 720 c 2,38,-1
 763 706 l 1,39,-1
 763 474 l 2,40,41
 763 366 763 366 761 280 c 128,-1,42
 759 194 759 194 752 133.5 c 128,-1,43
 745 73 745 73 731.5 40 c 128,-1,44
 718 7 718 7 696 6 c 0,45,46
 668 4 668 4 641 31 c 128,-1,47
 614 58 614 58 588.5 104.5 c 128,-1,48
 563 151 563 151 540 213.5 c 128,-1,49
 517 276 517 276 497 345 c 1,50,51
 481 274 481 274 460 212.5 c 128,-1,52
 439 151 439 151 416 105 c 128,-1,53
 393 59 393 59 370.5 32.5 c 128,-1,54
 348 6 348 6 329 6 c 0,55,56
 309 6 309 6 298.5 22.5 c 128,-1,57
 288 39 288 39 282.5 77.5 c 128,-1,58
 277 116 277 116 276 178 c 128,-1,59
 275 240 275 240 275 331 c 0,60,61
 275 353 275 353 275 370 c 128,-1,62
 275 387 275 387 274.5 404.5 c 128,-1,63
 274 422 274 422 274 442.5 c 128,-1,64
 274 463 274 463 274 493 c 1,65,66
 255 473 255 473 228.5 463 c 128,-1,67
 202 453 202 453 173 453 c 0,68,69
 111 453 111 453 67 497 c 0,70,71
 23 544 23 544 23 606 c 0,72,73
 23 637 23 637 33.5 665 c 128,-1,74
 44 693 44 693 63 713 c 128,-1,75
 82 733 82 733 109 745 c 128,-1,76
 136 757 136 757 169 757 c 0,77,78
 212 757 212 757 242 747.5 c 128,-1,79
 272 738 272 738 291.5 716 c 128,-1,80
 311 694 311 694 321 658 c 128,-1,81
 331 622 331 622 334 570 c 0,82,83
 335 537 335 537 335.5 497 c 128,-1,84
 336 457 336 457 336 415 c 128,-1,85
 336 373 336 373 336.5 332 c 128,-1,86
 337 291 337 291 338 257 c 0,87,88
 339 221 339 221 340.5 185.5 c 128,-1,89
 342 150 342 150 344 123 c 0,90,91
 347 83 347 83 346 80 c 1,92,93
 349 84 349 84 362 118 c 0,94,95
 373 144 373 144 383.5 171.5 c 128,-1,96
 394 199 394 199 403 230 c 0,97,98
 413 259 413 259 422.5 293 c 128,-1,99
 432 327 432 327 440 365 c 0,100,101
 448 399 448 399 454 428.5 c 128,-1,102
 460 458 460 458 462 483 c 1,103,104
 472 507 472 507 495 507 c 0,105,106
 509 507 509 507 515.5 498 c 128,-1,107
 522 489 522 489 527 480 c 1,108,109
 532 451 532 451 538.5 425.5 c 128,-1,110
 545 400 545 400 554 368 c 0,111,112
 565 333 565 333 576.5 298 c 128,-1,113
 588 263 588 263 600 230 c 0,114,115
 612 200 612 200 624.5 170 c 128,-1,116
 637 140 637 140 649 115 c 0,117,118
 672 73 672 73 682 73 c 0,0,1
258 605 m 0,119,120
 258 623 258 623 253 639.5 c 128,-1,121
 248 656 248 656 237.5 668.5 c 128,-1,122
 227 681 227 681 210.5 689 c 128,-1,123
 194 697 194 697 171 697 c 0,124,125
 134 697 134 697 108 674 c 128,-1,126
 82 651 82 651 82 606 c 0,127,128
 82 583 82 583 89.5 565 c 128,-1,129
 97 547 97 547 110 535 c 128,-1,130
 123 523 123 523 139 517 c 128,-1,131
 155 511 155 511 173 511 c 0,132,133
 208 511 208 511 232 537 c 128,-1,134
 256 563 256 563 258 605 c 0,119,120
698 750 m 0,135,136
 698 784 698 784 675 801 c 0,137,138
 652 819 652 819 634 819 c 0,139,140
 604 819 604 819 585 796.5 c 128,-1,141
 566 774 566 774 566 747 c 0,142,143
 566 727 566 727 582 710.5 c 128,-1,144
 598 694 598 694 634 694 c 0,145,146
 642 694 642 694 652.5 699 c 128,-1,147
 663 704 663 704 674 712 c 0,148,149
 698 730 698 730 698 750 c 0,135,136
EndSplineSet
Substitution: 0 65534 'L026' uni0E2C.alt1
Substitution: 0 65534 'L026' uni0E2C.alt1
EndChar
StartChar: uni0E2D
Encoding: 3629 3629 49
Width: 725
Flags: W
Fore
270 412 m 0,0,1
 254 413 254 413 237 408.5 c 128,-1,2
 220 404 220 404 206.5 394 c 128,-1,3
 193 384 193 384 184 369 c 128,-1,4
 175 354 175 354 175 334 c 0,5,6
 177 311 177 311 186.5 294 c 128,-1,7
 196 277 196 277 211 266 c 128,-1,8
 226 255 226 255 244.5 249.5 c 128,-1,9
 263 244 263 244 282 245 c 0,10,11
 319 247 319 247 333.5 266 c 128,-1,12
 348 285 348 285 350 314 c 0,13,14
 352 354 352 354 333.5 382 c 128,-1,15
 315 410 315 410 270 412 c 0,0,1
272 471 m 0,16,17
 310 470 310 470 336.5 455.5 c 128,-1,18
 363 441 363 441 379.5 418.5 c 128,-1,19
 396 396 396 396 403.5 368 c 128,-1,20
 411 340 411 340 410 312 c 0,21,22
 408 255 408 255 375.5 221.5 c 128,-1,23
 343 188 343 188 277 188 c 0,24,25
 236 188 236 188 203 203 c 128,-1,26
 170 218 170 218 153 250 c 1,27,28
 151 236 151 236 150 221 c 128,-1,29
 149 206 149 206 151 192 c 2,30,31
 147 142 147 142 165 114.5 c 128,-1,32
 183 87 183 87 216.5 74 c 128,-1,33
 250 61 250 61 294.5 58.5 c 128,-1,34
 339 56 339 56 388 56 c 0,35,36
 430 56 430 56 458.5 59 c 128,-1,37
 487 62 487 62 505.5 68 c 128,-1,38
 524 74 524 74 535.5 83 c 128,-1,39
 547 92 547 92 554 104 c 0,40,41
 583 157 583 157 583 245 c 0,42,43
 583 330 583 330 575.5 412 c 128,-1,44
 568 494 568 494 542.5 558 c 128,-1,45
 517 622 517 622 469.5 661 c 128,-1,46
 422 700 422 700 342 699 c 0,47,48
 302 699 302 699 269 678.5 c 128,-1,49
 236 658 236 658 210.5 625 c 128,-1,50
 185 592 185 592 168.5 549.5 c 128,-1,51
 152 507 152 507 145 462 c 1,52,53
 141 450 141 450 130.5 445 c 128,-1,54
 120 440 120 440 109 441 c 128,-1,55
 98 442 98 442 90 449 c 128,-1,56
 82 456 82 456 83 469 c 0,57,58
 105 611 105 611 170 685 c 128,-1,59
 235 759 235 759 342 761 c 0,60,61
 430 763 430 763 488 727 c 128,-1,62
 546 691 546 691 580.5 623.5 c 128,-1,63
 615 556 615 556 629.5 459.5 c 128,-1,64
 644 363 644 363 644 245 c 0,65,66
 644 194 644 194 637.5 148.5 c 128,-1,67
 631 103 631 103 610 69 c 128,-1,68
 589 35 589 35 551 15.5 c 128,-1,69
 513 -4 513 -4 450 -4 c 0,70,71
 365 -4 365 -4 298 -0.5 c 128,-1,72
 231 3 231 3 185 22 c 128,-1,73
 139 41 139 41 114.5 81.5 c 128,-1,74
 90 122 90 122 90 197 c 0,75,76
 90 245 90 245 98 294 c 128,-1,77
 106 343 106 343 126.5 382.5 c 128,-1,78
 147 422 147 422 182.5 447 c 128,-1,79
 218 472 218 472 272 471 c 0,16,17
EndSplineSet
EndChar
StartChar: uni0E2E
Encoding: 3630 3630 50
Width: 729
Flags: W
Fore
164 589 m 0,0,1
 178 569 178 569 206 559 c 128,-1,2
 234 549 234 549 269 549 c 0,3,4
 297 549 297 549 326.5 555.5 c 128,-1,5
 356 562 356 562 383.5 575 c 128,-1,6
 411 588 411 588 434.5 607 c 128,-1,7
 458 626 458 626 473 651 c 1,8,9
 460 663 460 663 442.5 672.5 c 128,-1,10
 425 682 425 682 401 693 c 0,11,12
 347 717 347 717 292 717 c 0,13,14
 259 717 259 717 232.5 709.5 c 128,-1,15
 206 702 206 702 188 689 c 128,-1,16
 170 676 170 676 160.5 660 c 128,-1,17
 151 644 151 644 151 627 c 0,18,19
 151 608 151 608 164 589 c 0,0,1
264 412 m 0,20,21
 248 412 248 412 231.5 407.5 c 128,-1,22
 215 403 215 403 202 393.5 c 128,-1,23
 189 384 189 384 180.5 369.5 c 128,-1,24
 172 355 172 355 171 334 c 0,25,26
 175 289 175 289 199.5 265 c 128,-1,27
 224 241 224 241 264 241 c 0,28,29
 300 241 300 241 321.5 263.5 c 128,-1,30
 343 286 343 286 345 315 c 0,31,32
 347 357 347 357 325.5 384.5 c 128,-1,33
 304 412 304 412 264 412 c 0,20,21
560 458 m 0,34,35
 552 501 552 501 538.5 538 c 128,-1,36
 525 575 525 575 505 604 c 1,37,38
 457 541 457 541 397 516 c 128,-1,39
 337 491 337 491 277 490 c 0,40,41
 210 489 210 489 172.5 505 c 128,-1,42
 135 521 135 521 117 543 c 128,-1,43
 99 565 99 565 95 586.5 c 128,-1,44
 91 608 91 608 91 618 c 0,45,46
 91 645 91 645 103.5 673 c 128,-1,47
 116 701 116 701 141.5 724.5 c 128,-1,48
 167 748 167 748 205 763 c 128,-1,49
 243 778 243 778 294 778 c 0,50,51
 319 778 319 778 349 771.5 c 128,-1,52
 379 765 379 765 408 754 c 128,-1,53
 437 743 437 743 463.5 728.5 c 128,-1,54
 490 714 490 714 508 699 c 1,55,56
 515 707 515 707 528 722 c 128,-1,57
 541 737 541 737 554.5 759.5 c 128,-1,58
 568 782 568 782 580 812 c 128,-1,59
 592 842 592 842 598 880 c 0,60,61
 599 888 599 888 608 892 c 128,-1,62
 617 896 617 896 627 893.5 c 128,-1,63
 637 891 637 891 644 882.5 c 128,-1,64
 651 874 651 874 648 856 c 0,65,66
 646 816 646 816 629 776 c 128,-1,67
 612 736 612 736 593 707 c 0,68,69
 583 693 583 693 572 677.5 c 128,-1,70
 561 662 561 662 550 650 c 1,71,72
 576 608 576 608 592.5 560 c 128,-1,73
 609 512 609 512 618.5 460.5 c 128,-1,74
 628 409 628 409 631.5 354.5 c 128,-1,75
 635 300 635 300 635 245 c 0,76,77
 635 195 635 195 627 151 c 128,-1,78
 619 107 619 107 598 74 c 128,-1,79
 577 41 577 41 539.5 21.5 c 128,-1,80
 502 2 502 2 442 0 c 1,81,-1
 443 0 l 1,82,-1
 334 -2 l 2,83,84
 273 -2 273 -2 226.5 5.5 c 128,-1,85
 180 13 180 13 148.5 34.5 c 128,-1,86
 117 56 117 56 101 94.5 c 128,-1,87
 85 133 85 133 85 196 c 0,88,89
 85 287 85 287 104 345.5 c 128,-1,90
 123 404 123 404 157 430 c 0,91,92
 180 447 180 447 208 459 c 128,-1,93
 236 471 236 471 265 469 c 0,94,95
 329 465 329 465 368 416 c 0,96,97
 385 396 385 396 393.5 366.5 c 128,-1,98
 402 337 402 337 402 311 c 0,99,100
 399 286 399 286 389.5 264 c 128,-1,101
 380 242 380 242 363.5 225.5 c 128,-1,102
 347 209 347 209 323 199.5 c 128,-1,103
 299 190 299 190 268 190 c 0,104,105
 227 190 227 190 192.5 204.5 c 128,-1,106
 158 219 158 219 144 256 c 1,107,108
 142 242 142 242 140.5 225.5 c 128,-1,109
 139 209 139 209 141 193 c 2,110,111
 139 148 139 148 154.5 121 c 128,-1,112
 170 94 170 94 197 79.5 c 128,-1,113
 224 65 224 65 260.5 60.5 c 128,-1,114
 297 56 297 56 338 56 c 0,115,116
 366 56 366 56 397 55.5 c 128,-1,117
 428 55 428 55 456.5 58.5 c 128,-1,118
 485 62 485 62 509 72 c 128,-1,119
 533 82 533 82 548 104 c 0,120,121
 577 157 577 157 577 245 c 0,122,123
 577 302 577 302 572.5 354.5 c 128,-1,124
 568 407 568 407 560 458 c 0,34,35
EndSplineSet
EndChar
StartChar: uni0E2F
Encoding: 3631 3631 51
Width: 553
Flags: W
Fore
169 504 m 0,0,1
 160 501 160 501 159.5 499.5 c 128,-1,2
 159 498 159 498 161 498 c 128,-1,3
 163 498 163 498 166 499 c 128,-1,4
 169 500 169 500 168 502 c 1,5,6
 204 489 204 489 254 492 c 0,7,8
 286 494 286 494 314.5 502.5 c 128,-1,9
 343 511 343 511 364 533.5 c 128,-1,10
 385 556 385 556 397.5 596.5 c 128,-1,11
 410 637 410 637 410 703 c 0,12,13
 408 720 408 720 418.5 730.5 c 128,-1,14
 429 741 429 741 443 741 c 0,15,16
 454 741 454 741 464.5 733 c 128,-1,17
 475 725 475 725 475 708 c 2,18,-1
 467 30 l 2,19,20
 466 19 466 19 458.5 10 c 128,-1,21
 451 1 451 1 435 3 c 0,22,23
 420 4 420 4 412 12 c 128,-1,24
 404 20 404 20 404 32 c 2,25,-1
 406 473 l 1,26,27
 380 450 380 450 342.5 439.5 c 128,-1,28
 305 429 305 429 251 427 c 0,29,30
 199 426 199 426 154 435.5 c 128,-1,31
 109 445 109 445 76 468 c 128,-1,32
 43 491 43 491 25 529.5 c 128,-1,33
 7 568 7 568 10 624 c 0,34,35
 11 647 11 647 20.5 668 c 128,-1,36
 30 689 30 689 46 705.5 c 128,-1,37
 62 722 62 722 82 731.5 c 128,-1,38
 102 741 102 741 124 742 c 0,39,40
 151 744 151 744 175.5 736.5 c 128,-1,41
 200 729 200 729 218.5 714 c 128,-1,42
 237 699 237 699 248.5 677 c 128,-1,43
 260 655 260 655 261 627 c 0,44,45
 263 582 263 582 238.5 551 c 128,-1,46
 214 520 214 520 169 504 c 0,0,1
120 685 m 2,47,48
 100 683 100 683 82.5 668 c 128,-1,49
 65 653 65 653 65 624 c 0,50,51
 65 603 65 603 71.5 589.5 c 128,-1,52
 78 576 78 576 87 569 c 128,-1,53
 96 562 96 562 106.5 559.5 c 128,-1,54
 117 557 117 557 125 557 c 0,55,56
 165 555 165 555 184.5 576.5 c 128,-1,57
 204 598 204 598 202 623 c 0,58,59
 200 657 200 657 176.5 673 c 128,-1,60
 153 689 153 689 121 685 c 2,61,-1
 120 685 l 2,47,48
EndSplineSet
EndChar
StartChar: uni0E30
Encoding: 3632 3632 52
Width: 539
Flags: W
Fore
151 631 m 0,0,1
 133 631 133 631 116.5 621.5 c 128,-1,2
 100 612 100 612 97 588 c 0,3,4
 97 571 97 571 105 562 c 128,-1,5
 113 553 113 553 122.5 549 c 128,-1,6
 132 545 132 545 140.5 544.5 c 128,-1,7
 149 544 149 544 151 544 c 0,8,9
 173 544 173 544 185.5 561 c 128,-1,10
 198 578 198 578 196 594 c 0,11,12
 194 608 194 608 180.5 619.5 c 128,-1,13
 167 631 167 631 151 631 c 0,0,1
151 497 m 0,14,15
 146 497 146 497 140 497 c 128,-1,16
 134 497 134 497 128 498 c 1,17,18
 144 474 144 474 167.5 468.5 c 128,-1,19
 191 463 191 463 218 463 c 256,20,21
 245 463 245 463 271 475 c 128,-1,22
 297 487 297 487 317 509.5 c 128,-1,23
 337 532 337 532 347.5 565 c 128,-1,24
 358 598 358 598 354 641 c 0,25,26
 354 652 354 652 362.5 660 c 128,-1,27
 371 668 371 668 383 668 c 0,28,29
 397 668 397 668 406 660.5 c 128,-1,30
 415 653 415 653 415 642 c 0,31,32
 417 580 417 580 399.5 536.5 c 128,-1,33
 382 493 382 493 353.5 464.5 c 128,-1,34
 325 436 325 436 289 422.5 c 128,-1,35
 253 409 253 409 218 408 c 0,36,37
 173 407 173 407 143 417 c 128,-1,38
 113 427 113 427 93.5 444 c 128,-1,39
 74 461 74 461 64 482.5 c 128,-1,40
 54 504 54 504 49.5 525.5 c 128,-1,41
 45 547 45 547 45 566.5 c 128,-1,42
 45 586 45 586 46 599 c 0,43,44
 50 628 50 628 63 645 c 128,-1,45
 76 662 76 662 92.5 671 c 128,-1,46
 109 680 109 680 125 682.5 c 128,-1,47
 141 685 141 685 151 685 c 0,48,49
 170 686 170 686 187 679 c 128,-1,50
 204 672 204 672 216.5 659.5 c 128,-1,51
 229 647 229 647 236.5 631 c 128,-1,52
 244 615 244 615 246 598 c 0,53,54
 248 579 248 579 244 561.5 c 128,-1,55
 240 544 240 544 228.5 529.5 c 128,-1,56
 217 515 217 515 198 506.5 c 128,-1,57
 179 498 179 498 151 497 c 0,14,15
151 278 m 0,58,59
 133 278 133 278 116.5 268.5 c 128,-1,60
 100 259 100 259 97 235 c 0,61,62
 97 218 97 218 105 209 c 128,-1,63
 113 200 113 200 122.5 196 c 128,-1,64
 132 192 132 192 140.5 191.5 c 128,-1,65
 149 191 149 191 151 191 c 0,66,67
 173 191 173 191 185.5 208 c 128,-1,68
 198 225 198 225 196 241 c 0,69,70
 194 255 194 255 180.5 266.5 c 128,-1,71
 167 278 167 278 151 278 c 0,58,59
151 144 m 0,72,73
 146 144 146 144 140 144 c 128,-1,74
 134 144 134 144 128 145 c 1,75,76
 144 121 144 121 167.5 115.5 c 128,-1,77
 191 110 191 110 218 110 c 256,78,79
 245 110 245 110 271 122 c 128,-1,80
 297 134 297 134 317 156.5 c 128,-1,81
 337 179 337 179 347.5 212 c 128,-1,82
 358 245 358 245 354 288 c 0,83,84
 354 299 354 299 362.5 307 c 128,-1,85
 371 315 371 315 383 315 c 0,86,87
 397 315 397 315 406 307.5 c 128,-1,88
 415 300 415 300 415 289 c 0,89,90
 417 227 417 227 399.5 183.5 c 128,-1,91
 382 140 382 140 353.5 111.5 c 128,-1,92
 325 83 325 83 289 69.5 c 128,-1,93
 253 56 253 56 218 55 c 0,94,95
 173 54 173 54 143 64 c 128,-1,96
 113 74 113 74 93.5 91 c 128,-1,97
 74 108 74 108 64 129.5 c 128,-1,98
 54 151 54 151 49.5 172.5 c 128,-1,99
 45 194 45 194 45 213.5 c 128,-1,100
 45 233 45 233 46 246 c 0,101,102
 54 289 54 289 84.5 310 c 128,-1,103
 115 331 115 331 149.5 330.5 c 128,-1,104
 184 330 184 330 212.5 308.5 c 128,-1,105
 241 287 241 287 246 245 c 0,106,107
 248 226 248 226 244 208.5 c 128,-1,108
 240 191 240 191 228.5 176.5 c 128,-1,109
 217 162 217 162 198 153.5 c 128,-1,110
 179 145 179 145 151 144 c 0,72,73
EndSplineSet
EndChar
StartChar: uni0E31
Encoding: 3633 3633 53
Width: 0
Flags: W
Fore
-334 910 m 1,0,1
 -305 902 -305 902 -275 901.5 c 128,-1,2
 -245 901 -245 901 -213 906 c 256,3,4
 -181 911 -181 911 -152 922 c 128,-1,5
 -123 933 -123 933 -101 955 c 128,-1,6
 -79 977 -79 977 -66 1011 c 128,-1,7
 -53 1045 -53 1045 -53 1095 c 0,8,9
 -53 1118 -53 1118 -56 1145 c 1,10,11
 -61 1163 -61 1163 -49.5 1174.5 c 128,-1,12
 -38 1186 -38 1186 -23 1186 c 0,13,14
 -12 1186 -12 1186 -2 1178.5 c 128,-1,15
 8 1171 8 1171 10 1155 c 0,16,17
 19 1093 19 1093 11.5 1040 c 128,-1,18
 4 987 4 987 -21.5 946.5 c 128,-1,19
 -47 906 -47 906 -92.5 880 c 128,-1,20
 -138 854 -138 854 -205 845 c 0,21,22
 -231 842 -231 842 -257 842 c 0,23,24
 -300 842 -300 842 -341.5 851 c 128,-1,25
 -383 860 -383 860 -417 880 c 128,-1,26
 -451 900 -451 900 -473.5 933 c 128,-1,27
 -496 966 -496 966 -501 1013 c 0,28,29
 -504 1037 -504 1037 -497 1059.5 c 128,-1,30
 -490 1082 -490 1082 -476.5 1099.5 c 128,-1,31
 -463 1117 -463 1117 -443.5 1129 c 128,-1,32
 -424 1141 -424 1141 -401 1146 c 0,33,34
 -377 1151 -377 1151 -352 1145.5 c 128,-1,35
 -327 1140 -327 1140 -305.5 1126.5 c 128,-1,36
 -284 1113 -284 1113 -270 1092 c 128,-1,37
 -256 1071 -256 1071 -254 1044 c 0,38,39
 -249 1004 -249 1004 -268 968 c 128,-1,40
 -287 932 -287 932 -334 910 c 1,0,1
-402 1087 m 0,41,42
 -422 1082 -422 1082 -434 1064.5 c 128,-1,43
 -446 1047 -446 1047 -444 1020 c 0,44,45
 -443 997 -443 997 -435.5 984 c 128,-1,46
 -428 971 -428 971 -418 964.5 c 128,-1,47
 -408 958 -408 958 -397.5 957 c 128,-1,48
 -387 956 -387 956 -380 956 c 0,49,50
 -345 958 -345 958 -327 982 c 128,-1,51
 -309 1006 -309 1006 -313 1036 c 0,52,53
 -317 1068 -317 1068 -342.5 1081.5 c 128,-1,54
 -368 1095 -368 1095 -402 1087 c 0,41,42
EndSplineSet
Substitution: 0 65534 'L026' uni0E31.alt1
Substitution: 0 65534 'L026' uni0E31.alt1
EndChar
StartChar: uni0E32
Encoding: 3634 3634 54
Width: 565
Flags: W
Fore
57 532 m 0,0,1
 59 580 59 580 72 618 c 128,-1,2
 85 656 85 656 109.5 683 c 128,-1,3
 134 710 134 710 171.5 724 c 128,-1,4
 209 738 209 738 261 738 c 0,5,6
 343 738 343 738 388.5 709.5 c 128,-1,7
 434 681 434 681 456 633 c 128,-1,8
 478 585 478 585 482.5 521 c 128,-1,9
 487 457 487 457 487 385 c 2,10,-1
 487 336 l 1,11,-1
 481 41 l 2,12,13
 481 27 481 27 474 21 c 128,-1,14
 467 15 467 15 453 13 c 0,15,16
 424 10 424 10 424 41 c 0,17,18
 424 95 424 95 424 128.5 c 128,-1,19
 424 162 424 162 425 189 c 0,20,21
 425 207 425 207 425.5 235 c 128,-1,22
 426 263 426 263 426 287 c 0,23,24
 428 317 428 317 429 349 c 128,-1,25
 430 381 430 381 431 416 c 0,26,27
 433 488 433 488 418 545 c 0,28,29
 411 573 411 573 399.5 597.5 c 128,-1,30
 388 622 388 622 370 640 c 128,-1,31
 352 658 352 658 326.5 668.5 c 128,-1,32
 301 679 301 679 265 679 c 0,33,34
 226 678 226 678 199 668.5 c 128,-1,35
 172 659 172 659 154.5 640.5 c 128,-1,36
 137 622 137 622 127 593.5 c 128,-1,37
 117 565 117 565 112 526 c 1,38,39
 110 520 110 520 107.5 515.5 c 128,-1,40
 105 511 105 511 100 509 c 0,41,42
 89 503 89 503 81 503 c 0,43,44
 77 503 77 503 67 508.5 c 128,-1,45
 57 514 57 514 57 532 c 0,0,1
EndSplineSet
EndChar
StartChar: uni0E33
Encoding: 3635 3635 55
Width: 551
Flags: W
Fore
-132 1064 m 0,0,1
 -107 1064 -107 1064 -84.5 1054.5 c 128,-1,2
 -62 1045 -62 1045 -46 1029 c 128,-1,3
 -30 1013 -30 1013 -20.5 990.5 c 128,-1,4
 -11 968 -11 968 -11 943 c 0,5,6
 -11 916 -11 916 -20.5 894 c 128,-1,7
 -30 872 -30 872 -46 855.5 c 128,-1,8
 -62 839 -62 839 -84.5 830 c 128,-1,9
 -107 821 -107 821 -132 821 c 0,10,11
 -158 821 -158 821 -180.5 830 c 128,-1,12
 -203 839 -203 839 -219.5 855.5 c 128,-1,13
 -236 872 -236 872 -245.5 894 c 128,-1,14
 -255 916 -255 916 -255 943 c 0,15,16
 -255 968 -255 968 -245.5 990.5 c 128,-1,17
 -236 1013 -236 1013 -219.5 1029 c 128,-1,18
 -203 1045 -203 1045 -180.5 1054.5 c 128,-1,19
 -158 1064 -158 1064 -132 1064 c 0,0,1
-136 1005 m 0,20,21
 -165 1004 -165 1004 -180.5 985.5 c 128,-1,22
 -196 967 -196 967 -196 943 c 0,23,24
 -196 915 -196 915 -178.5 896.5 c 128,-1,25
 -161 878 -161 878 -132 878 c 0,26,27
 -105 878 -105 878 -87 896.5 c 128,-1,28
 -69 915 -69 915 -69 943 c 0,29,30
 -69 969 -69 969 -86.5 987 c 128,-1,31
 -104 1005 -104 1005 -136 1005 c 0,20,21
54 532 m 0,32,33
 58 628 58 628 106 683 c 128,-1,34
 154 738 154 738 258 738 c 0,35,36
 340 738 340 738 385.5 709.5 c 128,-1,37
 431 681 431 681 453 633 c 128,-1,38
 475 585 475 585 479.5 521 c 128,-1,39
 484 457 484 457 484 385 c 2,40,-1
 484 336 l 1,41,-1
 478 41 l 2,42,43
 478 27 478 27 471 21 c 128,-1,44
 464 15 464 15 450 13 c 0,45,46
 421 10 421 10 421 41 c 0,47,48
 421 95 421 95 421 128.5 c 128,-1,49
 421 162 421 162 422 189 c 0,50,51
 422 207 422 207 422.5 235 c 128,-1,52
 423 263 423 263 423 287 c 0,53,54
 425 317 425 317 426 349 c 128,-1,55
 427 381 427 381 428 416 c 0,56,57
 430 490 430 490 415 545 c 0,58,59
 408 573 408 573 396.5 597.5 c 128,-1,60
 385 622 385 622 367 640 c 128,-1,61
 349 658 349 658 323.5 668.5 c 128,-1,62
 298 679 298 679 262 679 c 0,63,64
 223 678 223 678 196 668.5 c 128,-1,65
 169 659 169 659 151.5 640.5 c 128,-1,66
 134 622 134 622 124 593.5 c 128,-1,67
 114 565 114 565 109 526 c 1,68,69
 107 520 107 520 104.5 515.5 c 128,-1,70
 102 511 102 511 97 509 c 0,71,72
 86 503 86 503 78 503 c 0,73,74
 74 503 74 503 64 508.5 c 128,-1,75
 54 514 54 514 54 532 c 0,32,33
EndSplineSet
Substitution: 0 65534 'L026' uni0E33.alt1
Substitution: 0 65534 'L026' uni0E33.alt1
EndChar
StartChar: uni0E34
Encoding: 3636 3636 56
Width: 0
Flags: W
Fore
-392 1106 m 0,0,1
 -311 1106 -311 1106 -231 1053 c 0,2,3
 -192 1026 -192 1026 -159.5 995.5 c 128,-1,4
 -127 965 -127 965 -102 929 c 1,5,-1
 -103 929 l 1,6,7
 -89 912 -89 912 -83.5 898.5 c 128,-1,8
 -78 885 -78 885 -78 876 c 0,9,10
 -78 854 -78 854 -92.5 846.5 c 128,-1,11
 -107 839 -107 839 -122 839 c 0,12,13
 -148 838 -148 838 -179 836 c 128,-1,14
 -210 834 -210 834 -244 831 c 0,15,16
 -295 827 -295 827 -347.5 823.5 c 128,-1,17
 -400 820 -400 820 -448 820 c 0,18,19
 -489 820 -489 820 -523 823.5 c 128,-1,20
 -557 827 -557 827 -582.5 835.5 c 128,-1,21
 -608 844 -608 844 -622.5 858.5 c 128,-1,22
 -637 873 -637 873 -638 894 c 0,23,24
 -640 932 -640 932 -618 970 c 128,-1,25
 -596 1008 -596 1008 -560 1038 c 128,-1,26
 -524 1068 -524 1068 -479.5 1087 c 128,-1,27
 -435 1106 -435 1106 -392 1106 c 0,0,1
-144 892 m 0,28,29
 -149 901 -149 901 -171 929 c 128,-1,30
 -193 957 -193 957 -227 987 c 128,-1,31
 -261 1017 -261 1017 -305 1038.5 c 128,-1,32
 -349 1060 -349 1060 -397 1056 c 0,33,34
 -430 1054 -430 1054 -464 1039.5 c 128,-1,35
 -498 1025 -498 1025 -525 1002.5 c 128,-1,36
 -552 980 -552 980 -569.5 953 c 128,-1,37
 -587 926 -587 926 -587 899 c 0,38,39
 -587 892 -587 892 -574 887.5 c 128,-1,40
 -561 883 -561 883 -538 880 c 128,-1,41
 -515 877 -515 877 -484 875.5 c 128,-1,42
 -453 874 -453 874 -416 874 c 0,43,44
 -395 874 -395 874 -366.5 875 c 128,-1,45
 -338 876 -338 876 -307.5 877 c 128,-1,46
 -277 878 -277 878 -247 880 c 128,-1,47
 -217 882 -217 882 -194 884 c 128,-1,48
 -171 886 -171 886 -157 888 c 128,-1,49
 -143 890 -143 890 -144 892 c 0,28,29
EndSplineSet
Substitution: 0 65534 'L026' uni0E34.alt1
Substitution: 0 65534 'L026' uni0E34.alt1
EndChar
StartChar: uni0E35
Encoding: 3637 3637 57
Width: 0
Flags: W
Fore
-420 1110 m 0,0,1
 -384 1110 -384 1110 -347 1098 c 128,-1,2
 -310 1086 -310 1086 -276 1066.5 c 128,-1,3
 -242 1047 -242 1047 -211.5 1020.5 c 128,-1,4
 -181 994 -181 994 -158 966 c 1,5,6
 -160 1010 -160 1010 -161 1054.5 c 128,-1,7
 -162 1099 -162 1099 -166 1153 c 0,8,9
 -167 1178 -167 1178 -139 1178 c 0,10,11
 -115 1178 -115 1178 -112 1154 c 0,12,13
 -111 1087 -111 1087 -106 1009 c 0,14,15
 -104 974 -104 974 -101.5 943 c 128,-1,16
 -99 912 -99 912 -95 889 c 0,17,18
 -92 867 -92 867 -108 854.5 c 128,-1,19
 -124 842 -124 842 -151 843 c 0,20,21
 -183 844 -183 844 -223 841 c 128,-1,22
 -263 838 -263 838 -305 834 c 0,23,24
 -353 830 -353 830 -399 827 c 128,-1,25
 -445 824 -445 824 -488 824 c 0,26,27
 -525 824 -525 824 -556.5 827.5 c 128,-1,28
 -588 831 -588 831 -612 839.5 c 128,-1,29
 -636 848 -636 848 -650.5 862.5 c 128,-1,30
 -665 877 -665 877 -667 898 c 0,31,32
 -669 936 -669 936 -647 974 c 128,-1,33
 -625 1012 -625 1012 -589 1042 c 128,-1,34
 -553 1072 -553 1072 -508.5 1091 c 128,-1,35
 -464 1110 -464 1110 -420 1110 c 0,0,1
-168 891 m 1,36,37
 -182 923 -182 923 -206.5 953 c 128,-1,38
 -231 983 -231 983 -263.5 1006.5 c 128,-1,39
 -296 1030 -296 1030 -335.5 1044.5 c 128,-1,40
 -375 1059 -375 1059 -419 1060 c 0,41,42
 -458 1058 -458 1058 -493.5 1043 c 128,-1,43
 -529 1028 -529 1028 -556 1005.5 c 128,-1,44
 -583 983 -583 983 -599 956 c 128,-1,45
 -615 929 -615 929 -615 903 c 0,46,47
 -615 897 -615 897 -602 892.5 c 128,-1,48
 -589 888 -589 888 -566 885 c 128,-1,49
 -543 882 -543 882 -512 880.5 c 128,-1,50
 -481 879 -481 879 -444 879 c 0,51,52
 -381 879 -381 879 -308 881 c 128,-1,53
 -235 883 -235 883 -168 891 c 1,36,37
EndSplineSet
Substitution: 0 65534 'L026' uni0E35.alt1
Substitution: 0 65534 'L026' uni0E35.alt1
EndChar
StartChar: uni0E36
Encoding: 3638 3638 58
Width: 0
Flags: W
Fore
-165 1162 m 0,0,1
 -117 1162 -117 1162 -88.5 1131.5 c 128,-1,2
 -60 1101 -60 1101 -60 1047 c 0,3,4
 -60 999 -60 999 -85 967.5 c 128,-1,5
 -110 936 -110 936 -152 931 c 1,6,7
 -142 917 -142 917 -134.5 900.5 c 128,-1,8
 -127 884 -127 884 -127 872 c 0,9,10
 -127 841 -127 841 -171 839 c 0,11,12
 -201 836 -201 836 -238 832.5 c 128,-1,13
 -275 829 -275 829 -315 826 c 128,-1,14
 -355 823 -355 823 -396 821 c 128,-1,15
 -437 819 -437 819 -476 819 c 0,16,17
 -520 819 -520 819 -558.5 822.5 c 128,-1,18
 -597 826 -597 826 -626 835 c 128,-1,19
 -655 844 -655 844 -671.5 858.5 c 128,-1,20
 -688 873 -688 873 -688 895 c 0,21,22
 -688 934 -688 934 -665.5 972 c 128,-1,23
 -643 1010 -643 1010 -608 1040 c 128,-1,24
 -573 1070 -573 1070 -529 1089 c 128,-1,25
 -485 1108 -485 1108 -443 1108 c 0,26,27
 -389 1106 -389 1106 -346.5 1090.5 c 128,-1,28
 -304 1075 -304 1075 -269 1051 c 1,29,30
 -267 1102 -267 1102 -238.5 1132 c 128,-1,31
 -210 1162 -210 1162 -165 1162 c 0,0,1
-202 910 m 1,32,-1
 -202 909 l 1,33,34
 -225 933 -225 933 -250.5 958 c 128,-1,35
 -276 983 -276 983 -305.5 1003.5 c 128,-1,36
 -335 1024 -335 1024 -368.5 1038.5 c 128,-1,37
 -402 1053 -402 1053 -441 1056 c 0,38,39
 -472 1055 -472 1055 -506 1041.5 c 128,-1,40
 -540 1028 -540 1028 -568.5 1006 c 128,-1,41
 -597 984 -597 984 -616.5 955 c 128,-1,42
 -636 926 -636 926 -638 894 c 0,43,44
 -638 881 -638 881 -594 876 c 128,-1,45
 -550 871 -550 871 -481 871 c 256,46,47
 -412 871 -412 871 -333 877 c 128,-1,48
 -254 883 -254 883 -182 888 c 1,49,-1
 -188 894 l 1,50,-1
 -202 910 l 1,32,-1
-160 1105 m 0,51,52
 -188 1105 -188 1105 -200.5 1086 c 128,-1,53
 -213 1067 -213 1067 -213 1045 c 0,54,55
 -213 1022 -213 1022 -201 1004.5 c 128,-1,56
 -189 987 -189 987 -165 986 c 256,57,58
 -141 985 -141 985 -126.5 1004 c 128,-1,59
 -112 1023 -112 1023 -112 1046 c 256,60,61
 -112 1069 -112 1069 -124.5 1086 c 128,-1,62
 -137 1103 -137 1103 -160 1105 c 0,51,52
EndSplineSet
Substitution: 0 65534 'L026' uni0E36.alt1
Substitution: 0 65534 'L026' uni0E36.alt1
EndChar
StartChar: uni0E37
Encoding: 3639 3639 59
Width: 0
Flags: W
Fore
-213 1027 m 1,0,-1
 -154 958 l 1,1,2
 -156 1002 -156 1002 -157.5 1050 c 128,-1,3
 -159 1098 -159 1098 -161 1153 c 0,4,5
 -161 1165 -161 1165 -153.5 1171 c 128,-1,6
 -146 1177 -146 1177 -136.5 1177.5 c 128,-1,7
 -127 1178 -127 1178 -118.5 1173 c 128,-1,8
 -110 1168 -110 1168 -110 1156 c 2,9,-1
 -102 1009 l 2,10,11
 -100 971 -100 971 -98.5 944 c 128,-1,12
 -97 917 -97 917 -95 894 c 0,13,14
 -95 877 -95 877 -108.5 861 c 128,-1,15
 -122 845 -122 845 -146 843 c 0,16,17
 -205 840 -205 840 -281 834 c 0,18,19
 -329 830 -329 830 -378.5 827 c 128,-1,20
 -428 824 -428 824 -474 824 c 0,21,22
 -513 824 -513 824 -546.5 827.5 c 128,-1,23
 -580 831 -580 831 -605.5 839 c 128,-1,24
 -631 847 -631 847 -646 861.5 c 128,-1,25
 -661 876 -661 876 -663 898 c 0,26,27
 -665 936 -665 936 -643 973.5 c 128,-1,28
 -621 1011 -621 1011 -585 1041.5 c 128,-1,29
 -549 1072 -549 1072 -504.5 1091 c 128,-1,30
 -460 1110 -460 1110 -416 1110 c 0,31,32
 -379 1110 -379 1110 -352.5 1104 c 128,-1,33
 -326 1098 -326 1098 -308.5 1089.5 c 128,-1,34
 -291 1081 -291 1081 -281 1073 c 128,-1,35
 -271 1065 -271 1065 -266 1062 c 1,36,-1
 -273 1174 l 2,37,38
 -274 1187 -274 1187 -266.5 1195 c 128,-1,39
 -259 1203 -259 1203 -249 1204.5 c 128,-1,40
 -239 1206 -239 1206 -230 1200 c 128,-1,41
 -221 1194 -221 1194 -219 1179 c 2,42,-1
 -213 1027 l 1,0,-1
-171 896 m 1,43,44
 -185 921 -185 921 -207 949.5 c 128,-1,45
 -229 978 -229 978 -259.5 1002 c 128,-1,46
 -290 1026 -290 1026 -329 1042.5 c 128,-1,47
 -368 1059 -368 1059 -415 1060 c 0,48,49
 -453 1060 -453 1060 -488.5 1045.5 c 128,-1,50
 -524 1031 -524 1031 -551 1008 c 128,-1,51
 -578 985 -578 985 -595 957 c 128,-1,52
 -612 929 -612 929 -613 903 c 0,53,54
 -613 897 -613 897 -598.5 892 c 128,-1,55
 -584 887 -584 887 -559.5 884 c 128,-1,56
 -535 881 -535 881 -502 879.5 c 128,-1,57
 -469 878 -469 878 -431 878 c 0,58,59
 -370 878 -370 878 -302.5 883 c 128,-1,60
 -235 888 -235 888 -171 896 c 1,43,44
EndSplineSet
Substitution: 0 65534 'L026' uni0E37.alt1
Substitution: 0 65534 'L026' uni0E37.alt1
EndChar
StartChar: uni0E38
Encoding: 3640 3640 60
Width: 0
Flags: W
Fore
-131 -171 m 0,0,1
 -131 -150 -131 -150 -137.5 -136.5 c 128,-1,2
 -144 -123 -144 -123 -153.5 -114.5 c 128,-1,3
 -163 -106 -163 -106 -173.5 -102.5 c 128,-1,4
 -184 -99 -184 -99 -193 -99 c 0,5,6
 -229 -100 -229 -100 -244.5 -114.5 c 128,-1,7
 -260 -129 -260 -129 -262 -155 c 1,8,-1
 -262 -154 l 1,9,10
 -264 -183 -264 -183 -250.5 -204.5 c 128,-1,11
 -237 -226 -237 -226 -198 -226 c 0,12,13
 -167 -226 -167 -226 -150.5 -210.5 c 128,-1,14
 -134 -195 -134 -195 -131 -171 c 0,0,1
-127 -328 m 2,15,16
 -127 -311 -127 -311 -126.5 -294 c 128,-1,17
 -126 -277 -126 -277 -127 -260 c 1,18,19
 -141 -270 -141 -270 -156.5 -273.5 c 128,-1,20
 -172 -277 -172 -277 -198 -278 c 0,21,22
 -238 -280 -238 -280 -261.5 -265.5 c 128,-1,23
 -285 -251 -285 -251 -297.5 -230.5 c 128,-1,24
 -310 -210 -310 -210 -313.5 -187.5 c 128,-1,25
 -317 -165 -317 -165 -316 -151 c 0,26,27
 -315 -127 -315 -127 -304.5 -107.5 c 128,-1,28
 -294 -88 -294 -88 -277 -74.5 c 128,-1,29
 -260 -61 -260 -61 -238.5 -54 c 128,-1,30
 -217 -47 -217 -47 -193 -47 c 0,31,32
 -130 -48 -130 -48 -101 -86 c 128,-1,33
 -72 -124 -72 -124 -72 -183 c 0,34,35
 -72 -239 -72 -239 -71 -297.5 c 128,-1,36
 -70 -356 -70 -356 -72 -405 c 0,37,38
 -72 -420 -72 -420 -79.5 -429.5 c 128,-1,39
 -87 -439 -87 -439 -101 -437 c 1,40,41
 -117 -439 -117 -439 -122 -429.5 c 128,-1,42
 -127 -420 -127 -420 -127 -404 c 2,43,-1
 -127 -349 l 1,44,-1
 -127 -328 l 2,15,16
EndSplineSet
Substitution: 0 65534 'L027' a
Substitution: 0 65534 'L026' uni0E38.alt1
Substitution: 0 65534 'L027' a
Substitution: 0 65534 'L026' uni0E38.alt1
EndChar
StartChar: uni0E39
Encoding: 3641 3641 61
Width: 0
Flags: W
Fore
-97 -79 m 0,0,1
 -97 -101 -97 -101 -97.5 -121.5 c 128,-1,2
 -98 -142 -98 -142 -98 -160 c 0,3,4
 -98 -186 -98 -186 -97.5 -208.5 c 128,-1,5
 -97 -231 -97 -231 -96 -251 c 2,6,-1
 -92 -380 l 2,7,8
 -93 -402 -93 -402 -105 -408 c 128,-1,9
 -117 -414 -117 -414 -133 -414 c 2,10,-1
 -265 -418 l 2,11,12
 -283 -420 -283 -420 -292.5 -408.5 c 128,-1,13
 -302 -397 -302 -397 -301 -377 c 0,14,15
 -299 -352 -299 -352 -297.5 -321.5 c 128,-1,16
 -296 -291 -296 -291 -296 -256 c 1,17,18
 -315 -264 -315 -264 -327.5 -268 c 128,-1,19
 -340 -272 -340 -272 -365 -272 c 0,20,21
 -409 -272 -409 -272 -433 -256.5 c 128,-1,22
 -457 -241 -457 -241 -468.5 -220 c 128,-1,23
 -480 -199 -480 -199 -482 -178 c 128,-1,24
 -484 -157 -484 -157 -483 -145 c 0,25,26
 -478 -97 -478 -97 -444.5 -68 c 128,-1,27
 -411 -39 -411 -39 -360 -41 c 0,28,29
 -289 -44 -289 -44 -261.5 -88.5 c 128,-1,30
 -234 -133 -234 -133 -237 -220 c 0,31,32
 -237 -243 -237 -243 -237.5 -258.5 c 128,-1,33
 -238 -274 -238 -274 -238 -288.5 c 128,-1,34
 -238 -303 -238 -303 -238.5 -319.5 c 128,-1,35
 -239 -336 -239 -336 -239 -360 c 1,36,37
 -214 -359 -214 -359 -195.5 -360 c 128,-1,38
 -177 -361 -177 -361 -150 -360 c 1,39,40
 -151 -343 -151 -343 -151.5 -323 c 128,-1,41
 -152 -303 -152 -303 -152 -284 c 0,42,43
 -154 -252 -154 -252 -154 -212 c 128,-1,44
 -154 -172 -154 -172 -154 -127 c 2,45,-1
 -154 -77 l 2,46,47
 -154 -54 -154 -54 -125 -54 c 0,48,49
 -97 -54 -97 -54 -97 -79 c 0,0,1
-298 -165 m 0,50,51
 -298 -144 -298 -144 -304.5 -130.5 c 128,-1,52
 -311 -117 -311 -117 -320.5 -108.5 c 128,-1,53
 -330 -100 -330 -100 -340.5 -97 c 128,-1,54
 -351 -94 -351 -94 -360 -94 c 0,55,56
 -396 -94 -396 -94 -409 -108.5 c 128,-1,57
 -422 -123 -422 -123 -429 -149 c 1,58,-1
 -429 -148 l 1,59,60
 -431 -175 -431 -175 -417.5 -197.5 c 128,-1,61
 -404 -220 -404 -220 -365 -220 c 0,62,63
 -334 -220 -334 -220 -317.5 -204.5 c 128,-1,64
 -301 -189 -301 -189 -298 -165 c 0,50,51
EndSplineSet
Substitution: 0 65534 'L027' b
Substitution: 0 65534 'L026' uni0E39.alt1
Substitution: 0 65534 'L027' b
Substitution: 0 65534 'L026' uni0E39.alt1
EndChar
StartChar: uni0E3A
Encoding: 3642 3642 62
Width: 0
Flags: W
Fore
-50 -113 m 256,0,1
 -50 -145 -50 -145 -70.5 -165 c 128,-1,2
 -91 -185 -91 -185 -123 -185 c 256,3,4
 -155 -185 -155 -185 -174.5 -165 c 128,-1,5
 -194 -145 -194 -145 -194 -113 c 256,6,7
 -194 -81 -194 -81 -174.5 -62 c 128,-1,8
 -155 -43 -155 -43 -123 -43 c 256,9,10
 -91 -43 -91 -43 -70.5 -62 c 128,-1,11
 -50 -81 -50 -81 -50 -113 c 256,0,1
EndSplineSet
Substitution: 0 65534 'L027' c
Substitution: 0 65534 'L026' uni0E3A.alt1
Substitution: 0 65534 'L027' c
Substitution: 0 65534 'L026' uni0E3A.alt1
EndChar
StartChar: uni0E3F
Encoding: 3647 3647 63
Width: 733
Flags: W
Fore
88 32 m 1,0,1
 71 35 71 35 63.5 44.5 c 128,-1,2
 56 54 56 54 56.5 65 c 128,-1,3
 57 76 57 76 65 85.5 c 128,-1,4
 73 95 73 95 87 98 c 1,5,-1
 115 98 l 1,6,7
 123 198 123 198 127.5 300.5 c 128,-1,8
 132 403 132 403 132 503 c 0,9,10
 132 563 132 563 131 614.5 c 128,-1,11
 130 666 130 666 128 723 c 1,12,13
 110 719 110 719 99 727 c 128,-1,14
 88 735 88 735 86 747 c 128,-1,15
 84 759 84 759 94 772 c 128,-1,16
 104 785 104 785 128 791 c 1,17,-1
 127 791 l 1,18,19
 205 824 205 824 295 830 c 2,20,-1
 337 832 l 1,21,22
 338 858 338 858 338.5 879.5 c 128,-1,23
 339 901 339 901 339 922 c 0,24,25
 339 937 339 937 349.5 944.5 c 128,-1,26
 360 952 360 952 373 952 c 128,-1,27
 386 952 386 952 396 944.5 c 128,-1,28
 406 937 406 937 406 922 c 2,29,-1
 404 829 l 1,30,31
 452 825 452 825 496 809.5 c 128,-1,32
 540 794 540 794 574 766 c 128,-1,33
 608 738 608 738 628 698 c 128,-1,34
 648 658 648 658 648 606 c 0,35,36
 648 577 648 577 636.5 549 c 128,-1,37
 625 521 625 521 605 496 c 128,-1,38
 585 471 585 471 558.5 451 c 128,-1,39
 532 431 532 431 502 418 c 1,40,41
 532 405 532 405 557.5 384 c 128,-1,42
 583 363 583 363 601 337 c 128,-1,43
 619 311 619 311 628.5 280.5 c 128,-1,44
 638 250 638 250 636 219 c 0,45,46
 633 175 633 175 618.5 143 c 128,-1,47
 604 111 604 111 580 88.5 c 128,-1,48
 556 66 556 66 524 53 c 128,-1,49
 492 40 492 40 454 34 c 0,50,51
 439 32 439 32 423 30 c 128,-1,52
 407 28 407 28 389 26 c 1,53,54
 387 4 387 4 387.5 -17 c 128,-1,55
 388 -38 388 -38 386 -54.5 c 128,-1,56
 384 -71 384 -71 376.5 -81 c 128,-1,57
 369 -91 369 -91 351 -91 c 0,58,59
 331 -91 331 -91 324.5 -80 c 128,-1,60
 318 -69 318 -69 318 -52.5 c 128,-1,61
 318 -36 318 -36 320 -15.5 c 128,-1,62
 322 5 322 5 321 26 c 1,63,64
 304 26 304 26 288 26.5 c 128,-1,65
 272 27 272 27 255 28 c 0,66,67
 233 30 233 30 212.5 31 c 128,-1,68
 192 32 192 32 173 32 c 1,69,70
 168 21 168 21 160.5 14.5 c 128,-1,71
 153 8 153 8 141 7 c 0,72,73
 116 4 116 4 112 32 c 1,74,-1
 88 32 l 1,0,1
193 755 m 1,75,76
 193 720 193 720 193.5 686 c 128,-1,77
 194 652 194 652 195 617 c 0,78,79
 196 581 196 581 196.5 543.5 c 128,-1,80
 197 506 197 506 197 467 c 0,81,82
 197 379 197 379 192.5 287 c 128,-1,83
 188 195 188 195 176 87 c 1,84,85
 229 86 229 86 257 86 c 128,-1,86
 285 86 285 86 298.5 86 c 128,-1,87
 312 86 312 86 315 85.5 c 128,-1,88
 318 85 318 85 321 85 c 1,89,-1
 325 215 l 2,90,91
 327 260 327 260 328 300.5 c 128,-1,92
 329 341 329 341 329 391 c 1,93,94
 278 391 278 391 263.5 398.5 c 128,-1,95
 249 406 249 406 249 422 c 0,96,97
 249 437 249 437 258 443.5 c 128,-1,98
 267 450 267 450 280 452 c 128,-1,99
 293 454 293 454 307 453.5 c 128,-1,100
 321 453 321 453 331 453 c 1,101,102
 333 550 333 550 334 607.5 c 128,-1,103
 335 665 335 665 336 698 c 128,-1,104
 337 731 337 731 337 747.5 c 128,-1,105
 337 764 337 764 337 779 c 1,106,107
 332 779 332 779 316.5 777.5 c 128,-1,108
 301 776 301 776 280 773 c 128,-1,109
 259 770 259 770 235.5 765.5 c 128,-1,110
 212 761 212 761 193 755 c 1,75,76
398 453 m 1,111,112
 495 461 495 461 543.5 503.5 c 128,-1,113
 592 546 592 546 592 606 c 0,114,115
 592 646 592 646 575.5 674.5 c 128,-1,116
 559 703 559 703 532.5 722.5 c 128,-1,117
 506 742 506 742 472.5 753.5 c 128,-1,118
 439 765 439 765 404 773 c 1,119,-1
 398 453 l 1,111,112
389 86 m 1,120,121
 419 88 419 88 452.5 94.5 c 128,-1,122
 486 101 486 101 514 115.5 c 128,-1,123
 542 130 542 130 560.5 154.5 c 128,-1,124
 579 179 579 179 579 218 c 0,125,126
 581 307 581 307 514 347 c 0,127,128
 492 361 492 361 462.5 370.5 c 128,-1,129
 433 380 433 380 396 385 c 1,130,131
 396 294 396 294 393 216 c 2,132,-1
 389 86 l 1,120,121
EndSplineSet
EndChar
StartChar: uni0E40
Encoding: 3648 3648 64
Width: 360
Flags: W
Fore
80 706 m 1,0,1
 83 727 83 727 107 727 c 128,-1,2
 131 727 131 727 133.5 712.5 c 128,-1,3
 136 698 136 698 136.5 584 c 128,-1,4
 137 470 137 470 137 365.5 c 128,-1,5
 137 261 137 261 136 247 c 1,6,7
 180 261 180 261 206 261 c 0,8,9
 229 261 229 261 249.5 253.5 c 128,-1,10
 270 246 270 246 285 230.5 c 128,-1,11
 300 215 300 215 309 190 c 128,-1,12
 318 165 318 165 318 129 c 0,13,14
 318 96 318 96 308.5 72.5 c 128,-1,15
 299 49 299 49 282.5 33 c 128,-1,16
 266 17 266 17 245 9.5 c 128,-1,17
 224 2 224 2 200 2 c 0,18,19
 142 2 142 2 111 36 c 128,-1,20
 80 70 80 70 80 152 c 2,21,-1
 80 706 l 1,0,1
268 129 m 0,22,23
 268 175 268 175 247 194 c 128,-1,24
 226 213 226 213 199 214 c 1,25,26
 173 210 173 210 153 195 c 128,-1,27
 133 180 133 180 133 152 c 0,28,29
 133 104 133 104 148.5 80 c 128,-1,30
 164 56 164 56 200 56 c 0,31,32
 228 56 228 56 248 74.5 c 128,-1,33
 268 93 268 93 268 129 c 0,22,23
EndSplineSet
EndChar
StartChar: uni0E41
Encoding: 3649 3649 65
Width: 647
Flags: W
Fore
81 706 m 2,0,1
 81 717 81 717 89.5 722 c 128,-1,2
 98 727 98 727 111 727 c 0,3,4
 122 727 122 727 129 721.5 c 128,-1,5
 136 716 136 716 137 708 c 2,6,-1
 138 591 l 2,7,8
 139 549 139 549 139 505 c 128,-1,9
 139 461 139 461 139 413 c 2,10,-1
 139 371 l 1,11,-1
 138 247 l 1,12,13
 172 261 172 261 208 261 c 0,14,15
 231 261 231 261 251.5 253.5 c 128,-1,16
 272 246 272 246 287 230.5 c 128,-1,17
 302 215 302 215 311 190 c 128,-1,18
 320 165 320 165 320 129 c 0,19,20
 320 96 320 96 310.5 72.5 c 128,-1,21
 301 49 301 49 284.5 33 c 128,-1,22
 268 17 268 17 247 9.5 c 128,-1,23
 226 2 226 2 202 2 c 0,24,25
 144 2 144 2 112.5 36 c 128,-1,26
 81 70 81 70 81 152 c 2,27,-1
 81 706 l 2,0,1
269 129 m 0,28,29
 269 175 269 175 249.5 194.5 c 128,-1,30
 230 214 230 214 200 214 c 0,31,32
 173 213 173 213 154 196.5 c 128,-1,33
 135 180 135 180 135 152 c 0,34,35
 135 104 135 104 150 80 c 128,-1,36
 165 56 165 56 202 56 c 0,37,38
 229 56 229 56 249 74.5 c 128,-1,39
 269 93 269 93 269 129 c 0,28,29
353 706 m 2,40,41
 353 715 353 715 359.5 721 c 128,-1,42
 366 727 366 727 382 727 c 0,43,44
 408 727 408 727 408 705 c 0,45,46
 408 688 408 688 408 660.5 c 128,-1,47
 408 633 408 633 409 591 c 256,48,49
 410 549 410 549 410 505 c 128,-1,50
 410 461 410 461 410 413 c 2,51,-1
 410 371 l 1,52,-1
 409 247 l 1,53,54
 426 254 426 254 443 258 c 128,-1,55
 460 262 460 262 479 261 c 0,56,57
 503 260 503 260 523.5 253 c 128,-1,58
 544 246 544 246 559.5 230 c 128,-1,59
 575 214 575 214 583.5 189.5 c 128,-1,60
 592 165 592 165 592 129 c 0,61,62
 592 96 592 96 582.5 72.5 c 128,-1,63
 573 49 573 49 556.5 33 c 128,-1,64
 540 17 540 17 518.5 9.5 c 128,-1,65
 497 2 497 2 473 2 c 0,66,67
 415 2 415 2 384 36 c 128,-1,68
 353 70 353 70 353 152 c 2,69,-1
 353 706 l 2,40,41
541 129 m 0,70,71
 541 175 541 175 522 194.5 c 128,-1,72
 503 214 503 214 471 214 c 0,73,74
 445 212 445 212 425.5 196.5 c 128,-1,75
 406 181 406 181 406 152 c 0,76,77
 406 104 406 104 421.5 80 c 128,-1,78
 437 56 437 56 473 56 c 0,79,80
 500 56 500 56 520.5 74.5 c 128,-1,81
 541 93 541 93 541 129 c 0,70,71
EndSplineSet
EndChar
StartChar: uni0E42
Encoding: 3650 3650 66
Width: 512
Flags: W
Fore
263 733 m 2,0,1
 263 778 263 778 257.5 805 c 128,-1,2
 252 832 252 832 237 846.5 c 128,-1,3
 222 861 222 861 196.5 865 c 128,-1,4
 171 869 171 869 131 869 c 2,5,-1
 47 865 l 2,6,7
 14 865 14 865 -9 866.5 c 128,-1,8
 -32 868 -32 868 -46.5 874 c 128,-1,9
 -61 880 -61 880 -67.5 892.5 c 128,-1,10
 -74 905 -74 905 -74 927 c 0,11,12
 -74 960 -74 960 -52 1006 c 128,-1,13
 -30 1052 -30 1052 8 1095 c 128,-1,14
 46 1138 46 1138 97 1168 c 128,-1,15
 148 1198 148 1198 207 1198 c 0,16,17
 259 1198 259 1198 300.5 1183.5 c 128,-1,18
 342 1169 342 1169 374 1147 c 128,-1,19
 406 1125 406 1125 429.5 1100 c 128,-1,20
 453 1075 453 1075 470 1054 c 0,21,22
 483 1040 483 1040 492.5 1029 c 128,-1,23
 502 1018 502 1018 506 1018 c 0,24,25
 517 1018 517 1018 519 1023.5 c 128,-1,26
 521 1029 521 1029 523 1040 c 1,27,-1
 523 1039 l 1,28,29
 523 1040 523 1040 523.5 1040.5 c 128,-1,30
 524 1041 524 1041 524 1042 c 0,31,32
 527 1074 527 1074 553 1074 c 0,33,34
 582 1074 582 1074 583 1046 c 0,35,36
 584 1030 584 1030 579 1015 c 128,-1,37
 574 1000 574 1000 564.5 988.5 c 128,-1,38
 555 977 555 977 540.5 970 c 128,-1,39
 526 963 526 963 508 963 c 0,40,41
 476 963 476 963 454 982.5 c 128,-1,42
 432 1002 432 1002 408 1029 c 0,43,44
 392 1047 392 1047 373 1066 c 128,-1,45
 354 1085 354 1085 330 1101 c 128,-1,46
 306 1117 306 1117 276 1128 c 128,-1,47
 246 1139 246 1139 207 1140 c 0,48,49
 164 1141 164 1141 124 1116 c 128,-1,50
 84 1091 84 1091 53.5 1056.5 c 128,-1,51
 23 1022 23 1022 4.5 987 c 128,-1,52
 -14 952 -14 952 -14 933 c 0,53,54
 -14 928 -14 928 -12.5 926 c 128,-1,55
 -11 924 -11 924 4 924 c 0,56,57
 12 924 12 924 21.5 924.5 c 128,-1,58
 31 925 31 925 44 925 c 0,59,60
 68 926 68 926 106 926 c 128,-1,61
 144 926 144 926 191 926 c 0,62,63
 267 926 267 926 293 873 c 0,64,65
 303 851 303 851 309.5 819 c 128,-1,66
 316 787 316 787 317 758 c 0,67,68
 318 715 318 715 318 666 c 128,-1,69
 318 617 318 617 318 582 c 0,70,71
 318 499 318 499 317 437.5 c 128,-1,72
 316 376 316 376 314.5 331 c 128,-1,73
 313 286 313 286 311.5 256.5 c 128,-1,74
 310 227 310 227 309 208 c 1,75,76
 323 219 323 219 342 225 c 128,-1,77
 361 231 361 231 383 231 c 0,78,79
 436 231 436 231 469 196 c 0,80,81
 483 180 483 180 491.5 159.5 c 128,-1,82
 500 139 500 139 500 119 c 0,83,84
 500 77 500 77 466 39 c 0,85,86
 433 0 433 0 375 0 c 0,87,88
 355 0 355 0 335.5 6.5 c 128,-1,89
 316 13 316 13 296 24 c 0,90,91
 253 52 253 52 252 125 c 2,92,-1
 263 733 l 2,0,1
381 56 m 0,93,94
 411 56 411 56 427.5 73 c 128,-1,95
 444 90 444 90 444 119 c 0,96,97
 444 143 444 143 427.5 160 c 128,-1,98
 411 177 411 177 381 177 c 0,99,100
 352 177 352 177 335.5 160 c 128,-1,101
 319 143 319 143 317 124 c 0,102,103
 313 56 313 56 381 56 c 0,93,94
EndSplineSet
EndChar
StartChar: uni0E43
Encoding: 3651 3651 67
Width: 522
Flags: W
Fore
407 52 m 0,0,1
 437 52 437 52 453.5 69.5 c 128,-1,2
 470 87 470 87 470 114 c 0,3,4
 470 139 470 139 453.5 156.5 c 128,-1,5
 437 174 437 174 407 174 c 0,6,7
 378 174 378 174 361.5 156.5 c 128,-1,8
 345 139 345 139 343 120 c 0,9,10
 338 52 338 52 407 52 c 0,0,1
6 957 m 2,11,12
 4 939 4 939 8 922.5 c 128,-1,13
 12 906 12 906 21.5 893 c 128,-1,14
 31 880 31 880 45 873 c 128,-1,15
 59 866 59 866 79 866 c 0,16,17
 129 867 129 867 147 893.5 c 128,-1,18
 165 920 165 920 160 959 c 0,19,20
 159 972 159 972 152 983 c 128,-1,21
 145 994 145 994 134.5 1002.5 c 128,-1,22
 124 1011 124 1011 111.5 1016 c 128,-1,23
 99 1021 99 1021 87 1021 c 0,24,25
 74 1021 74 1021 59.5 1017 c 128,-1,26
 45 1013 45 1013 32.5 1005 c 128,-1,27
 20 997 20 997 12 985.5 c 128,-1,28
 4 974 4 974 6 959 c 2,29,-1
 6 957 l 2,11,12
280 121 m 0,30,31
 280 215 280 215 281 294 c 128,-1,32
 282 373 282 373 284 439 c 0,33,34
 285 484 285 484 285.5 527.5 c 128,-1,35
 286 571 286 571 286 605 c 2,36,-1
 286 872 l 2,37,38
 284 956 284 956 279.5 1003 c 128,-1,39
 275 1050 275 1050 261 1070 c 1,40,-1
 262 1070 l 1,41,42
 239 1100 239 1100 208.5 1112.5 c 128,-1,43
 178 1125 178 1125 146 1125 c 0,44,45
 125 1125 125 1125 105 1120 c 128,-1,46
 85 1115 85 1115 68.5 1107 c 128,-1,47
 52 1099 52 1099 40.5 1088.5 c 128,-1,48
 29 1078 29 1078 25 1068 c 1,49,50
 53 1080 53 1080 87.5 1079.5 c 128,-1,51
 122 1079 122 1079 152 1064.5 c 128,-1,52
 182 1050 182 1050 202.5 1021 c 128,-1,53
 223 992 223 992 225 949 c 0,54,55
 226 922 226 922 215.5 896.5 c 128,-1,56
 205 871 205 871 185.5 851.5 c 128,-1,57
 166 832 166 832 139 820 c 128,-1,58
 112 808 112 808 79 808 c 0,59,60
 45 807 45 807 21.5 818.5 c 128,-1,61
 -2 830 -2 830 -17 848 c 128,-1,62
 -32 866 -32 866 -40.5 887.5 c 128,-1,63
 -49 909 -49 909 -53 928.5 c 128,-1,64
 -57 948 -57 948 -57.5 963 c 128,-1,65
 -58 978 -58 978 -58 983 c 0,66,67
 -58 1016 -58 1016 -48.5 1052 c 128,-1,68
 -39 1088 -39 1088 -15 1118 c 128,-1,69
 9 1148 9 1148 50 1167.5 c 128,-1,70
 91 1187 91 1187 155 1188 c 0,71,72
 212 1186 212 1186 250 1166.5 c 128,-1,73
 288 1147 288 1147 310.5 1109 c 128,-1,74
 333 1071 333 1071 341.5 1014 c 128,-1,75
 350 957 350 957 348 881 c 2,76,-1
 338 209 l 1,77,78
 351 217 351 217 368.5 222 c 128,-1,79
 386 227 386 227 409 227 c 0,80,81
 436 227 436 227 457 217.5 c 128,-1,82
 478 208 478 208 492.5 192 c 128,-1,83
 507 176 507 176 515 156 c 128,-1,84
 523 136 523 136 523 114 c 0,85,86
 523 91 523 91 515.5 69.5 c 128,-1,87
 508 48 508 48 493 32 c 128,-1,88
 478 16 478 16 455 6 c 128,-1,89
 432 -4 432 -4 401 -4 c 0,90,91
 347 -5 347 -5 312.5 27.5 c 128,-1,92
 278 60 278 60 280 121 c 0,30,31
EndSplineSet
EndChar
StartChar: uni0E44
Encoding: 3652 3652 68
Width: 522
Flags: W
Fore
403 1122 m 0,0,1
 398 915 398 915 388 729 c 0,2,3
 377 543 377 543 367 412 c 0,4,5
 356 277 356 277 349 215 c 1,6,7
 361 220 361 220 376 223.5 c 128,-1,8
 391 227 391 227 411 227 c 0,9,10
 447 227 447 227 471.5 211 c 128,-1,11
 496 195 496 195 508.5 169.5 c 128,-1,12
 521 144 521 144 521 112 c 128,-1,13
 521 80 521 80 508 49 c 0,14,15
 501 32 501 32 489.5 22 c 128,-1,16
 478 12 478 12 463.5 6 c 128,-1,17
 449 0 449 0 433.5 -2 c 128,-1,18
 418 -4 418 -4 403 -4 c 0,19,20
 377 -4 377 -4 354 5 c 128,-1,21
 331 14 331 14 314 31.5 c 128,-1,22
 297 49 297 49 287.5 73.5 c 128,-1,23
 278 98 278 98 280 128 c 0,24,25
 284 166 284 166 291.5 256.5 c 128,-1,26
 299 347 299 347 307.5 473 c 128,-1,27
 316 599 316 599 324.5 751.5 c 128,-1,28
 333 904 333 904 339 1066 c 1,29,30
 329 1050 329 1050 298.5 1004.5 c 128,-1,31
 268 959 268 959 217 882 c 0,32,33
 200 862 200 862 179 864 c 128,-1,34
 158 866 158 866 145 880 c 2,35,-1
 -40 1142 l 2,36,37
 -46 1151 -46 1151 -44 1164 c 128,-1,38
 -42 1177 -42 1177 -33.5 1185.5 c 128,-1,39
 -25 1194 -25 1194 -12 1194.5 c 128,-1,40
 1 1195 1 1195 16 1180 c 1,41,-1
 180 938 l 1,42,-1
 235 1019 l 2,43,44
 258 1051 258 1051 273.5 1075 c 128,-1,45
 289 1099 289 1099 299 1114 c 256,46,47
 309 1129 309 1129 318 1144 c 128,-1,48
 327 1159 327 1159 337 1173 c 0,49,50
 357 1199 357 1199 380 1188 c 256,51,52
 403 1177 403 1177 403 1122 c 0,0,1
409 52 m 0,53,54
 439 52 439 52 455.5 69.5 c 128,-1,55
 472 87 472 87 472 114 c 0,56,57
 472 139 472 139 455.5 157.5 c 128,-1,58
 439 176 439 176 409 176 c 0,59,60
 380 176 380 176 360.5 158.5 c 128,-1,61
 341 141 341 141 339 122 c 0,62,63
 337 88 337 88 356 70 c 128,-1,64
 375 52 375 52 409 52 c 0,53,54
EndSplineSet
EndChar
StartChar: uni0E45
Encoding: 3653 3653 69
Width: 565
Flags: W
Fore
59 554 m 2,0,1
 59 639 59 639 107 699 c 0,2,3
 157 761 157 761 259 761 c 0,4,5
 342 761 342 761 388 731 c 128,-1,6
 434 701 434 701 456 650.5 c 128,-1,7
 478 600 478 600 482.5 534.5 c 128,-1,8
 487 469 487 469 487 398 c 2,9,-1
 487 360 l 2,10,11
 487 343 487 343 487 299 c 128,-1,12
 487 255 487 255 486.5 195 c 128,-1,13
 486 135 486 135 486 64.5 c 128,-1,14
 486 -6 486 -6 485 -74.5 c 128,-1,15
 484 -143 484 -143 482.5 -204.5 c 128,-1,16
 481 -266 481 -266 479 -308 c 0,17,18
 478 -319 478 -319 468.5 -326.5 c 128,-1,19
 459 -334 459 -334 449 -334 c 0,20,21
 422 -334 422 -334 422 -305 c 0,22,23
 422 -279 422 -279 422 -243.5 c 128,-1,24
 422 -208 422 -208 423 -162 c 0,25,26
 423 -141 423 -141 423.5 -117 c 128,-1,27
 424 -93 424 -93 424 -68.5 c 128,-1,28
 424 -19.5 l 128,-1,29
 424 5 424 5 424 26 c 2,30,-1
 424 310 l 2,31,32
 424 340 424 340 424 373 c 128,-1,33
 424 406 424 406 425 441 c 0,34,35
 424 470 424 470 421 507 c 128,-1,36
 418 544 418 544 412 571 c 0,37,38
 398 633 398 633 365 670 c 0,39,40
 334 707 334 707 265 707 c 0,41,42
 185 707 185 707 151 664 c 128,-1,43
 117 621 117 621 112 533 c 1,44,-1
 104 526 l 2,45,46
 95 517 95 517 83 517 c 0,47,48
 72 517 72 517 63 526 c 0,49,50
 62 527 62 527 60.5 529.5 c 128,-1,51
 59 532 59 532 59 534 c 2,52,-1
 59 554 l 2,0,1
EndSplineSet
EndChar
StartChar: uni0E46
Encoding: 3654 3654 70
Width: 637
Flags: W
Fore
551 190 m 1,0,-1
 537 -256 l 2,1,2
 533 -286 533 -286 522.5 -300.5 c 128,-1,3
 512 -315 512 -315 500.5 -318 c 128,-1,4
 489 -321 489 -321 480.5 -315 c 128,-1,5
 472 -309 472 -309 473 -298 c 0,6,7
 478 -260 478 -260 482 -209 c 128,-1,8
 486 -158 486 -158 488.5 -97.5 c 128,-1,9
 491 -37 491 -37 492.5 31 c 128,-1,10
 494 99 494 99 494 171 c 0,11,12
 494 262 494 262 493 350 c 128,-1,13
 492 438 492 438 489 523 c 0,14,15
 489 578 489 578 469 623 c 0,16,17
 461 640 461 640 449 652 c 128,-1,18
 437 664 437 664 421 663 c 0,19,20
 399 662 399 662 386 648 c 128,-1,21
 373 634 373 634 366.5 614.5 c 128,-1,22
 360 595 360 595 357.5 574.5 c 128,-1,23
 355 554 355 554 354 540 c 0,24,25
 353 528 353 528 343.5 520.5 c 128,-1,26
 334 513 334 513 322.5 511.5 c 128,-1,27
 311 510 311 510 301 517 c 128,-1,28
 291 524 291 524 289 541 c 0,29,30
 289 569 289 569 279.5 592.5 c 128,-1,31
 270 616 270 616 256 632.5 c 128,-1,32
 242 649 242 649 224.5 658 c 128,-1,33
 207 667 207 667 192 667 c 0,34,35
 179 667 179 667 168 656 c 128,-1,36
 157 645 157 645 149 628 c 128,-1,37
 141 611 141 611 135.5 591.5 c 128,-1,38
 130 572 130 572 128 554 c 1,39,40
 143 561 143 561 160 561 c 0,41,42
 183 561 183 561 201 553 c 128,-1,43
 219 545 219 545 231 532 c 128,-1,44
 243 519 243 519 249 503 c 128,-1,45
 255 487 255 487 255 472 c 0,46,47
 255 446 255 446 245 424.5 c 128,-1,48
 235 403 235 403 215 394 c 0,49,50
 183 380 183 380 155.5 381 c 128,-1,51
 128 382 128 382 107.5 399 c 128,-1,52
 87 416 87 416 76 449 c 128,-1,53
 65 482 65 482 67 532 c 0,54,55
 68 561 68 561 78 595.5 c 128,-1,56
 88 630 88 630 104.5 659.5 c 128,-1,57
 121 689 121 689 143.5 709 c 128,-1,58
 166 729 166 729 192 729 c 0,59,60
 234 729 234 729 264 706.5 c 128,-1,61
 294 684 294 684 314 649 c 1,62,63
 328 684 328 684 355.5 708 c 128,-1,64
 383 732 383 732 423 730 c 0,65,66
 449 729 449 729 473.5 714.5 c 128,-1,67
 498 700 498 700 515 671 c 0,68,69
 529 647 529 647 539 608 c 128,-1,70
 549 569 549 569 549 527 c 2,71,-1
 551 190 l 1,0,-1
181 443 m 0,72,73
 195 451 195 451 198.5 462 c 128,-1,74
 202 473 202 473 198.5 483 c 128,-1,75
 195 493 195 493 184.5 499.5 c 128,-1,76
 174 506 174 506 159 505 c 1,77,78
 144 501 144 501 134 494.5 c 128,-1,79
 124 488 124 488 125 472 c 0,80,81
 127 448 127 448 143 439 c 128,-1,82
 159 430 159 430 181 443 c 0,72,73
EndSplineSet
EndChar
StartChar: uni0E47
Encoding: 3655 3655 71
Width: 0
Flags: W
Fore
-275 888 m 0,0,1
 -272 888 -272 888 -264 896.5 c 128,-1,2
 -256 905 -256 905 -251 912 c 1,3,4
 -271 911 -271 911 -285.5 916.5 c 128,-1,5
 -300 922 -300 922 -309.5 931.5 c 128,-1,6
 -319 941 -319 941 -323.5 953 c 128,-1,7
 -328 965 -328 965 -328 977 c 0,8,9
 -328 990 -328 990 -322 1002.5 c 128,-1,10
 -316 1015 -316 1015 -306.5 1024 c 128,-1,11
 -297 1033 -297 1033 -284 1038.5 c 128,-1,12
 -271 1044 -271 1044 -256 1044 c 0,13,14
 -225 1043 -225 1043 -204 1021 c 128,-1,15
 -183 999 -183 999 -184 967 c 0,16,17
 -184 947 -184 947 -191.5 924.5 c 128,-1,18
 -199 902 -199 902 -211 882.5 c 128,-1,19
 -223 863 -223 863 -240 850 c 128,-1,20
 -257 837 -257 837 -277 837 c 0,21,22
 -299 837 -299 837 -314.5 850.5 c 128,-1,23
 -330 864 -330 864 -344 882 c 0,24,25
 -356 896 -356 896 -368.5 907.5 c 128,-1,26
 -381 919 -381 919 -396 919 c 0,27,28
 -399 919 -399 919 -406.5 910 c 128,-1,29
 -414 901 -414 901 -423 890 c 0,30,31
 -437 874 -437 874 -451.5 859.5 c 128,-1,32
 -466 845 -466 845 -482 845 c 0,33,34
 -497 845 -497 845 -513.5 859 c 128,-1,35
 -530 873 -530 873 -544.5 896.5 c 128,-1,36
 -559 920 -559 920 -568.5 950 c 128,-1,37
 -578 980 -578 980 -578 1013 c 0,38,39
 -578 1056 -578 1056 -557.5 1087.5 c 128,-1,40
 -537 1119 -537 1119 -508.5 1139.5 c 128,-1,41
 -480 1160 -480 1160 -449 1170 c 128,-1,42
 -418 1180 -418 1180 -398 1180 c 0,43,44
 -350 1182 -350 1182 -319 1167 c 2,45,46
 -302 1162 -302 1162 -285 1151 c 128,-1,47
 -268 1140 -268 1140 -247 1126 c 1,48,49
 -233 1131 -233 1131 -224.5 1150.5 c 128,-1,50
 -216 1170 -216 1170 -216 1196 c 0,51,52
 -216 1217 -216 1217 -221.5 1238 c 128,-1,53
 -227 1259 -227 1259 -239 1275 c 1,54,55
 -246 1288 -246 1288 -241.5 1297 c 128,-1,56
 -237 1306 -237 1306 -227 1310 c 128,-1,57
 -217 1314 -217 1314 -205.5 1311.5 c 128,-1,58
 -194 1309 -194 1309 -187 1300 c 0,59,60
 -172 1283 -172 1283 -167 1255.5 c 128,-1,61
 -162 1228 -162 1228 -162 1197 c 0,62,63
 -162 1171 -162 1171 -169 1148 c 128,-1,64
 -176 1125 -176 1125 -189.5 1107.5 c 128,-1,65
 -203 1090 -203 1090 -221.5 1079.5 c 128,-1,66
 -240 1069 -240 1069 -263 1069 c 1,67,-1
 -288 1086 l 1,68,-1
 -287 1086 l 1,69,70
 -315 1106 -315 1106 -339 1116 c 128,-1,71
 -363 1126 -363 1126 -397 1124 c 0,72,73
 -418 1122 -418 1122 -440 1113 c 128,-1,74
 -462 1104 -462 1104 -480 1089 c 128,-1,75
 -498 1074 -498 1074 -510 1054.5 c 128,-1,76
 -522 1035 -522 1035 -523 1012 c 0,77,78
 -523 986 -523 986 -519 966.5 c 128,-1,79
 -515 947 -515 947 -504 932 c 0,80,81
 -496 921 -496 921 -491 914 c 128,-1,82
 -486 907 -486 907 -484 905 c 1,83,-1
 -471 922 l 2,84,85
 -464 931 -464 931 -456.5 940.5 c 128,-1,86
 -449 950 -449 950 -440 958.5 c 128,-1,87
 -431 967 -431 967 -420.5 973 c 128,-1,88
 -410 979 -410 979 -398 980 c 1,89,90
 -372 978 -372 978 -351 958.5 c 128,-1,91
 -330 939 -330 939 -313 921 c 0,92,93
 -301 908 -301 908 -290.5 898 c 128,-1,94
 -280 888 -280 888 -275 888 c 0,0,1
-255 997 m 1,95,96
 -269 994 -269 994 -274.5 987.5 c 128,-1,97
 -280 981 -280 981 -280 977 c 0,98,99
 -280 967 -280 967 -273 958.5 c 128,-1,100
 -266 950 -266 950 -255 950 c 256,101,102
 -244 950 -244 950 -238 956 c 128,-1,103
 -232 962 -232 962 -231 971 c 0,104,105
 -231 985 -231 985 -239 990 c 128,-1,106
 -247 995 -247 995 -255 997 c 1,95,96
EndSplineSet
Substitution: 0 65534 'L026' uni0E47.alt1
Substitution: 0 65534 'L026' uni0E47.alt1
EndChar
StartChar: uni0E48
Encoding: 3656 3656 72
Width: 0
Flags: W
Fore
-180 1493 m 1,0,1
 -170 1504 -170 1504 -154 1504 c 256,2,3
 -138 1504 -138 1504 -125 1488 c 1,4,-1
 -125 1246 l 1,5,6
 -137 1226 -137 1226 -154 1226 c 256,7,8
 -171 1226 -171 1226 -182 1246 c 1,9,-1
 -182 1484 l 1,10,-1
 -180 1493 l 1,0,1
EndSplineSet
Substitution: 0 65534 'L026' uni0E48.alt2
Substitution: 0 65534 'L026' uni0E48.alt2
EndChar
StartChar: uni0E49
Encoding: 3657 3657 73
Width: 0
Flags: W
Fore
-290 1280 m 0,0,1
 -292 1278 -292 1278 -293.5 1276 c 128,-1,2
 -295 1274 -295 1274 -297 1273 c 1,3,4
 -234 1286 -234 1286 -190 1305.5 c 128,-1,5
 -146 1325 -146 1325 -115.5 1355 c 128,-1,6
 -85 1385 -85 1385 -65 1428 c 128,-1,7
 -45 1471 -45 1471 -31 1531 c 0,8,9
 -30 1542 -30 1542 -23 1547.5 c 128,-1,10
 -16 1553 -16 1553 -7 1553 c 128,-1,11
 2 1553 2 1553 10.5 1548 c 128,-1,12
 19 1543 19 1543 22 1530 c 1,13,14
 16 1444 16 1444 -14 1388.5 c 128,-1,15
 -44 1333 -44 1333 -87.5 1299 c 128,-1,16
 -131 1265 -131 1265 -184 1248 c 128,-1,17
 -237 1231 -237 1231 -290 1222 c 0,18,19
 -328 1217 -328 1217 -346 1224 c 128,-1,20
 -364 1231 -364 1231 -358 1256 c 1,21,22
 -338 1295 -338 1295 -287 1374 c 1,23,24
 -292 1372 -292 1372 -296.5 1372 c 128,-1,25
 -301 1372 -301 1372 -307 1372 c 0,26,27
 -341 1372 -341 1372 -367.5 1395 c 128,-1,28
 -394 1418 -394 1418 -394 1461 c 0,29,30
 -394 1474 -394 1474 -388.5 1489 c 128,-1,31
 -383 1504 -383 1504 -372.5 1516.5 c 128,-1,32
 -362 1529 -362 1529 -346.5 1538.5 c 128,-1,33
 -331 1548 -331 1548 -311 1550 c 0,34,35
 -266 1555 -266 1555 -239 1531.5 c 128,-1,36
 -212 1508 -212 1508 -209 1468 c 0,37,38
 -208 1442 -208 1442 -212.5 1419 c 128,-1,39
 -217 1396 -217 1396 -226 1376 c 128,-1,40
 -235 1356 -235 1356 -246.5 1338 c 128,-1,41
 -258 1320 -258 1320 -269 1305 c 0,42,43
 -279 1288 -279 1288 -290 1280 c 0,0,1
-348 1465 m 0,44,45
 -348 1446 -348 1446 -334.5 1434 c 128,-1,46
 -321 1422 -321 1422 -302 1422 c 0,47,48
 -285 1422 -285 1422 -272 1434.5 c 128,-1,49
 -259 1447 -259 1447 -259 1465 c 0,50,51
 -259 1476 -259 1476 -268 1489 c 128,-1,52
 -277 1502 -277 1502 -302 1502 c 0,53,54
 -319 1502 -319 1502 -333.5 1492 c 128,-1,55
 -348 1482 -348 1482 -348 1465 c 0,44,45
EndSplineSet
Substitution: 0 65534 'L026' uni0E49.alt2
Substitution: 0 65534 'L026' uni0E49.alt2
EndChar
StartChar: uni0E4A
Encoding: 3658 3658 74
Width: 0
Flags: W
Fore
-133 1454 m 0,0,1
 -119 1428 -119 1428 -111 1396.5 c 128,-1,2
 -103 1365 -103 1365 -104 1318 c 1,3,4
 -92 1373 -92 1373 -92 1415 c 0,5,6
 -92 1456 -92 1456 -102 1501.5 c 128,-1,7
 -112 1547 -112 1547 -133 1585 c 1,8,9
 -141 1594 -141 1594 -139.5 1603.5 c 128,-1,10
 -138 1613 -138 1613 -130.5 1618 c 128,-1,11
 -123 1623 -123 1623 -111 1621.5 c 128,-1,12
 -99 1620 -99 1620 -84 1609 c 1,13,14
 -60 1581 -60 1581 -46.5 1528 c 128,-1,15
 -33 1475 -33 1475 -33 1415 c 0,16,17
 -33 1347 -33 1347 -56.5 1288.5 c 128,-1,18
 -80 1230 -80 1230 -121 1196 c 1,19,20
 -136 1187 -136 1187 -154 1193.5 c 128,-1,21
 -172 1200 -172 1200 -176 1225 c 1,22,23
 -155 1280 -155 1280 -155 1319 c 0,24,25
 -155 1375 -155 1375 -177 1419 c 1,26,-1
 -176 1419 l 1,27,28
 -196 1456 -196 1456 -211 1456 c 0,29,30
 -223 1456 -223 1456 -233 1442 c 128,-1,31
 -243 1428 -243 1428 -250.5 1406 c 128,-1,32
 -258 1384 -258 1384 -262.5 1357.5 c 128,-1,33
 -267 1331 -267 1331 -269 1307 c 0,34,35
 -272 1289 -272 1289 -280.5 1283 c 128,-1,36
 -289 1277 -289 1277 -297.5 1278.5 c 128,-1,37
 -306 1280 -306 1280 -312.5 1288.5 c 128,-1,38
 -319 1297 -319 1297 -319 1309 c 0,39,40
 -319 1337 -319 1337 -326 1364 c 128,-1,41
 -333 1391 -333 1391 -344 1412 c 128,-1,42
 -355 1433 -355 1433 -367.5 1445.5 c 128,-1,43
 -380 1458 -380 1458 -392 1458 c 0,44,45
 -406 1458 -406 1458 -415.5 1444.5 c 128,-1,46
 -425 1431 -425 1431 -431 1410.5 c 128,-1,47
 -437 1390 -437 1390 -440 1366 c 128,-1,48
 -443 1342 -443 1342 -444 1322 c 1,49,50
 -439 1323 -439 1323 -432 1323 c 128,-1,51
 -425 1323 -425 1323 -419 1323 c 0,52,53
 -398 1323 -398 1323 -383.5 1316.5 c 128,-1,54
 -369 1310 -369 1310 -360.5 1299.5 c 128,-1,55
 -352 1289 -352 1289 -348 1276.5 c 128,-1,56
 -344 1264 -344 1264 -344 1251 c 0,57,58
 -344 1214 -344 1214 -364 1198.5 c 128,-1,59
 -384 1183 -384 1183 -419 1180 c 0,60,61
 -435 1180 -435 1180 -450.5 1184.5 c 128,-1,62
 -466 1189 -466 1189 -478 1203.5 c 128,-1,63
 -490 1218 -490 1218 -497 1245.5 c 128,-1,64
 -504 1273 -504 1273 -504 1320 c 0,65,66
 -504 1351 -504 1351 -496.5 1385.5 c 128,-1,67
 -489 1420 -489 1420 -474.5 1448.5 c 128,-1,68
 -460 1477 -460 1477 -439.5 1495.5 c 128,-1,69
 -419 1514 -419 1514 -392 1514 c 0,70,71
 -360 1514 -360 1514 -328 1479 c 0,72,73
 -319 1470 -319 1470 -311.5 1458.5 c 128,-1,74
 -304 1447 -304 1447 -298 1436 c 1,75,76
 -282 1470 -282 1470 -259 1494.5 c 128,-1,77
 -236 1519 -236 1519 -211 1516 c 1,78,-1
 -212 1516 l 1,79,80
 -165 1511 -165 1511 -133 1454 c 0,0,1
-419 1223 m 0,81,82
 -411 1223 -411 1223 -398.5 1227 c 128,-1,83
 -386 1231 -386 1231 -386 1251 c 0,84,85
 -386 1280 -386 1280 -419 1280 c 0,86,87
 -435 1281 -435 1281 -442.5 1270 c 128,-1,88
 -450 1259 -450 1259 -450 1251 c 0,89,90
 -450 1223 -450 1223 -419 1223 c 0,81,82
EndSplineSet
Substitution: 0 65534 'L026' uni0E4A.alt2
Substitution: 0 65534 'L026' uni0E4A.alt2
EndChar
